<svg width="50" height="24" viewBox="0 0 50 24" fill="none" xmlns="http://www.w3.org/2000/svg">
<path d="M9.95312 13.9336L10.6328 13.8398L10.3984 17.9531L10.3164 18.0352C8.78516 18.0117 7.11719 18 5.3125 18C3.65625 18 2.00781 18.0117 0.367188 18.0352L0.285156 16.6055C0.949219 16.1602 1.58594 15.7383 2.19531 15.3398C2.80469 14.9336 3.33594 14.5703 3.78906 14.25C4.27344 13.9141 4.67578 13.6016 4.99609 13.3125C5.31641 13.0156 5.57031 12.7305 5.75781 12.457C5.94531 12.1758 6.07812 11.9023 6.15625 11.6367C6.23438 11.3633 6.27344 11.0781 6.27344 10.7812C6.27344 10.0938 6.01562 9.55078 5.5 9.15234C4.99219 8.75391 4.35156 8.55469 3.57812 8.55469C2.78906 8.55469 1.94141 8.80078 1.03516 9.29297L0.589844 8.35547C2.05078 7.36328 3.55469 6.86719 5.10156 6.86719C6.39062 6.86719 7.45312 7.1875 8.28906 7.82812C9.125 8.46094 9.54297 9.24609 9.54297 10.1836C9.54297 10.7539 9.41406 11.2539 9.15625 11.6836C8.90625 12.1133 8.52344 12.5312 8.00781 12.9375C7.5 13.3359 6.85938 13.7539 6.08594 14.1914C5.3125 14.6211 4.40625 15.1211 3.36719 15.6914L3.37891 15.75H9.08594L9.95312 13.9336ZM11.8867 23.3906L11.793 22.3594C12.7852 22.3281 13.6875 22.207 14.5 21.9961C15.3125 21.793 16.0039 21.5117 16.5742 21.1523C17.1445 20.793 17.5859 20.3633 17.8984 19.8633C18.2109 19.3711 18.3672 18.8164 18.3672 18.1992C18.3672 17.1914 18.043 16.3906 17.3945 15.7969C16.7461 15.1953 15.8633 14.8945 14.7461 14.8945C13.8633 14.8945 13.0312 14.9805 12.25 15.1523L12.1797 15.0703L12.8594 7.11328C14.2109 7.14453 15.6562 7.16016 17.1953 7.16016C18.7969 7.16016 20.1914 7.14453 21.3789 7.11328L21.4492 7.20703L21.1562 9.96094H14.0547L13.7852 12.6914C14.5508 12.582 15.3477 12.5273 16.1758 12.5273C17.8711 12.5273 19.2383 12.957 20.2773 13.8164C21.3164 14.668 21.8359 15.7695 21.8359 17.1211C21.8359 17.9883 21.6445 18.7969 21.2617 19.5469C20.8867 20.3047 20.2969 20.9648 19.4922 21.5273C18.6875 22.0898 17.6562 22.5352 16.3984 22.8633C15.1484 23.1992 13.6445 23.375 11.8867 23.3906ZM22.7617 1.24219C24.7148 0.953125 26.418 0.652344 27.8711 0.339844L28 0.433594C27.9531 1.51172 27.9297 2.66016 27.9297 3.87891V14.7422C27.9297 15.6719 27.9375 16.3203 27.9531 16.6875C27.9688 16.8984 28.0664 17.0312 28.2461 17.0859L29.5117 17.4727L29.5586 18.0352C28.5273 18.0117 27.4414 18 26.3008 18C25.1367 18 23.9883 18.0117 22.8555 18.0352L22.7969 17.4727L24.2852 17.0625C24.4648 17.0156 24.5625 16.8984 24.5781 16.7109C24.5938 16.4062 24.6016 15.8945 24.6016 15.1758V5.01562C24.6016 3.99219 24.5859 3.05078 24.5547 2.19141L22.832 1.72266L22.7617 1.24219ZM36.9414 18.0352C35.5195 18.0117 34.4648 18 33.7773 18C33.293 18 32.707 18.0078 32.0195 18.0234C31.7617 17.5781 31.457 17.0898 31.1055 16.5586C30.207 15.1758 29.2188 13.7812 28.1406 12.375L32.6406 7.96875L31.3516 7.62891L31.293 7.07812C32.2461 7.10156 33.0625 7.11328 33.7422 7.11328C34.2969 7.11328 35.2031 7.10156 36.4609 7.07812L36.5195 7.64062C35.5508 7.85938 34.8828 8.0625 34.5156 8.25C34.1562 8.4375 33.7578 8.73438 33.3203 9.14062L31.1758 11.1914L34.75 16.207C35 16.543 35.2305 16.7891 35.4414 16.9453C35.6602 17.1016 36.1445 17.2773 36.8945 17.4727L36.9414 18.0352ZM37.9141 11.7656H42.7422V6.9375H44.3945V11.7656H49.2109V13.418H44.3945V18.2344H42.7422V13.418H37.9141V11.7656Z" fill="#FCF43D"/>
</svg>
