<svg width="12" height="16" viewBox="0 0 12 16" fill="none" xmlns="http://www.w3.org/2000/svg">
<path d="M2.21484 15.7227L9.48047 3.20703H2.40234L1.64062 5.59766L0.878906 5.67969L0.679688 0.21875L0.761719 0.125C1.68359 0.140625 2.58203 0.152344 3.45703 0.160156C4.33203 0.167969 5.19141 0.171875 6.03516 0.171875H6.69141C7.53516 0.171875 8.38281 0.167969 9.23438 0.160156C10.0859 0.152344 10.8711 0.140625 11.5898 0.125L11.6367 1.91797C10.9727 3.11328 10.3281 4.3125 9.70312 5.51562C9.08594 6.71094 8.50781 7.89453 7.96875 9.06641C7.42969 10.2305 6.9375 11.3672 6.49219 12.4766C6.05469 13.5938 5.6875 14.6641 5.39062 15.6875L2.27344 15.8047L2.21484 15.7227Z" fill="#FCF43D"/>
</svg>
