<svg width="24" height="18" viewBox="0 0 24 18" fill="none" xmlns="http://www.w3.org/2000/svg">
<path d="M1.75781 16.3242C6.03906 15.6992 8.42578 13.4766 8.91797 9.65625L8.90625 9.64453C8.00781 10.6602 6.78906 11.168 5.25 11.168C3.98438 11.168 2.89062 10.7383 1.96875 9.87891C1.05469 9.01172 0.597656 7.83984 0.597656 6.36328C0.597656 4.73828 1.17188 3.41797 2.32031 2.40234C3.47656 1.37891 4.86719 0.867188 6.49219 0.867188C8.26562 0.867188 9.71484 1.47656 10.8398 2.69531C11.9727 3.91406 12.5391 5.47656 12.5391 7.38281C12.5391 10.1719 11.6367 12.457 9.83203 14.2383C8.03516 16.0273 5.39453 17.0781 1.91016 17.3906L1.75781 16.3242ZM4.01953 5.41406C4.01953 6.82812 4.26562 7.91797 4.75781 8.68359C5.25781 9.44141 5.89062 9.82031 6.65625 9.82031C7.38281 9.82031 7.95703 9.52734 8.37891 8.94141C8.80078 8.34766 9.01172 7.52734 9.01172 6.48047C9.01172 4.98047 8.76562 3.83984 8.27344 3.05859C7.78906 2.27734 7.10938 1.88672 6.23438 1.88672C5.52344 1.88672 4.97656 2.20312 4.59375 2.83594C4.21094 3.46094 4.01953 4.32031 4.01953 5.41406ZM13.6875 17.3906L13.5938 16.3594C14.5859 16.3281 15.4883 16.207 16.3008 15.9961C17.1133 15.793 17.8047 15.5117 18.375 15.1523C18.9453 14.793 19.3867 14.3633 19.6992 13.8633C20.0117 13.3711 20.168 12.8164 20.168 12.1992C20.168 11.1914 19.8438 10.3906 19.1953 9.79688C18.5469 9.19531 17.6641 8.89453 16.5469 8.89453C15.6641 8.89453 14.832 8.98047 14.0508 9.15234L13.9805 9.07031L14.6602 1.11328C16.0117 1.14453 17.457 1.16016 18.9961 1.16016C20.5977 1.16016 21.9922 1.14453 23.1797 1.11328L23.25 1.20703L22.957 3.96094H15.8555L15.5859 6.69141C16.3516 6.58203 17.1484 6.52734 17.9766 6.52734C19.6719 6.52734 21.0391 6.95703 22.0781 7.81641C23.1172 8.66797 23.6367 9.76953 23.6367 11.1211C23.6367 11.9883 23.4453 12.7969 23.0625 13.5469C22.6875 14.3047 22.0977 14.9648 21.293 15.5273C20.4883 16.0898 19.457 16.5352 18.1992 16.8633C16.9492 17.1992 15.4453 17.375 13.6875 17.3906Z" fill="#FCF43D"/>
</svg>
