<svg width="39" height="38" viewBox="0 0 39 38" fill="none" xmlns="http://www.w3.org/2000/svg">
<circle cx="18.5" cy="18.5" r="15.5" fill="white"/>
<path d="M15.2856 12.0057C15.4849 11.9056 15.7087 11.8611 15.9323 11.8771C16.156 11.893 16.3708 11.9687 16.5531 12.0959L25.0843 18.0334C25.2423 18.1433 25.3711 18.2883 25.4599 18.4564C25.5488 18.6245 25.5951 18.8109 25.5951 19C25.5951 19.1891 25.5488 19.3755 25.4599 19.5436C25.3711 19.7118 25.2423 19.8568 25.0843 19.9667L16.5531 25.9042C16.3708 26.0312 16.1561 26.1069 15.9326 26.1228C15.7091 26.1388 15.4854 26.0943 15.2861 25.9944C15.0869 25.8945 14.9197 25.743 14.8031 25.5565C14.6864 25.3701 14.6248 25.1559 14.625 24.9375V13.0625C14.6248 12.8442 14.6863 12.6301 14.8028 12.4436C14.9194 12.2572 15.0864 12.1056 15.2856 12.0057Z" fill="#333333"/>
</svg>
