<svg width="125" height="125" viewBox="0 0 125 125" fill="none" xmlns="http://www.w3.org/2000/svg">
<path d="M57.9431 35.3945C48.9027 43.2629 35.9364 33.0108 27.9662 41.9623C14.4609 57.1302 42.7464 79.8144 63.047 80.3719C83.6783 80.9384 104.41 62.9117 100.129 42.7135C96.846 27.2214 81.812 9.35882 68.2966 17.5998C61.4332 21.7847 64.007 30.1168 57.9431 35.3945Z" fill="#FCF43D"/>
<path d="M22.5029 102.612C23.0908 102.631 23.6628 102.64 24.2188 102.64C24.4284 102.631 24.7679 102.617 25.2373 102.599C25.7067 102.58 26.0234 102.571 26.1875 102.571C27.1719 102.571 27.9147 102.758 28.416 103.132C28.9219 103.501 29.1748 104.034 29.1748 104.731C29.1748 105.853 28.571 106.616 27.3633 107.021C28.0697 107.14 28.6234 107.402 29.0244 107.808C29.43 108.213 29.6328 108.73 29.6328 109.359C29.6328 110.271 29.3024 110.977 28.6416 111.479C27.9808 111.975 27.0648 112.224 25.8936 112.224C25.6611 112.224 25.4082 112.217 25.1348 112.203C24.8659 112.189 24.5628 112.183 24.2256 112.183C23.6742 112.183 23.109 112.189 22.5303 112.203L22.5029 111.909L23.3438 111.656C23.4577 111.624 23.5192 111.554 23.5283 111.444C23.5329 111.262 23.5352 111.059 23.5352 110.836C23.5397 110.608 23.542 110.357 23.542 110.084V104.54C23.542 104.308 23.5397 104.098 23.5352 103.911C23.5352 103.724 23.5329 103.556 23.5283 103.405C23.5238 103.287 23.4691 103.209 23.3643 103.173L22.5166 102.906L22.5029 102.612ZM24.8682 107.425V111.574C25.0049 111.624 25.1621 111.656 25.3398 111.67C25.5221 111.684 25.6885 111.69 25.8389 111.69C26.5954 111.69 27.1696 111.504 27.5615 111.13C27.958 110.756 28.1562 110.214 28.1562 109.503C28.1562 108.792 27.9557 108.266 27.5547 107.924C27.1582 107.577 26.5156 107.404 25.627 107.404C25.3672 107.404 25.1143 107.411 24.8682 107.425ZM24.8682 106.878C25.1507 106.882 25.4378 106.885 25.7295 106.885C26.404 106.885 26.9121 106.723 27.2539 106.399C27.6003 106.071 27.7734 105.597 27.7734 104.978C27.7734 104.326 27.5957 103.859 27.2402 103.576C26.8893 103.289 26.3812 103.146 25.7158 103.146C25.5973 103.146 25.4674 103.15 25.3262 103.159C25.1849 103.164 25.0322 103.175 24.8682 103.193V106.878ZM32.1211 108.956C32.1211 109.808 32.2806 110.503 32.5996 111.041C32.9186 111.574 33.3926 111.841 34.0215 111.841C34.6094 111.841 35.056 111.606 35.3613 111.137C35.6712 110.663 35.8262 109.963 35.8262 109.038C35.8262 108.168 35.6644 107.482 35.3408 106.98C35.0173 106.479 34.5479 106.229 33.9326 106.229C33.3493 106.229 32.9004 106.454 32.5859 106.905C32.276 107.356 32.1211 108.04 32.1211 108.956ZM37.2207 108.895C37.2207 109.934 36.9062 110.774 36.2773 111.417C35.653 112.055 34.8577 112.374 33.8916 112.374C32.9482 112.374 32.1849 112.073 31.6016 111.472C31.0228 110.866 30.7334 110.075 30.7334 109.1C30.7334 108.097 31.0365 107.279 31.6426 106.646C32.2533 106.007 33.0599 105.688 34.0625 105.688C35.0104 105.688 35.7738 105.982 36.3525 106.57C36.9313 107.154 37.2207 107.928 37.2207 108.895ZM43.0859 106.44C42.7806 106.345 42.4388 106.297 42.0605 106.297C41.2767 106.297 40.6797 106.52 40.2695 106.967C39.8594 107.409 39.6543 108.081 39.6543 108.983C39.6543 109.763 39.8366 110.387 40.2012 110.856C40.5658 111.321 41.0807 111.554 41.7461 111.554C42.1745 111.554 42.6211 111.435 43.0859 111.198V106.44ZM42.1016 102.366C42.9128 102.211 43.6556 102.049 44.3301 101.881L44.3916 101.936C44.3643 102.911 44.3506 103.959 44.3506 105.08V108.799C44.3506 109.428 44.3529 110.05 44.3574 110.665C44.3574 110.897 44.3643 111.084 44.3779 111.226C44.3962 111.367 44.4372 111.476 44.501 111.554C44.5648 111.627 44.6582 111.677 44.7812 111.704C44.9089 111.731 45.0866 111.747 45.3145 111.752L45.3486 112.019C45.1481 112.096 44.9066 112.174 44.624 112.251C44.346 112.328 44.1569 112.367 44.0566 112.367C43.5964 112.367 43.2865 112.107 43.127 111.588C42.4206 112.112 41.7347 112.374 41.0693 112.374C40.2262 112.374 39.5518 112.076 39.0459 111.479C38.5446 110.877 38.2939 110.139 38.2939 109.264C38.2939 108.133 38.6289 107.258 39.2988 106.639C39.9688 106.019 40.9053 105.709 42.1084 105.709C42.4001 105.709 42.7259 105.741 43.0859 105.805C43.0859 104.798 43.0768 103.818 43.0586 102.865L42.1357 102.592L42.1016 102.366ZM45.3418 105.846C45.916 105.859 46.4264 105.866 46.873 105.866C47.1784 105.866 47.666 105.859 48.3359 105.846L48.3633 106.126L47.5635 106.345C47.7321 106.823 47.9281 107.352 48.1514 107.931C48.3747 108.505 48.6117 109.104 48.8623 109.729C48.9671 109.988 49.0811 110.287 49.2041 110.624C49.3317 110.282 49.4684 109.934 49.6143 109.578C49.8285 109.049 50.0358 108.53 50.2363 108.02C50.4368 107.505 50.6442 106.946 50.8584 106.345L50.0791 106.126L50.0518 105.846C50.389 105.859 50.7832 105.866 51.2344 105.866C51.64 105.866 52.0342 105.859 52.417 105.846L52.4512 106.126L51.8154 106.304C51.6742 106.349 51.5716 106.443 51.5078 106.584C51.3392 106.971 51.1569 107.395 50.9609 107.855C50.3594 109.268 49.9036 110.426 49.5938 111.328C49.3841 111.939 49.195 112.563 49.0264 113.201C48.8577 113.844 48.7279 114.395 48.6367 114.855C48.5957 115.079 48.5114 115.247 48.3838 115.361C48.2607 115.48 47.9691 115.539 47.5088 115.539C47.0394 115.539 46.5837 115.523 46.1416 115.491L46.1074 115.225C46.6087 115.147 46.9801 114.985 47.2217 114.739C47.5133 114.425 47.9645 113.589 48.5752 112.23L48.6299 112.101L48.5342 112.073C47.7002 109.995 46.946 108.168 46.2715 106.591C46.2122 106.454 46.1074 106.361 45.957 106.311L45.3555 106.126L45.3418 105.846ZM54.7822 111.602C55.1514 111.72 55.5251 111.779 55.9033 111.779C56.6689 111.779 57.2432 111.545 57.626 111.075C58.0133 110.606 58.207 109.934 58.207 109.059C58.207 108.257 58.0293 107.632 57.6738 107.186C57.3184 106.739 56.792 106.516 56.0947 106.516C55.6481 106.516 55.2106 106.616 54.7822 106.816V111.602ZM54.8232 101.936C54.7959 102.619 54.7822 103.647 54.7822 105.019V106.406C55.516 105.928 56.1882 105.688 56.7988 105.688C57.6556 105.688 58.3324 105.976 58.8291 106.55C59.3258 107.124 59.5742 107.874 59.5742 108.799C59.5742 109.924 59.2529 110.802 58.6104 111.431C57.9723 112.055 57.0859 112.367 55.9512 112.367C55.1947 112.367 54.3789 112.237 53.5039 111.978C53.513 111.399 53.5176 110.654 53.5176 109.742V105.688C53.5176 104.681 53.5085 103.74 53.4902 102.865L52.5674 102.592L52.5332 102.366C53.2806 102.225 54.0212 102.063 54.7549 101.881L54.8232 101.936ZM65.5693 111.581C64.8584 112.11 64.1475 112.374 63.4365 112.374C62.721 112.374 62.1833 112.192 61.8232 111.827C61.4678 111.463 61.29 110.95 61.29 110.289V108.84C61.29 107.865 61.2809 107.133 61.2627 106.646L60.3535 106.399L60.3193 106.167C61.1169 106.021 61.8551 105.862 62.5342 105.688L62.5957 105.736C62.5684 106.27 62.5547 106.955 62.5547 107.794V109.968C62.5547 110.519 62.6846 110.92 62.9443 111.171C63.2041 111.417 63.571 111.54 64.0449 111.54C64.5189 111.54 65.0042 111.415 65.501 111.164V108.252C65.501 107.614 65.4919 107.078 65.4736 106.646L64.5713 106.399L64.5371 106.167C65.3301 106.021 66.0661 105.862 66.7451 105.688L66.8066 105.736C66.7793 106.283 66.7656 106.983 66.7656 107.835C66.7656 109.489 66.7702 110.499 66.7793 110.863C66.7839 111.05 66.7975 111.201 66.8203 111.314C66.8431 111.428 66.8864 111.517 66.9502 111.581C67.014 111.64 67.1074 111.684 67.2305 111.711C67.3581 111.734 67.5267 111.747 67.7363 111.752L67.7705 112.019C67.5609 112.101 67.3193 112.178 67.0459 112.251C66.7725 112.328 66.5856 112.367 66.4854 112.367C66.0251 112.367 65.7197 112.105 65.5693 111.581ZM70.8057 103.269C70.8057 103.51 70.7305 103.708 70.5801 103.863C70.4297 104.014 70.236 104.089 69.999 104.089C69.7712 104.089 69.5843 104.018 69.4385 103.877C69.2972 103.736 69.2266 103.549 69.2266 103.316C69.2266 103.07 69.3018 102.877 69.4521 102.735C69.6025 102.59 69.8008 102.517 70.0469 102.517C70.2702 102.517 70.4525 102.583 70.5938 102.715C70.735 102.842 70.8057 103.027 70.8057 103.269ZM68.4951 106.167C69.2926 106.017 70.0309 105.857 70.71 105.688L70.7715 105.736C70.7441 106.329 70.7305 106.98 70.7305 107.691V110.316C70.7305 110.863 70.735 111.242 70.7441 111.451C70.7533 111.574 70.8102 111.654 70.915 111.69L71.708 111.923L71.7217 112.203C71.0928 112.189 70.555 112.183 70.1084 112.183C69.6618 112.183 69.1309 112.189 68.5156 112.203L68.4883 111.923L69.2812 111.69C69.3861 111.654 69.443 111.583 69.4521 111.479C69.4613 111.301 69.4658 111.002 69.4658 110.583V108.3C69.4658 107.703 69.4567 107.151 69.4385 106.646L68.5293 106.399L68.4951 106.167ZM72.4463 102.592L72.4121 102.366C73.2188 102.211 73.9616 102.049 74.6406 101.881L74.7021 101.936C74.6748 102.678 74.6611 103.711 74.6611 105.032V109.482C74.6611 110.298 74.6657 110.954 74.6748 111.451C74.6885 111.583 74.7523 111.665 74.8662 111.697L75.6113 111.923L75.6318 112.203C75.0166 112.189 74.4857 112.183 74.0391 112.183C73.5924 112.183 73.0638 112.189 72.4531 112.203L72.4258 111.923L73.1982 111.697C73.3122 111.661 73.3737 111.588 73.3828 111.479C73.3919 110.964 73.3965 110.389 73.3965 109.756V106.946C73.3965 105.251 73.3874 103.891 73.3691 102.865L72.4463 102.592ZM81.3125 106.44C81.0072 106.345 80.6654 106.297 80.2871 106.297C79.5033 106.297 78.9062 106.52 78.4961 106.967C78.0859 107.409 77.8809 108.081 77.8809 108.983C77.8809 109.763 78.0632 110.387 78.4277 110.856C78.7923 111.321 79.3073 111.554 79.9727 111.554C80.401 111.554 80.8477 111.435 81.3125 111.198V106.44ZM80.3281 102.366C81.1393 102.211 81.8822 102.049 82.5566 101.881L82.6182 101.936C82.5908 102.911 82.5771 103.959 82.5771 105.08V108.799C82.5771 109.428 82.5794 110.05 82.584 110.665C82.584 110.897 82.5908 111.084 82.6045 111.226C82.6227 111.367 82.6637 111.476 82.7275 111.554C82.7913 111.627 82.8848 111.677 83.0078 111.704C83.1354 111.731 83.3132 111.747 83.541 111.752L83.5752 112.019C83.3747 112.096 83.1331 112.174 82.8506 112.251C82.5726 112.328 82.3835 112.367 82.2832 112.367C81.8229 112.367 81.513 112.107 81.3535 111.588C80.6471 112.112 79.9613 112.374 79.2959 112.374C78.4528 112.374 77.7783 112.076 77.2725 111.479C76.7712 110.877 76.5205 110.139 76.5205 109.264C76.5205 108.133 76.8555 107.258 77.5254 106.639C78.1953 106.019 79.1318 105.709 80.335 105.709C80.6266 105.709 80.9525 105.741 81.3125 105.805C81.3125 104.798 81.3034 103.818 81.2852 102.865L80.3623 102.592L80.3281 102.366ZM86.6514 103.269C86.6514 103.51 86.5762 103.708 86.4258 103.863C86.2754 104.014 86.0817 104.089 85.8447 104.089C85.6169 104.089 85.43 104.018 85.2842 103.877C85.1429 103.736 85.0723 103.549 85.0723 103.316C85.0723 103.07 85.1475 102.877 85.2979 102.735C85.4482 102.59 85.6465 102.517 85.8926 102.517C86.1159 102.517 86.2982 102.583 86.4395 102.715C86.5807 102.842 86.6514 103.027 86.6514 103.269ZM84.3408 106.167C85.1383 106.017 85.8766 105.857 86.5557 105.688L86.6172 105.736C86.5898 106.329 86.5762 106.98 86.5762 107.691V110.316C86.5762 110.863 86.5807 111.242 86.5898 111.451C86.599 111.574 86.6559 111.654 86.7607 111.69L87.5537 111.923L87.5674 112.203C86.9385 112.189 86.4007 112.183 85.9541 112.183C85.5075 112.183 84.9766 112.189 84.3613 112.203L84.334 111.923L85.127 111.69C85.2318 111.654 85.2887 111.583 85.2979 111.479C85.307 111.301 85.3115 111.002 85.3115 110.583V108.3C85.3115 107.703 85.3024 107.151 85.2842 106.646L84.375 106.399L84.3408 106.167ZM88.3057 106.167C89.0713 106.021 89.7936 105.862 90.4727 105.688L90.541 105.736V106.529C91.334 105.969 92.0723 105.688 92.7559 105.688C93.403 105.688 93.9089 105.871 94.2734 106.235C94.6426 106.595 94.8271 107.108 94.8271 107.773V110.187C94.8271 110.756 94.8317 111.178 94.8408 111.451C94.8454 111.574 94.9046 111.654 95.0186 111.69L95.7773 111.923L95.791 112.203C95.1895 112.189 94.6654 112.183 94.2188 112.183C93.7721 112.183 93.2754 112.189 92.7285 112.203L92.7012 111.923L93.3848 111.725C93.4896 111.688 93.5465 111.618 93.5557 111.513C93.5602 111.449 93.5625 111.305 93.5625 111.082V108.102C93.5625 107.541 93.4281 107.14 93.1592 106.898C92.8903 106.652 92.4938 106.529 91.9697 106.529C91.5094 106.529 91.0332 106.661 90.541 106.926V109.913C90.541 110.483 90.5456 111.005 90.5547 111.479C90.5592 111.602 90.6117 111.679 90.7119 111.711L91.4229 111.923L91.4365 112.203C90.8714 112.189 90.3656 112.183 89.9189 112.183C89.4723 112.183 88.9437 112.189 88.333 112.203L88.3057 111.923L89.1123 111.69C89.2126 111.649 89.265 111.579 89.2695 111.479C89.2741 111.187 89.2764 110.907 89.2764 110.638V108.307C89.2764 107.71 89.2673 107.156 89.249 106.646L88.3398 106.399L88.3057 106.167ZM98.0195 107.938C98.0195 108.53 98.138 108.988 98.375 109.312C98.6165 109.635 98.9652 109.797 99.4209 109.797C99.8584 109.797 100.187 109.646 100.405 109.346C100.629 109.04 100.74 108.596 100.74 108.013C100.74 107.452 100.622 107.01 100.385 106.687C100.152 106.363 99.8037 106.201 99.3389 106.201C98.9014 106.201 98.571 106.349 98.3477 106.646C98.1289 106.942 98.0195 107.372 98.0195 107.938ZM97.9307 112.456C97.6208 112.921 97.4658 113.349 97.4658 113.741C97.4658 114.142 97.6276 114.454 97.9512 114.678C98.2747 114.901 98.7145 115.013 99.2705 115.013C99.9313 115.013 100.51 114.865 101.007 114.568C101.504 114.277 101.752 113.867 101.752 113.338C101.752 113.051 101.629 112.827 101.383 112.668C101.141 112.513 100.683 112.436 100.009 112.436C99.7673 112.436 99.5029 112.442 99.2158 112.456C98.9333 112.47 98.6598 112.477 98.3955 112.477C98.2497 112.477 98.0947 112.47 97.9307 112.456ZM101.499 106.55C101.841 106.928 102.012 107.379 102.012 107.903C102.012 108.637 101.757 109.223 101.246 109.66C100.736 110.093 100.095 110.31 99.3252 110.31C98.8877 110.31 98.4958 110.241 98.1494 110.104C97.9033 110.501 97.7803 110.813 97.7803 111.041C97.7803 111.164 97.8418 111.248 97.9648 111.294C98.0924 111.335 98.3249 111.355 98.6621 111.355C98.9173 111.355 99.2158 111.349 99.5576 111.335C99.8994 111.321 100.218 111.314 100.515 111.314C101.239 111.314 101.811 111.453 102.23 111.731C102.654 112.005 102.866 112.413 102.866 112.955C102.866 113.775 102.479 114.423 101.704 114.896C100.934 115.37 100.057 115.607 99.0723 115.607C98.2656 115.607 97.6208 115.471 97.1377 115.197C96.6592 114.928 96.4199 114.577 96.4199 114.145C96.4199 113.62 96.7913 113.033 97.5342 112.381C97.0648 112.203 96.8301 111.966 96.8301 111.67C96.8301 111.255 97.1559 110.676 97.8076 109.934C97.0967 109.501 96.7412 108.874 96.7412 108.054C96.7412 107.343 96.9919 106.771 97.4932 106.338C97.999 105.905 98.6507 105.688 99.4482 105.688C99.6579 105.688 99.9427 105.716 100.303 105.771C100.645 105.834 100.911 105.866 101.103 105.866C101.791 105.866 102.424 105.859 103.003 105.846L103.037 106.126L101.499 106.55Z" fill="white"/>
<path d="M53.5625 42.5C55.58 46.5367 55.6872 51.264 53.8547 55.3881L52.5 58.4375H47.1875L45.352 41.913C45.0665 39.344 46.3051 36.8443 48.5223 35.5154C48.7419 35.3831 48.9696 35.2642 49.2036 35.1595C49.7482 34.9138 50.3237 34.7431 50.9142 34.6521L52.9954 34.332L61.0292 33.0969L62.0625 32.9375L66.3125 42.5H53.5625Z" fill="#FFCEB6"/>
<path d="M81.5859 32.9374H70.5625L70.1999 32.6785L68.4454 31.426L67.1014 30.4645L65.3469 29.2121L63.125 27.6249C62.4904 28.2594 61.521 28.4168 60.7184 28.0154L59.9375 27.6249L59.8365 28.3275C59.207 32.7369 57.4074 36.8969 54.625 40.3749C51.1311 40.3753 47.6853 39.5617 44.5604 37.9989L42.9375 37.1874L41.875 35.0624L45.2258 33.9455C47.2288 33.2778 49.3261 32.9374 51.4375 32.9374H51.4866C49.8666 30.8967 50.0344 27.9652 51.8771 26.1228L52.5 25.4999V24.6101C52.4994 23.133 52.658 21.6599 52.9728 20.2167C53.1296 19.4883 53.3265 18.7691 53.5625 18.0625L58.1671 11.1562L59.9375 8.49996L61.1819 7.87707C63.1064 6.9155 65.3339 6.75746 67.375 7.43746H72.6875L72.8561 7.58886L80.9218 14.875L81.5859 32.9374Z" fill="#FFCEB6"/>
<path d="M46.125 12.7499L48.25 14.8749L50.375 19.1249L52.5 18.0624L55.6875 19.1249L63.125 11.6874L61 9.56244H51.4375L46.125 12.7499Z" fill="#FFCEB6"/>
<path d="M61 9.5625L51.4375 3.1875L40.8125 11.6875L41.9586 13.2158C43.0149 14.6241 45.0128 14.9095 46.4211 13.8533C46.4765 13.8117 46.5304 13.7684 46.583 13.7234L51.4375 9.5625L54.1782 10.4761C56.4712 11.2405 58.9888 10.9032 61 9.5625Z" fill="#BA8B5D"/>
<path d="M58.875 42.5H91.8125V47.8125H58.875V42.5Z" fill="#E04446"/>
<path d="M58.875 47.8125H65.25V64.8125H58.875V47.8125Z" fill="#68737F"/>
<path d="M85.4375 47.8125H91.8125V64.8125H85.4375V47.8125Z" fill="#68737F"/>
<path d="M53.5625 64.8125H38.6875C38.687 64.0822 38.8343 63.3594 39.1205 62.6875C39.3048 62.2491 39.5469 61.8372 39.8403 61.463C40.5867 60.5057 41.6322 59.8258 42.81 59.5319L47.1875 58.4375H52.5L53.2079 62.6875L53.5625 64.8125Z" fill="#529DDF"/>
<path d="M87.8826 39.0442L87.6196 39.7003C86.9434 41.3912 85.306 42.4999 83.4851 42.5H66.3125L62.0625 32.9375H83.7481C86.2071 32.9371 88.2009 34.9301 88.2013 37.3891C88.2014 37.9561 88.0932 38.5179 87.8826 39.0442Z" fill="#68737F"/>
<path d="M83.9912 38.8105C83.9845 38.8357 83.9779 38.8583 83.9726 38.8782C83.8935 39.1542 83.7892 39.4223 83.6605 39.6791L83.5383 39.9248C82.7475 41.502 81.1349 42.4984 79.3706 42.5H78C80.0183 46.5366 80.1255 51.2643 78.2922 55.3881L76.9375 58.4375H71.625L69.6806 38.9938C69.5651 37.8319 69.8893 36.669 70.589 35.7345L71.2903 34.8009C72.0665 33.766 73.238 33.1006 74.5243 32.9641C74.5562 32.9601 74.588 32.9574 74.6212 32.9548C74.7514 32.9428 74.8842 32.9375 75.017 32.9375H79.4928C82.0659 32.9374 84.152 35.0233 84.152 37.5964C84.1521 38.0064 84.0979 38.4146 83.9912 38.8105Z" fill="#FFCEB6"/>
<path d="M78 64.8125H63.125C63.1244 64.0822 63.2717 63.3594 63.5579 62.6875C63.7424 62.2491 63.9844 61.8372 64.2778 61.463C65.0242 60.5057 66.0697 59.8258 67.2475 59.5319L71.625 58.4375H76.9375L77.6454 62.6875L78 64.8125Z" fill="#529DDF"/>
<path d="M84.375 28.6875L86.5 35.0625L83.3125 38.25L81.1875 34L79.0625 32.9375L75.875 34L74.8125 32.9375L80.125 26.5625L79.7 23.5875C79.4343 21.728 79.7567 19.8321 80.6217 18.1648C80.6216 18.1633 80.622 18.1618 80.623 18.1608C77.5766 18.5945 74.5356 17.3354 72.6875 14.875H68.4375C67.0868 14.8754 65.8827 14.0237 65.4333 12.75C65.3113 12.4091 65.2493 12.0495 65.25 11.6875C65.2496 9.73383 66.3536 7.9479 68.1015 7.07492L68.4109 6.91953C69.1272 6.5612 69.917 6.37473 70.7179 6.375H72.6768C74.0443 6.37513 75.3555 6.91834 76.3225 7.88508L76.9375 8.5H80.3932C82.916 8.5 85.3085 9.62054 86.9236 11.5587L89.6875 14.875C88.9851 19.0915 87.5399 23.15 85.4189 26.8613L84.375 28.6875Z" fill="#FFCEB6"/>
<path d="M35.5 37.1875C38.434 37.1875 40.8125 34.809 40.8125 31.875C40.8125 28.941 38.434 26.5625 35.5 26.5625C32.566 26.5625 30.1875 28.941 30.1875 31.875C30.1875 34.809 32.566 37.1875 35.5 37.1875Z" fill="#68737F"/>
<path d="M39.75 39.3125C42.684 39.3125 45.0625 36.934 45.0625 34C45.0625 31.066 42.684 28.6875 39.75 28.6875C36.816 28.6875 34.4375 31.066 34.4375 34C34.4375 36.934 36.816 39.3125 39.75 39.3125Z" fill="#68737F"/>
<path d="M57.7511 28.8163L55.6416 28.5588C55.4718 29.9309 54.8497 31.2072 53.8735 32.1863L55.3761 33.6889C56.6874 32.3737 57.5229 30.6592 57.7511 28.8163Z" fill="black"/>
<path d="M39.75 35.0625C40.3368 35.0625 40.8125 34.5868 40.8125 34C40.8125 33.4132 40.3368 32.9375 39.75 32.9375C39.1632 32.9375 38.6875 33.4132 38.6875 34C38.6875 34.5868 39.1632 35.0625 39.75 35.0625Z" fill="black"/>
<path d="M91.8125 41.4375H87.8382C88.1555 41.0281 88.4139 40.5765 88.6061 40.0955L88.8688 39.4388C89.8257 37.0508 89.0022 34.3185 86.8849 32.8571L85.5332 28.8022L86.341 27.3886C88.5266 23.569 90.0146 19.3909 90.7356 15.0498C90.7865 14.7447 90.7018 14.4324 90.5037 14.1948L87.7399 10.8782C85.9253 8.69521 83.2325 7.43389 80.3938 7.43747H77.3775L77.0744 7.13426C75.9104 5.96392 74.3267 5.30796 72.6762 5.31247H70.7175C69.7521 5.31354 68.8001 5.53825 67.9361 5.96897L67.6257 6.12409C67.5134 6.18027 67.4037 6.24017 67.296 6.30219C65.099 5.67704 62.7474 5.90004 60.7073 6.92721L59.7104 7.42565L52.027 2.30347C51.642 2.04675 51.1352 2.06866 50.7738 2.35779L40.1488 10.8578C39.7007 11.2164 39.6182 11.8658 39.9626 12.325L41.1089 13.8532C41.8153 14.7921 42.8777 15.3979 44.0453 15.5279C44.1977 15.5446 44.3511 15.5531 44.5045 15.553C45.3066 15.5522 46.0923 15.3256 46.7716 14.8991L47.3769 15.5044L49.4248 19.6002C49.6867 20.1248 50.3244 20.3378 50.849 20.0759C50.8494 20.0756 50.8499 20.0755 50.8503 20.0752L52.0524 19.4743C51.6437 21.1555 51.4373 22.8796 51.4376 24.6099V25.06L51.1263 25.3711C49.4054 27.0956 48.8523 29.6672 49.7118 31.9468C48.4471 32.0527 47.1948 32.2751 45.9709 32.611C45.3585 29.8889 43.05 27.8793 40.2694 27.648C39.0645 26.2763 37.3255 25.4931 35.5 25.5C31.9797 25.4994 29.1254 28.3527 29.1248 31.873C29.1243 35.1928 31.6719 37.9571 34.9807 38.227C37.2814 40.8287 41.2432 41.105 43.8828 38.848L44.0856 38.9495C44.2299 39.0216 44.3758 39.0904 44.5215 39.1595C44.2659 40.0938 44.1891 41.068 44.2954 42.0308L46.0288 57.632L42.5529 58.501C39.6548 59.2219 37.6215 61.8261 37.625 64.8125C37.625 65.3992 38.1007 65.875 38.6875 65.875H53.5625C54.1492 65.875 54.625 65.3992 54.625 64.8125C54.625 64.7539 54.6202 64.6955 54.6105 64.6378L53.6005 58.5775L54.8261 55.8197C56.5575 51.9412 56.6866 47.5358 55.1853 43.5626H57.8125V64.8126C57.8125 65.3994 58.2882 65.8751 58.875 65.8751H59.9375V48.875H64.1875V57.375H66.3125V48.875H69.6011L70.4764 57.6294L66.9904 58.5011C64.0923 59.2219 62.059 61.8261 62.0625 64.8125C62.0625 65.3992 62.5382 65.875 63.125 65.875H78C78.5867 65.875 79.0625 65.3992 79.0625 64.8125C79.0625 64.7539 79.0577 64.6955 79.048 64.6378L78.038 58.5775L79.2636 55.8199C80.2365 53.6366 80.7128 51.2645 80.658 48.875H84.375V64.8125C84.375 65.3992 84.8507 65.875 85.4375 65.875H91.8125C92.3992 65.875 92.875 65.3992 92.875 64.8125V42.5C92.875 41.9132 92.3992 41.4375 91.8125 41.4375ZM86.9059 36.1592C87.2182 36.9606 87.2146 37.8507 86.8958 38.6495L86.6331 39.3061C86.169 40.4762 85.0918 41.2902 83.8393 41.4169C84.0904 41.1012 84.3078 40.7603 84.4879 40.3994L84.6102 40.1548C84.9665 39.4393 85.1695 38.6572 85.206 37.8587L86.9059 36.1592ZM44.2769 13.4156C43.692 13.3539 43.1595 13.0503 42.8087 12.5782L42.2803 11.8738L51.4945 4.50245L58.8964 9.4371C57.4801 9.93634 55.9373 9.94723 54.5141 9.46791L51.7735 8.55443C51.4194 8.43649 51.0295 8.51286 50.7461 8.75577L45.8916 12.9167C45.4467 13.3011 44.8613 13.4822 44.2769 13.4156ZM51.0025 34.005L51.7487 34.7513C52.164 35.1658 52.8368 35.1653 53.2513 34.7498C53.6653 34.3351 53.6653 33.6634 53.2513 33.2485L52.6288 32.626C51.0404 31.0376 51.0402 28.4622 52.6287 26.8738L52.6288 26.8737L53.2513 26.2512C53.4505 26.0518 53.5625 25.7817 53.5625 25.4998V24.6097C53.5623 22.9675 53.7685 21.3319 54.1762 19.7411L55.3513 20.1329C55.7332 20.2601 56.1541 20.1608 56.4388 19.8762L59.6263 16.6887L58.1237 15.186L55.4005 17.9092L52.836 17.0543C52.5686 16.9652 52.2769 16.9859 52.0248 17.1121L50.8502 17.6994L49.2003 14.3996C49.1491 14.2975 49.0819 14.2043 49.0013 14.1235L48.4232 13.5454L51.6722 10.7606L53.8422 11.484C56.4454 12.3608 59.3085 11.9774 61.5893 10.4463C62.0767 10.1224 62.2092 9.46459 61.8853 8.97717C61.8408 8.91023 61.7889 8.84861 61.7304 8.79349C62.8443 8.24843 64.0831 8.00897 65.32 8.09968C64.5801 9.14956 64.1844 10.4032 64.1875 11.6875H66.3125C66.3072 10.135 67.1851 8.7146 68.5759 8.0249L68.8863 7.86978C69.4551 7.58622 70.0818 7.43827 70.7175 7.43747H72.6762C73.7629 7.43455 74.8056 7.86646 75.5718 8.6369L76.1862 9.25129C76.3854 9.45051 76.6557 9.56247 76.9375 9.56247H80.3938C82.6017 9.55982 84.696 10.5408 86.1075 12.2385L88.5564 15.1775C87.8491 19.1008 86.4758 22.8741 84.4958 26.3343L83.4525 28.1603C83.3025 28.4228 83.2714 28.7367 83.3669 29.0235L85.2843 34.7755L83.6036 36.4563L82.1379 33.5248C82.0351 33.3192 81.8684 33.1525 81.6628 33.0497L79.5378 31.9872C79.2857 31.8612 78.9939 31.8404 78.7266 31.9294L76.3852 32.71L80.9414 27.2426C81.134 27.0116 81.2196 26.7099 81.177 26.4121L80.752 23.4373C80.404 20.9596 81.2365 18.4621 83.0016 16.6888L81.4989 15.1862C80.9071 15.7789 80.3921 16.4438 79.966 17.1649C78.0307 17.3061 76.1179 16.6775 74.6437 15.4157C75.5889 14.9408 76.3546 14.1723 76.8257 13.2252L74.925 12.2748C74.4565 13.2197 73.4915 13.8161 72.437 13.8125H69.5V15.9375H70.5625V18.2448C70.5633 18.5268 70.4512 18.7973 70.2512 18.996L66.9059 22.3413C66.5233 22.7247 65.9134 22.7585 65.4909 22.4197L61.6636 19.3578L60.3363 21.0172L64.1636 24.079C65.4314 25.0952 67.2608 24.9938 68.4087 23.8439L71.7539 20.4987C72.3537 19.9022 72.6899 19.0906 72.6875 18.2447V16.4926C74.368 18.1914 76.6278 19.1935 79.0151 19.2984C78.5631 20.7323 78.4377 22.2491 78.6481 23.7377L79.0063 26.2451L74.3148 31.875H71.0026L74.5013 28.3763L72.9987 26.8737L69.2079 30.6644L67.8621 29.7031L71.3138 26.2514L69.8112 24.7488L66.109 28.4509L64.7632 27.4896L64.9388 27.3141C65.3541 26.8996 65.3548 26.2267 64.9403 25.8114C64.5258 25.3961 63.8529 25.3955 63.4376 25.81C63.4371 25.8105 63.4367 25.8109 63.4362 25.8114L62.3941 26.8535C62.071 27.1773 61.5768 27.2575 61.1679 27.0526L56.1627 24.55L55.2123 26.4506L58.7764 28.2327C58.1907 32.2612 56.5852 36.073 54.1121 39.3066C51.0493 39.2288 48.0383 38.4993 45.2795 37.1668C45.6996 36.4366 45.9696 35.6298 46.0738 34.7938C47.6737 34.3096 49.3316 34.0443 51.0025 34.005ZM70.4399 34.1635L69.7392 35.0975C68.8776 36.244 68.4793 37.6728 68.6236 39.0996L68.8573 41.4375H67.0031L63.6975 34H70.5699C70.5261 34.054 70.4819 34.1077 70.4399 34.1635ZM60.7783 29.1697C61.5612 29.3912 62.3993 29.3045 63.1201 28.9271L67.247 31.875H62.0625C62.0573 31.875 62.0523 31.8759 62.0469 31.8759C62.0135 31.8763 61.9797 31.8786 61.9459 31.8823C61.9368 31.8833 61.9278 31.884 61.9188 31.8852C61.9128 31.886 61.9068 31.8863 61.9007 31.8872L60.0808 32.1672C60.3724 31.1828 60.6053 30.1819 60.7783 29.1697ZM31.25 31.875C31.2538 29.5239 33.1627 27.6211 35.5138 27.625C36.1703 27.626 36.8176 27.7789 37.4052 28.0716C37.3762 28.0832 37.3478 28.0958 37.3191 28.1076C37.2918 28.1189 32.3811 30.0578 33.586 35.6308C33.5899 35.6451 33.5924 35.6599 33.5962 35.6742C32.1589 34.9529 31.2513 33.4829 31.25 31.875ZM39.75 38.25C37.4028 38.25 35.5 36.3472 35.5 34C35.5 31.6528 37.4028 29.75 39.75 29.75C42.0972 29.75 44 31.6528 44 34C44.0179 36.3292 42.1441 38.232 39.8148 38.25C39.7931 38.2501 39.7716 38.2501 39.75 38.25ZM39.8797 63.75C40.271 62.1793 41.4977 60.9532 43.0684 60.5625L47.3182 59.5H51.5999L52.3083 63.75H39.8797ZM54.625 41.4375H53.5625C52.9757 41.4375 52.5 41.9131 52.5 42.4998C52.5 42.6649 52.5384 42.8276 52.6122 42.9752C54.4951 46.7261 54.595 51.124 52.8843 54.9566L51.8095 57.375H48.1384L46.4075 41.7959C46.3411 41.1931 46.3739 40.5834 46.5047 39.9911C49.1061 40.9443 51.8545 41.4338 54.625 41.4375C54.9477 41.4375 55.253 41.2908 55.4547 41.0388C57.0528 39.0397 58.3469 36.8155 59.2952 34.4383L61.4213 34.1111L64.6774 41.4375H54.625ZM63.125 46.75H59.9375V43.5625H69.0698L69.3886 46.75H63.125ZM64.3172 63.75C64.7085 62.1793 65.9352 60.9532 67.5059 60.5625L71.7557 59.5H76.0374L76.7458 63.75H64.3172ZM77.3218 54.9569L76.247 57.375H72.5865L70.7378 38.8883C70.6472 37.9914 70.8976 37.0933 71.439 36.3727L72.1398 35.4386C72.6929 34.6987 73.5107 34.2012 74.4221 34.05L75.1235 34.7514C75.4081 35.036 75.8292 35.1354 76.211 35.0082L78.9808 34.0848L80.3954 34.7921L82.3621 38.7253C82.4477 38.8956 82.5778 39.0395 82.7385 39.1421C82.7286 39.1629 82.7199 39.1842 82.7095 39.2048L82.5872 39.4495C81.9816 40.6712 80.7341 41.4421 79.3706 41.4376H78.6563L77.8876 39.9L75.9869 40.8502L77.0493 42.9752C78.9325 46.7261 79.0323 51.1242 77.3218 54.9569ZM79.6215 43.5625H90.75V46.75H80.4658C80.2939 45.6614 80.0109 44.5934 79.6215 43.5625ZM90.75 63.75H86.5V48.875H90.75V63.75Z" fill="black"/>
</svg>
