<svg width="92" height="124" viewBox="0 0 92 124" fill="none" xmlns="http://www.w3.org/2000/svg">
<path d="M40.0872 35.3945C31.0468 43.2629 18.0805 33.0108 10.1103 41.9623C-3.39498 57.1302 24.8905 79.8144 45.1911 80.3719C65.8225 80.9384 86.5538 62.9117 82.2733 42.7135C78.9901 27.2214 63.9561 9.35882 50.4407 17.5998C43.5773 21.7847 46.1511 30.1168 40.0872 35.3945Z" fill="#FCF43D"/>
<path d="M29.7979 102.286L32.833 110.646C32.9469 110.961 33.0495 111.175 33.1406 111.289C33.2363 111.398 33.3708 111.48 33.5439 111.535L34.1865 111.727L34.2002 112.021C33.6032 112.007 33.0495 112 32.5391 112C32.0195 112 31.4066 112.007 30.7002 112.021L30.6729 111.727L31.3223 111.535C31.4134 111.503 31.4772 111.469 31.5137 111.433C31.5547 111.392 31.5752 111.33 31.5752 111.248C31.5752 111.157 31.5501 111.038 31.5 110.893C31.4544 110.742 31.3883 110.544 31.3018 110.298L30.6592 108.466H27.3643L26.6465 110.291C26.5508 110.546 26.4756 110.749 26.4209 110.899C26.3662 111.05 26.3389 111.168 26.3389 111.255C26.3389 111.332 26.3594 111.392 26.4004 111.433C26.446 111.469 26.512 111.501 26.5986 111.528L27.2344 111.713L27.248 112.021C26.6009 112.007 26.0723 112 25.6621 112C25.252 112 24.7939 112.007 24.2881 112.021L24.2539 111.727L24.9443 111.515C25.1175 111.46 25.2451 111.376 25.3271 111.262C25.4092 111.148 25.5003 110.97 25.6006 110.729L29.0938 102.389L29.7979 102.286ZM27.6172 107.844H30.4336L29.1006 104.077L27.6172 107.844ZM40.1201 111.515C39.7327 111.756 39.334 111.929 38.9238 112.034C38.5137 112.139 38.1331 112.191 37.7822 112.191C36.7796 112.191 35.9798 111.907 35.3828 111.337C34.7858 110.763 34.4873 109.967 34.4873 108.951C34.4873 107.939 34.7721 107.112 35.3418 106.47C35.916 105.827 36.6816 105.506 37.6387 105.506C38.4408 105.506 39.0651 105.747 39.5117 106.23C39.9583 106.709 40.1816 107.372 40.1816 108.22C40.1816 108.347 40.1748 108.477 40.1611 108.609H35.8271C35.8271 109.589 36.0573 110.291 36.5176 110.715C36.9779 111.134 37.6979 111.344 38.6777 111.344C39.1152 111.344 39.5824 111.303 40.0791 111.221L40.1201 111.515ZM38.8213 108.042V107.837C38.8213 107.19 38.7165 106.727 38.5068 106.449C38.3018 106.171 37.9941 106.032 37.584 106.032C37.0417 106.032 36.627 106.228 36.3398 106.62C36.0527 107.012 35.891 107.486 35.8545 108.042H38.8213ZM41.0635 105.984C41.8245 105.839 42.5469 105.679 43.2305 105.506L43.2988 105.554V106.354C44.1419 105.788 44.9691 105.506 45.7803 105.506L45.8145 105.547C45.6823 106.226 45.5524 106.93 45.4248 107.659L45.1514 107.707C45.0238 107.32 44.9007 107.01 44.7822 106.777C44.6637 106.54 44.4769 106.422 44.2217 106.422C43.9756 106.422 43.668 106.536 43.2988 106.764V109.724C43.2988 110.435 43.3034 110.943 43.3125 111.248C43.3171 111.371 43.374 111.449 43.4834 111.48L44.3926 111.74L44.4131 112.021C43.7021 112.007 43.1234 112 42.6768 112C42.2301 112 41.7015 112.007 41.0908 112.021L41.0635 111.74L41.8564 111.508C41.9658 111.471 42.0228 111.401 42.0273 111.296C42.0319 111.1 42.0342 110.82 42.0342 110.455V108.124C42.0342 107.381 42.0251 106.827 42.0068 106.463L41.0977 106.217L41.0635 105.984ZM47.7559 108.773C47.7559 109.626 47.9154 110.321 48.2344 110.858C48.5534 111.392 49.0273 111.658 49.6562 111.658C50.2441 111.658 50.6908 111.424 50.9961 110.954C51.306 110.48 51.4609 109.781 51.4609 108.855C51.4609 107.985 51.2992 107.299 50.9756 106.798C50.652 106.297 50.1826 106.046 49.5674 106.046C48.984 106.046 48.5352 106.271 48.2207 106.723C47.9108 107.174 47.7559 107.857 47.7559 108.773ZM52.8555 108.712C52.8555 109.751 52.541 110.592 51.9121 111.234C51.2878 111.872 50.4925 112.191 49.5264 112.191C48.583 112.191 47.8197 111.891 47.2363 111.289C46.6576 110.683 46.3682 109.892 46.3682 108.917C46.3682 107.914 46.6712 107.096 47.2773 106.463C47.888 105.825 48.6947 105.506 49.6973 105.506C50.6452 105.506 51.4085 105.8 51.9873 106.388C52.5661 106.971 52.8555 107.746 52.8555 108.712ZM55.8701 111.419C56.2393 111.537 56.613 111.597 56.9912 111.597C57.7568 111.597 58.3311 111.362 58.7139 110.893C59.1012 110.423 59.2949 109.751 59.2949 108.876C59.2949 108.074 59.1172 107.45 58.7617 107.003C58.4062 106.556 57.8799 106.333 57.1826 106.333C56.736 106.333 56.2985 106.433 55.8701 106.634V111.419ZM55.9111 101.753C55.8838 102.437 55.8701 103.464 55.8701 104.836V106.224C56.6038 105.745 57.276 105.506 57.8867 105.506C58.7435 105.506 59.4202 105.793 59.917 106.367C60.4137 106.941 60.6621 107.691 60.6621 108.616C60.6621 109.742 60.3408 110.619 59.6982 111.248C59.0602 111.872 58.1738 112.185 57.0391 112.185C56.2826 112.185 55.4668 112.055 54.5918 111.795C54.6009 111.216 54.6055 110.471 54.6055 109.56V105.506C54.6055 104.499 54.5964 103.558 54.5781 102.683L53.6553 102.409L53.6211 102.184C54.3685 102.042 55.109 101.881 55.8428 101.698L55.9111 101.753ZM67.2314 111.515C66.9489 111.706 66.598 111.868 66.1787 112C65.764 112.128 65.3516 112.191 64.9414 112.191C63.957 112.191 63.1777 111.904 62.6035 111.33C62.0293 110.751 61.7422 109.981 61.7422 109.02C61.7422 107.976 62.068 107.131 62.7197 106.483C63.3714 105.832 64.2145 105.506 65.249 105.506C65.9189 105.506 66.5684 105.643 67.1973 105.916C67.0469 106.527 66.9124 107.151 66.7939 107.789L66.5273 107.83L65.9736 106.189C65.764 106.117 65.527 106.08 65.2627 106.08C64.5837 106.08 64.0527 106.317 63.6699 106.791C63.2871 107.265 63.0957 107.892 63.0957 108.671C63.0957 109.587 63.3122 110.264 63.7451 110.701C64.1781 111.139 64.8639 111.357 65.8027 111.357C66.2357 111.357 66.6982 111.314 67.1904 111.228L67.2314 111.515ZM71.5859 106.196C71.3216 106.123 71.0345 106.087 70.7246 106.087C70.2962 106.087 69.9499 106.171 69.6855 106.34C69.4258 106.504 69.2959 106.729 69.2959 107.017C69.2959 107.295 69.3802 107.513 69.5488 107.673C69.722 107.832 70.041 107.99 70.5059 108.145L71.0664 108.336C71.6953 108.55 72.1556 108.796 72.4473 109.074C72.7435 109.348 72.8916 109.708 72.8916 110.154C72.8916 110.788 72.6455 111.287 72.1533 111.651C71.6611 112.011 71.0391 112.191 70.2871 112.191C69.5944 112.191 68.8857 112.05 68.1611 111.768C68.3161 111.175 68.4414 110.596 68.5371 110.031L68.8037 109.99L69.2959 111.46C69.5557 111.56 69.8861 111.61 70.2871 111.61C70.7109 111.61 71.0482 111.524 71.2988 111.351C71.554 111.177 71.6816 110.934 71.6816 110.619C71.6816 110.327 71.5951 110.097 71.4219 109.929C71.2533 109.76 70.9821 109.614 70.6084 109.491L69.8975 109.252C69.2822 109.047 68.8561 108.801 68.6191 108.514C68.3867 108.222 68.2705 107.862 68.2705 107.434C68.2705 106.837 68.4961 106.367 68.9473 106.025C69.403 105.679 70.0023 105.506 70.7451 105.506C71.4378 105.506 72.0667 105.606 72.6318 105.807C72.5042 106.326 72.388 106.875 72.2832 107.454L72.0234 107.502L71.5859 106.196Z" fill="white"/>
<path d="M42.8125 39.3125V44.625L47.0625 52.0625L49.5926 56.4892C50.1039 57.3846 50.8649 58.1118 51.7825 58.582C52.7001 59.0523 53.7348 59.2453 54.7603 59.1374L71.5 57.375L72.5625 52.0625H56.625L55.2584 47.9639L52.375 39.3125H42.8125Z" fill="#FFCEB6"/>
<path d="M42.8125 39.3125V44.625L47.0625 52.0625L55.2584 47.9639L52.375 39.3125H42.8125Z" fill="#FFA100"/>
<path d="M71.5 57.375L74.6875 62.6875H76.8125V52.0625H72.5625L71.5 57.375Z" fill="#E0EDFF"/>
<path d="M20.5 57.375L25.8125 60.5625L29 44.625H47.0625C48.4714 44.6249 49.8227 44.0652 50.8189 43.0689C51.8152 42.0727 52.3749 40.7214 52.375 39.3125V32.9375H41.75L33.25 34.8261L26.3557 36.3588C25.2689 36.6003 24.2854 37.1772 23.5443 38.0079C22.8031 38.8387 22.3417 39.8814 22.2252 40.9886L20.5 57.375Z" fill="#FFCEB6"/>
<path d="M33.25 34.8261V44.625H47.0625C48.4714 44.6249 49.8227 44.0652 50.8189 43.0689C51.8152 42.0727 52.3749 40.7214 52.375 39.3125V32.9375H41.75L33.25 34.8261Z" fill="#FFB401"/>
<path d="M44.2675 17.67L40.7184 21.2189C40.3718 21.5655 40.0968 21.977 39.9092 22.4299C39.7216 22.8828 39.625 23.3682 39.625 23.8585V23.8985C39.6242 24.4051 39.7234 24.9069 39.9168 25.3751C40.1102 25.8433 40.3941 26.2688 40.7521 26.6272C41.261 27.136 41.75 27.625 41.75 27.625V32.9375H52.375V24.4375L47.4701 17.8976C47.2874 17.654 47.0545 17.4526 46.7872 17.3069C46.5199 17.1611 46.2244 17.0745 45.9207 17.053C45.617 17.0314 45.3123 17.0753 45.027 17.1817C44.7418 17.2882 44.4828 17.4547 44.2675 17.67Z" fill="#EF5E3B"/>
<path d="M49.1875 7.96875L51.8617 6.63114C52.1985 6.4627 52.5699 6.375 52.9464 6.375H52.9824C53.3215 6.37492 53.6573 6.44165 53.9706 6.57138C54.2838 6.70112 54.5685 6.89131 54.8082 7.1311C55.0479 7.37089 55.2381 7.65557 55.3678 7.96887C55.4974 8.28217 55.5641 8.61795 55.5639 8.95703C55.5635 9.72082 55.5633 10.5804 55.5631 11.4284C55.5627 12.8578 55.844 14.2732 56.3908 15.5938C56.9376 16.9144 57.7393 18.1143 58.75 19.125H55.5625C54.1535 19.125 52.8023 18.5653 51.806 17.569C50.8097 16.5727 50.25 15.2215 50.25 13.8125V11.6875L49.1875 7.96875Z" fill="#B1712C"/>
<path d="M48.125 11.6875L46 9.5625H41.75V13.8125C41.75 14.9397 42.1978 16.0207 42.9948 16.8177C43.7918 17.6147 44.8728 18.0625 46 18.0625C47.1272 18.0625 48.2082 17.6147 49.0052 16.8177C49.8022 16.0207 50.25 14.9397 50.25 13.8125V11.6875H48.125Z" fill="#FFCEB6"/>
<path d="M41.75 9.5625C41.75 8.43533 42.1978 7.35433 42.9948 6.5573C43.7918 5.76027 44.8728 5.3125 46 5.3125C47.1272 5.3125 48.2082 5.76027 49.0052 6.5573C49.8022 7.35433 50.25 8.43533 50.25 9.5625V11.6875H48.125L46 9.5625H41.75Z" fill="#C78640"/>
<path d="M43.412 23.1518L48.125 29.75L44.9375 36.125L41.75 37.1875L40.6875 38.25L41.75 40.375H48.125L52.9062 34C53.9408 32.6206 54.5 30.943 54.5 29.2188C54.5 27.4945 53.9408 25.8169 52.9062 24.4375L49.3814 19.7376C48.9913 19.2175 48.4854 18.7954 47.9039 18.5046C47.3224 18.2139 46.6812 18.0625 46.0311 18.0625C45.6084 18.0625 45.1899 18.1457 44.7994 18.3075C44.4089 18.4692 44.0541 18.7063 43.7552 19.0052C43.4563 19.3041 43.2192 19.6589 43.0575 20.0494C42.8958 20.4399 42.8125 20.8584 42.8125 21.2811C42.8125 21.9519 43.0221 22.6059 43.412 23.1518Z" fill="#FFCEB6"/>
<path d="M25.8125 60.5625L20.5 57.375L15.1875 60.5625V62.6875H25.8125V60.5625Z" fill="#E0EDFF"/>
<path d="M14.6408 59.6514L19.4988 56.7366L21.1682 40.8771C21.3072 39.548 21.8607 38.2964 22.7503 37.2993C23.64 36.3022 24.8207 35.6102 26.1253 35.3213L40.6875 32.0852V28.0651L40.0006 27.3783C39.0798 26.4575 38.5625 25.2085 38.5625 23.9063C38.5625 22.604 39.0798 21.3551 40.0006 20.4342L42.5701 17.8647C41.9803 17.367 41.5062 16.7465 41.1811 16.0466C40.8559 15.3467 40.6875 14.5843 40.6875 13.8125V9.5625C40.6868 8.45733 41.0311 7.3795 41.6722 6.4793C42.3133 5.5791 43.2194 4.90141 44.2641 4.54072C45.3087 4.18003 46.4399 4.15432 47.4999 4.46719C48.5598 4.78005 49.4957 5.41588 50.1771 6.28603L51.3554 5.6968C51.9106 5.41928 52.5275 5.28826 53.1475 5.31619C53.7675 5.34412 54.3701 5.53006 54.8981 5.85637C55.426 6.18267 55.8618 6.63851 56.1641 7.1806C56.4663 7.72269 56.625 8.33303 56.625 8.95369V11.4297C56.6215 12.7198 56.8739 13.9978 57.3676 15.1898C57.8613 16.3817 58.5866 17.4639 59.5014 18.3737C59.6499 18.5223 59.7511 18.7116 59.7921 18.9177C59.8331 19.1238 59.812 19.3374 59.7316 19.5316C59.6512 19.7257 59.515 19.8916 59.3403 20.0084C59.1656 20.1252 58.9601 20.1875 58.75 20.1875H55.5625C54.4729 20.1869 53.4016 19.9071 52.4509 19.3748C51.5002 18.8424 50.7017 18.0754 50.1317 17.1467C49.8557 17.4884 49.5388 17.7948 49.1881 18.0591C49.5834 18.355 49.9347 18.7056 50.2315 19.1002L53.7563 23.8C54.9287 25.3633 55.5625 27.2647 55.5625 29.2188C55.5625 31.1728 54.9287 33.0742 53.7563 34.6375L53.4375 35.0625V39.1399L57.3907 51H76.8125C77.0943 51 77.3645 51.112 77.5638 51.3112C77.763 51.5105 77.875 51.7807 77.875 52.0625V62.6875C77.875 62.9693 77.763 63.2395 77.5638 63.4388C77.3645 63.638 77.0943 63.75 76.8125 63.75H74.6875C74.504 63.75 74.3237 63.7025 74.164 63.6121C74.0043 63.5217 73.8708 63.3915 73.7764 63.2342L70.9375 58.5026L54.8721 60.1936C53.6415 60.3231 52.3997 60.0916 51.2984 59.5275C50.197 58.9633 49.2836 58.0909 48.6696 57.0165L42.1959 45.6875H29.8711L26.875 60.6677V62.6875C26.875 62.9693 26.763 63.2395 26.5638 63.4388C26.3645 63.638 26.0943 63.75 25.8125 63.75H15.1875C14.9057 63.75 14.6355 63.638 14.4362 63.4388C14.237 63.2395 14.125 62.9693 14.125 62.6875V60.5625C14.125 60.379 14.1725 60.1987 14.2629 60.039C14.3533 59.8793 14.4835 59.7458 14.6408 59.6514ZM40.6875 23.9063C40.6865 24.2722 40.7581 24.6346 40.8981 24.9727C41.0382 25.3107 41.2439 25.6176 41.5033 25.8756L42.5014 26.8737C42.7006 27.0729 42.8125 27.3432 42.8125 27.625V31.875H45.8745L46.8886 29.847L42.5474 23.7694V23.7693C42.1053 23.1518 41.8367 22.4273 41.7693 21.6709L41.5033 21.9369C41.2439 22.1949 41.0382 22.5018 40.8981 22.8399C40.7581 23.1779 40.6865 23.5404 40.6875 23.9063ZM46 6.375C45.3411 6.37585 44.6986 6.58053 44.1606 6.96099C43.6227 7.34145 43.2156 7.87903 42.9953 8.5H46C46.2818 8.50001 46.5521 8.61193 46.7514 8.81115L48.5651 10.625H49.1875V9.5625C49.1865 8.71742 48.8504 7.90723 48.2528 7.30967C47.6553 6.7121 46.8451 6.37597 46 6.375ZM55.5625 18.0625H56.5063C55.1922 16.1005 54.4937 13.791 54.5 11.4297V8.95369C54.5 8.69525 54.4339 8.44109 54.3081 8.21536C54.1822 7.98964 54.0008 7.79982 53.7809 7.66395C53.5611 7.52808 53.3101 7.45065 53.052 7.43903C52.7938 7.42741 52.5369 7.48198 52.3057 7.59755L51.1304 8.18522C51.2513 8.63433 51.3125 9.09741 51.3125 9.5625V13.8125C51.3138 14.9393 51.762 16.0195 52.5587 16.8163C53.3555 17.613 54.4357 18.0612 55.5625 18.0625ZM49.1875 12.75H48.125C47.8432 12.75 47.5729 12.6381 47.3736 12.4389L45.5599 10.625H42.8125V13.8125C42.8125 14.6579 43.1483 15.4686 43.7461 16.0664C44.3439 16.6642 45.1546 17 46 17C46.8454 17 47.6561 16.6642 48.2539 16.0664C48.8517 15.4686 49.1875 14.6579 49.1875 13.8125V12.75ZM52.0562 25.075L48.5314 20.3752C48.2394 19.9878 47.8618 19.6734 47.428 19.4565C46.9942 19.2396 46.516 19.1261 46.031 19.125C45.6349 19.125 45.2464 19.2342 44.9082 19.4405C44.57 19.6468 44.2952 19.9422 44.114 20.2945C43.9327 20.6467 43.852 21.0421 43.8807 21.4371C43.9093 21.8322 44.0463 22.2118 44.2765 22.5342L48.9896 29.1324C49.1018 29.2895 49.1691 29.4743 49.1842 29.6669C49.1993 29.8594 49.1617 30.0525 49.0753 30.2252L45.8878 36.6002C45.7618 36.8522 45.5408 37.0439 45.2735 37.133L42.3239 38.1162L41.9803 38.4599L42.4067 39.3125H47.5938L52.0562 33.3625C52.9528 32.1671 53.4375 30.7131 53.4375 29.2188C53.4375 27.7244 52.9528 26.2704 52.0562 25.075ZM48.9751 41.0125C48.8761 41.1444 48.7477 41.2515 48.6002 41.3253C48.4527 41.3991 48.29 41.4375 48.125 41.4375H41.75C41.5527 41.4375 41.3593 41.3826 41.1914 41.2788C41.0236 41.1751 40.8879 41.0267 40.7997 40.8502L39.7372 38.7252C39.6375 38.5257 39.603 38.3 39.6387 38.0798C39.6744 37.8597 39.7785 37.6564 39.9361 37.4987L40.9986 36.4362C41.1153 36.3196 41.2575 36.2317 41.4139 36.1795L44.1839 35.2561L44.812 34H41.8667L34.3125 35.6787V43.5625H47.0625C48.1893 43.5612 49.2695 43.113 50.0663 42.3163C50.863 41.5195 51.3112 40.4393 51.3125 39.3125V37.8959L48.9751 41.0125ZM75.289 61.625H75.75V53.125H73.4336L72.6225 57.1805L75.289 61.625ZM50.5147 55.9623C50.9242 56.6784 51.5331 57.2599 52.2673 57.636C53.0014 58.0121 53.8292 58.1664 54.6495 58.0803L70.6114 56.4001L71.2664 53.125H56.625C56.402 53.125 56.1847 53.0549 56.0037 52.9245C55.8228 52.7941 55.6875 52.6101 55.617 52.3986L54.6383 49.4625L48.5423 52.5105L50.5147 55.9623ZM47.4864 50.6627L53.9595 47.4261L52.4098 42.7769C51.832 43.6696 51.0401 44.4036 50.1061 44.9119C49.1722 45.4203 48.1258 45.6869 47.0625 45.6875H44.6434L47.4864 50.6627ZM27.9581 44.4166C28.0063 44.1757 28.1364 43.959 28.3264 43.8033C28.5163 43.6476 28.7544 43.5625 29 43.5625H32.1875V36.1509L26.5863 37.3957C25.7165 37.5883 24.9293 38.0497 24.3363 38.7144C23.7432 39.3791 23.3742 40.2136 23.2815 41.0996L21.6276 56.8124L25.0663 58.8756L27.9581 44.4166ZM16.25 61.625H24.75V61.1641L20.5 58.6141L16.25 61.164V61.625Z" fill="black"/>
</svg>
