<svg width="182" height="30" viewBox="0 0 182 30" fill="none" xmlns="http://www.w3.org/2000/svg">
<path d="M13.0979 5.8541C13.6966 4.01148 16.3034 4.01148 16.9021 5.8541L17.9187 8.98278C18.1864 9.80682 18.9543 10.3647 19.8208 10.3647H23.1105C25.0479 10.3647 25.8535 12.844 24.2861 13.9828L21.6246 15.9164C20.9237 16.4257 20.6304 17.3284 20.8981 18.1525L21.9147 21.2812C22.5134 23.1238 20.4044 24.656 18.837 23.5172L16.1756 21.5836C15.4746 21.0743 14.5254 21.0743 13.8244 21.5836L11.163 23.5172C9.59559 24.656 7.48663 23.1238 8.08533 21.2812L9.1019 18.1525C9.36965 17.3284 9.07633 16.4257 8.37536 15.9164L5.71395 13.9828C4.14652 12.844 4.95207 10.3647 6.88952 10.3647H10.1792C11.0457 10.3647 11.8136 9.80682 12.0813 8.98278L13.0979 5.8541Z" fill="#EFC61C"/>
<path d="M89.0979 5.8541C89.6966 4.01148 92.3034 4.01148 92.9021 5.8541L93.9187 8.98278C94.1864 9.80682 94.9543 10.3647 95.8208 10.3647H99.1105C101.048 10.3647 101.853 12.844 100.286 13.9828L97.6246 15.9164C96.9237 16.4257 96.6304 17.3284 96.8981 18.1525L97.9147 21.2812C98.5134 23.1238 96.4044 24.656 94.837 23.5172L92.1756 21.5836C91.4746 21.0743 90.5254 21.0743 89.8244 21.5836L87.163 23.5172C85.5956 24.656 83.4866 23.1238 84.0853 21.2812L85.1019 18.1525C85.3697 17.3284 85.0763 16.4257 84.3754 15.9164L81.714 13.9828C80.1465 12.844 80.9521 10.3647 82.8895 10.3647H86.1792C87.0457 10.3647 87.8136 9.80682 88.0813 8.98278L89.0979 5.8541Z" fill="#EFC61C"/>
<path d="M51.0979 5.8541C51.6966 4.01148 54.3034 4.01148 54.9021 5.8541L55.9187 8.98278C56.1864 9.80682 56.9543 10.3647 57.8208 10.3647H61.1105C63.0479 10.3647 63.8535 12.844 62.2861 13.9828L59.6246 15.9164C58.9237 16.4257 58.6304 17.3284 58.8981 18.1525L59.9147 21.2812C60.5134 23.1238 58.4044 24.656 56.837 23.5172L54.1756 21.5836C53.4746 21.0743 52.5254 21.0743 51.8244 21.5836L49.163 23.5172C47.5956 24.656 45.4866 23.1238 46.0853 21.2812L47.1019 18.1525C47.3697 17.3284 47.0763 16.4257 46.3754 15.9164L43.714 13.9828C42.1465 12.844 42.9521 10.3647 44.8895 10.3647H48.1792C49.0457 10.3647 49.8136 9.80682 50.0813 8.98278L51.0979 5.8541Z" fill="#EFC61C"/>
<path d="M127.098 5.8541C127.697 4.01148 130.303 4.01148 130.902 5.8541L131.919 8.98278C132.186 9.80682 132.954 10.3647 133.821 10.3647H137.11C139.048 10.3647 139.853 12.844 138.286 13.9828L135.625 15.9164C134.924 16.4257 134.63 17.3284 134.898 18.1525L135.915 21.2812C136.513 23.1238 134.404 24.656 132.837 23.5172L130.176 21.5836C129.475 21.0743 128.525 21.0743 127.824 21.5836L125.163 23.5172C123.596 24.656 121.487 23.1238 122.085 21.2812L123.102 18.1525C123.37 17.3284 123.076 16.4257 122.375 15.9164L119.714 13.9828C118.147 12.844 118.952 10.3647 120.89 10.3647H124.179C125.046 10.3647 125.814 9.80682 126.081 8.98278L127.098 5.8541Z" fill="#EFC61C"/>
<path d="M165.098 5.8541C165.697 4.01148 168.303 4.01148 168.902 5.8541L169.919 8.98278C170.186 9.80682 170.954 10.3647 171.821 10.3647H175.11C177.048 10.3647 177.853 12.844 176.286 13.9828L173.625 15.9164C172.924 16.4257 172.63 17.3284 172.898 18.1525L173.915 21.2812C174.513 23.1238 172.404 24.656 170.837 23.5172L168.176 21.5836C167.475 21.0743 166.525 21.0743 165.824 21.5836L163.163 23.5172C161.596 24.656 159.487 23.1238 160.085 21.2812L161.102 18.1525C161.37 17.3284 161.076 16.4257 160.375 15.9164L157.714 13.9828C156.147 12.844 156.952 10.3647 158.89 10.3647H162.179C163.046 10.3647 163.814 9.80682 164.081 8.98278L165.098 5.8541Z" fill="#EFC61C"/>
</svg>
