<svg width="125" height="112" viewBox="0 0 125 112" fill="none" xmlns="http://www.w3.org/2000/svg">
<path d="M12.6387 100.055L10.2393 92.7744L7.73047 100L7.04004 100.055L4.30566 91.6602C4.23275 91.446 4.14844 91.2819 4.05273 91.168C3.96159 91.0495 3.83171 90.9652 3.66309 90.915L3.04102 90.7236L3.02734 90.4297C3.47396 90.4479 4.0026 90.457 4.61328 90.457C5.16471 90.457 5.78906 90.4479 6.48633 90.4297L6.51367 90.7236L5.87109 90.9082C5.77539 90.931 5.70703 90.9652 5.66602 91.0107C5.625 91.0563 5.60449 91.1224 5.60449 91.209C5.60449 91.3001 5.625 91.4209 5.66602 91.5713C5.71159 91.7171 5.77083 91.9108 5.84375 92.1523L7.69629 98.0244L10.2324 90.4434L10.8477 90.3955L13.3154 98.0928L15.2432 92.1592C15.3252 91.8994 15.389 91.6921 15.4346 91.5371C15.4801 91.3822 15.5029 91.2637 15.5029 91.1816C15.5029 91.0996 15.4824 91.0404 15.4414 91.0039C15.4004 90.9674 15.3343 90.9378 15.2432 90.915L14.6006 90.7441L14.5869 90.4297C15.0791 90.4479 15.5781 90.457 16.084 90.457C16.5762 90.457 17.0547 90.4479 17.5195 90.4297L17.5469 90.7236L16.8564 90.9424C16.7197 90.9834 16.6104 91.0472 16.5283 91.1338C16.4508 91.2204 16.3734 91.3708 16.2959 91.585L13.3291 100L12.6387 100.055ZM17.6904 90.1836C18.4333 90.0378 19.1761 89.876 19.9189 89.6982L19.9805 89.7529C19.9577 90.1813 19.944 90.792 19.9395 91.585C19.9395 92.3779 19.9395 93.2734 19.9395 94.2715C20.7324 93.7611 21.4707 93.5059 22.1543 93.5059C22.7878 93.5059 23.2913 93.6836 23.665 94.0391C24.0387 94.39 24.2256 94.9072 24.2256 95.5908V98.0039C24.2256 98.528 24.2301 98.9495 24.2393 99.2686C24.2438 99.387 24.3008 99.4668 24.4102 99.5078L25.1758 99.7402L25.1895 100.021C24.5879 100.007 24.0638 100 23.6172 100C23.1706 100 22.6738 100.007 22.127 100.021L22.0996 99.7402L22.7764 99.542C22.8857 99.5055 22.945 99.4349 22.9541 99.3301C22.9587 99.2663 22.9609 99.1227 22.9609 98.8994V95.9189C22.9609 95.3584 22.8265 94.9574 22.5576 94.7158C22.2887 94.4697 21.8923 94.3467 21.3682 94.3467C20.917 94.3467 20.4408 94.4561 19.9395 94.6748V97.7441C19.9395 98.3092 19.944 98.8265 19.9531 99.2959C19.9577 99.4235 20.0146 99.5033 20.124 99.5352L20.835 99.7402L20.8486 100.021C20.2744 100.007 19.764 100 19.3174 100C18.8708 100 18.3421 100.007 17.7314 100.021L17.7041 99.7402L18.4766 99.5146C18.5951 99.4782 18.6566 99.4053 18.6611 99.2959C18.6702 98.8584 18.6748 98.3001 18.6748 97.6211V94.7637C18.6748 93.834 18.6725 93.0114 18.668 92.2959C18.668 91.5804 18.6611 91.0426 18.6475 90.6826L17.7246 90.4092L17.6904 90.1836ZM27.3838 96.7734C27.3838 97.6257 27.5433 98.3206 27.8623 98.8584C28.1813 99.3916 28.6553 99.6582 29.2842 99.6582C29.8721 99.6582 30.3187 99.4235 30.624 98.9541C30.9339 98.4801 31.0889 97.7806 31.0889 96.8555C31.0889 95.985 30.9271 95.2992 30.6035 94.7979C30.2799 94.2965 29.8105 94.0459 29.1953 94.0459C28.612 94.0459 28.1631 94.2715 27.8486 94.7227C27.5387 95.1738 27.3838 95.8574 27.3838 96.7734ZM32.4834 96.7119C32.4834 97.751 32.1689 98.5918 31.54 99.2344C30.9157 99.8724 30.1204 100.191 29.1543 100.191C28.2109 100.191 27.4476 99.8906 26.8643 99.2891C26.2855 98.6829 25.9961 97.8923 25.9961 96.917C25.9961 95.9144 26.2992 95.0964 26.9053 94.4629C27.516 93.8249 28.3226 93.5059 29.3252 93.5059C30.2731 93.5059 31.0365 93.7998 31.6152 94.3877C32.194 94.971 32.4834 95.7458 32.4834 96.7119ZM33.4199 90.4092L33.3857 90.1836C34.1924 90.0286 34.9352 89.8669 35.6143 89.6982L35.6758 89.7529C35.6484 90.4958 35.6348 91.528 35.6348 92.8496V97.2998C35.6348 98.1156 35.6393 98.7718 35.6484 99.2686C35.6621 99.4007 35.7259 99.4827 35.8398 99.5146L36.585 99.7402L36.6055 100.021C35.9902 100.007 35.4593 100 35.0127 100C34.5661 100 34.0374 100.007 33.4268 100.021L33.3994 99.7402L34.1719 99.5146C34.2858 99.4782 34.3473 99.4053 34.3564 99.2959C34.3656 98.7809 34.3701 98.2067 34.3701 97.5732V94.7637C34.3701 93.0684 34.361 91.708 34.3428 90.6826L33.4199 90.4092ZM43.1406 99.5146C42.7533 99.7562 42.3545 99.9294 41.9443 100.034C41.5342 100.139 41.1536 100.191 40.8027 100.191C39.8001 100.191 39.0003 99.9066 38.4033 99.3369C37.8063 98.7627 37.5078 97.9674 37.5078 96.9512C37.5078 95.9395 37.7926 95.1123 38.3623 94.4697C38.9365 93.8271 39.7021 93.5059 40.6592 93.5059C41.4613 93.5059 42.0856 93.7474 42.5322 94.2305C42.9788 94.709 43.2021 95.3721 43.2021 96.2197C43.2021 96.3473 43.1953 96.4772 43.1816 96.6094H38.8477C38.8477 97.5892 39.0778 98.291 39.5381 98.7148C39.9984 99.1341 40.7184 99.3438 41.6982 99.3438C42.1357 99.3438 42.6029 99.3027 43.0996 99.2207L43.1406 99.5146ZM41.8418 96.042V95.8369C41.8418 95.1898 41.737 94.7272 41.5273 94.4492C41.3223 94.1712 41.0146 94.0322 40.6045 94.0322C40.0622 94.0322 39.6475 94.2282 39.3604 94.6201C39.0732 95.012 38.9115 95.486 38.875 96.042H41.8418ZM49.3203 99.4189C49.6895 99.5374 50.0632 99.5967 50.4414 99.5967C51.207 99.5967 51.7812 99.362 52.1641 98.8926C52.5514 98.4232 52.7451 97.751 52.7451 96.876C52.7451 96.0739 52.5674 95.4495 52.2119 95.0029C51.8564 94.5563 51.3301 94.333 50.6328 94.333C50.1862 94.333 49.7487 94.4333 49.3203 94.6338V99.4189ZM49.3613 89.7529C49.334 90.4365 49.3203 91.4642 49.3203 92.8359V94.2236C50.054 93.7451 50.7262 93.5059 51.3369 93.5059C52.1937 93.5059 52.8704 93.793 53.3672 94.3672C53.8639 94.9414 54.1123 95.6911 54.1123 96.6162C54.1123 97.7419 53.791 98.6191 53.1484 99.248C52.5104 99.8724 51.624 100.185 50.4893 100.185C49.7327 100.185 48.917 100.055 48.042 99.7949C48.0511 99.2161 48.0557 98.471 48.0557 97.5596V93.5059C48.0557 92.4987 48.0465 91.5576 48.0283 90.6826L47.1055 90.4092L47.0713 90.1836C47.8187 90.0423 48.5592 89.8805 49.293 89.6982L49.3613 89.7529ZM56.5869 96.7734C56.5869 97.6257 56.7464 98.3206 57.0654 98.8584C57.3844 99.3916 57.8584 99.6582 58.4873 99.6582C59.0752 99.6582 59.5218 99.4235 59.8271 98.9541C60.137 98.4801 60.292 97.7806 60.292 96.8555C60.292 95.985 60.1302 95.2992 59.8066 94.7979C59.4831 94.2965 59.0137 94.0459 58.3984 94.0459C57.8151 94.0459 57.3662 94.2715 57.0518 94.7227C56.7419 95.1738 56.5869 95.8574 56.5869 96.7734ZM61.6865 96.7119C61.6865 97.751 61.3721 98.5918 60.7432 99.2344C60.1188 99.8724 59.3236 100.191 58.3574 100.191C57.4141 100.191 56.6507 99.8906 56.0674 99.2891C55.4886 98.6829 55.1992 97.8923 55.1992 96.917C55.1992 95.9144 55.5023 95.0964 56.1084 94.4629C56.7191 93.8249 57.5257 93.5059 58.5283 93.5059C59.4762 93.5059 60.2396 93.7998 60.8184 94.3877C61.3971 94.971 61.6865 95.7458 61.6865 96.7119ZM67.5518 94.2578C67.2464 94.1621 66.9046 94.1143 66.5264 94.1143C65.7425 94.1143 65.1455 94.3376 64.7354 94.7842C64.3252 95.2262 64.1201 95.8984 64.1201 96.8008C64.1201 97.5801 64.3024 98.2044 64.667 98.6738C65.0316 99.1387 65.5465 99.3711 66.2119 99.3711C66.6403 99.3711 67.0869 99.2526 67.5518 99.0156V94.2578ZM66.5674 90.1836C67.3786 90.0286 68.1214 89.8669 68.7959 89.6982L68.8574 89.7529C68.8301 90.7282 68.8164 91.7764 68.8164 92.8975V96.6162C68.8164 97.2451 68.8187 97.8672 68.8232 98.4824C68.8232 98.7148 68.8301 98.9017 68.8438 99.043C68.862 99.1842 68.903 99.2936 68.9668 99.3711C69.0306 99.444 69.124 99.4941 69.2471 99.5215C69.3747 99.5488 69.5524 99.5648 69.7803 99.5693L69.8145 99.8359C69.6139 99.9134 69.3724 99.9909 69.0898 100.068C68.8118 100.146 68.6227 100.185 68.5225 100.185C68.0622 100.185 67.7523 99.9248 67.5928 99.4053C66.8864 99.9294 66.2005 100.191 65.5352 100.191C64.6921 100.191 64.0176 99.8929 63.5117 99.2959C63.0104 98.6943 62.7598 97.9561 62.7598 97.0811C62.7598 95.9508 63.0947 95.0758 63.7646 94.4561C64.4346 93.8363 65.3711 93.5264 66.5742 93.5264C66.8659 93.5264 67.1917 93.5583 67.5518 93.6221C67.5518 92.6149 67.5426 91.6351 67.5244 90.6826L66.6016 90.4092L66.5674 90.1836ZM69.8076 93.6631C70.3818 93.6768 70.8923 93.6836 71.3389 93.6836C71.6442 93.6836 72.1318 93.6768 72.8018 93.6631L72.8291 93.9434L72.0293 94.1621C72.1979 94.6406 72.3939 95.1693 72.6172 95.748C72.8405 96.3223 73.0775 96.9215 73.3281 97.5459C73.4329 97.8057 73.5469 98.1042 73.6699 98.4414C73.7975 98.0996 73.9342 97.751 74.0801 97.3955C74.2943 96.8669 74.5016 96.3473 74.7021 95.8369C74.9027 95.3219 75.11 94.7637 75.3242 94.1621L74.5449 93.9434L74.5176 93.6631C74.8548 93.6768 75.249 93.6836 75.7002 93.6836C76.1058 93.6836 76.5 93.6768 76.8828 93.6631L76.917 93.9434L76.2812 94.1211C76.14 94.1667 76.0374 94.2601 75.9736 94.4014C75.805 94.7887 75.6227 95.2126 75.4268 95.6729C74.8252 97.0856 74.3695 98.2432 74.0596 99.1455C73.8499 99.7562 73.6608 100.381 73.4922 101.019C73.3236 101.661 73.1937 102.213 73.1025 102.673C73.0615 102.896 72.9772 103.065 72.8496 103.179C72.7266 103.297 72.4349 103.356 71.9746 103.356C71.5052 103.356 71.0495 103.34 70.6074 103.309L70.5732 103.042C71.0745 102.965 71.446 102.803 71.6875 102.557C71.9792 102.242 72.4303 101.406 73.041 100.048L73.0957 99.918L73 99.8906C72.166 97.8125 71.4118 95.985 70.7373 94.4082C70.6781 94.2715 70.5732 94.1781 70.4229 94.1279L69.8213 93.9434L69.8076 93.6631ZM82.5225 94.4082V98.1201C82.5225 98.5485 82.527 98.9245 82.5361 99.248C82.5452 99.3711 82.6045 99.4486 82.7139 99.4805L83.582 99.7402L83.6025 100.021C82.9144 100.007 82.3493 100 81.9072 100C81.4561 100 80.9251 100.007 80.3145 100.021L80.2803 99.7402L81.0459 99.5215C81.1735 99.4805 81.2396 99.4053 81.2441 99.2959C81.2533 99.0133 81.2578 98.7148 81.2578 98.4004V94.374L80.3281 94.1416L80.2803 93.8545L81.2646 93.7725V93.7451C81.2646 92.46 81.5426 91.4642 82.0986 90.7578C82.6592 90.0514 83.4089 89.6982 84.3477 89.6982C84.8079 89.6982 85.2523 89.7552 85.6807 89.8691C85.5257 90.4251 85.3936 90.9971 85.2842 91.585L84.9971 91.6396L84.5527 90.2725C84.4479 90.2588 84.3158 90.252 84.1562 90.252C83.6322 90.252 83.2288 90.4867 82.9463 90.9561C82.6637 91.4255 82.5225 92.2845 82.5225 93.5332V93.7588H84.2246V94.4082H82.5225ZM88.4424 96.9033C87.4443 96.9033 86.763 97.0013 86.3984 97.1973C86.0339 97.3932 85.8516 97.7236 85.8516 98.1885C85.8516 98.6214 85.9723 98.929 86.2139 99.1113C86.4554 99.2891 86.7835 99.3779 87.1982 99.3779C87.6676 99.3779 88.0778 99.2982 88.4287 99.1387L88.4424 96.9033ZM85.127 94.0869C86.0156 93.6995 86.8018 93.5059 87.4854 93.5059C88.1826 93.5059 88.7249 93.6882 89.1123 94.0527C89.5042 94.4173 89.6979 94.9437 89.6934 95.6318L89.6592 98.4756C89.6546 98.708 89.6592 98.8949 89.6729 99.0361C89.6911 99.1774 89.7321 99.2868 89.7959 99.3643C89.8643 99.4372 89.9645 99.4896 90.0967 99.5215C90.2288 99.5488 90.4066 99.5648 90.6299 99.5693L90.6641 99.8359C90.4681 99.9134 90.2288 99.9909 89.9463 100.068C89.6637 100.146 89.4723 100.185 89.3721 100.185C88.93 100.185 88.627 99.9567 88.4629 99.501C87.8249 99.9613 87.2233 100.191 86.6582 100.191C86.0247 100.191 85.5143 100.036 85.127 99.7266C84.7441 99.4121 84.5527 98.9701 84.5527 98.4004C84.5527 97.6986 84.8649 97.1813 85.4893 96.8486C86.1182 96.516 87.1025 96.3496 88.4424 96.3496L88.4492 95.8164C88.4538 95.306 88.3239 94.9277 88.0596 94.6816C87.7952 94.4355 87.3896 94.3125 86.8428 94.3125C86.4281 94.3125 85.9085 94.39 85.2842 94.5449L85.127 94.0869ZM93.3984 94.4082C93.3711 95.9486 93.3574 97.1904 93.3574 98.1338C93.3574 98.6077 93.4281 98.9359 93.5693 99.1182C93.7106 99.2959 93.9795 99.3848 94.376 99.3848C94.6904 99.3848 95.1006 99.3438 95.6064 99.2617L95.6475 99.5693C94.859 99.9658 94.1549 100.164 93.5352 100.164C93.0384 100.164 92.6693 100.032 92.4277 99.7676C92.1862 99.4987 92.0654 99.0954 92.0654 98.5576C92.0654 97.6735 92.0814 96.2767 92.1133 94.3672L91.1699 94.1348L91.1289 93.8545L92.1816 93.7656L92.6533 92.1113C92.9085 92.043 93.141 91.9769 93.3506 91.9131L93.4189 91.9609C93.4053 92.5124 93.3984 93.0273 93.3984 93.5059V93.7588H95.4561V94.4082H93.3984ZM99.4551 90.4092L99.4209 90.1836C100.228 90.0286 100.97 89.8669 101.649 89.6982L101.711 89.7529C101.684 90.4958 101.67 91.528 101.67 92.8496V97.2998C101.67 98.1156 101.674 98.7718 101.684 99.2686C101.697 99.4007 101.761 99.4827 101.875 99.5146L102.62 99.7402L102.641 100.021C102.025 100.007 101.494 100 101.048 100C100.601 100 100.073 100.007 99.4619 100.021L99.4346 99.7402L100.207 99.5146C100.321 99.4782 100.382 99.4053 100.392 99.2959C100.401 98.7809 100.405 98.2067 100.405 97.5732V94.7637C100.405 93.0684 100.396 91.708 100.378 90.6826L99.4551 90.4092ZM104.931 96.7734C104.931 97.6257 105.09 98.3206 105.409 98.8584C105.728 99.3916 106.202 99.6582 106.831 99.6582C107.419 99.6582 107.866 99.4235 108.171 98.9541C108.481 98.4801 108.636 97.7806 108.636 96.8555C108.636 95.985 108.474 95.2992 108.15 94.7979C107.827 94.2965 107.357 94.0459 106.742 94.0459C106.159 94.0459 105.71 94.2715 105.396 94.7227C105.086 95.1738 104.931 95.8574 104.931 96.7734ZM110.03 96.7119C110.03 97.751 109.716 98.5918 109.087 99.2344C108.463 99.8724 107.667 100.191 106.701 100.191C105.758 100.191 104.994 99.8906 104.411 99.2891C103.832 98.6829 103.543 97.8923 103.543 96.917C103.543 95.9144 103.846 95.0964 104.452 94.4629C105.063 93.8249 105.869 93.5059 106.872 93.5059C107.82 93.5059 108.583 93.7998 109.162 94.3877C109.741 94.971 110.03 95.7458 110.03 96.7119ZM114.487 94.1963C114.223 94.1234 113.936 94.0869 113.626 94.0869C113.198 94.0869 112.851 94.1712 112.587 94.3398C112.327 94.5039 112.197 94.7295 112.197 95.0166C112.197 95.2946 112.282 95.5133 112.45 95.6729C112.623 95.8324 112.942 95.9896 113.407 96.1445L113.968 96.3359C114.597 96.5501 115.057 96.7962 115.349 97.0742C115.645 97.3477 115.793 97.7077 115.793 98.1543C115.793 98.7878 115.547 99.2868 115.055 99.6514C114.562 100.011 113.94 100.191 113.188 100.191C112.496 100.191 111.787 100.05 111.062 99.7676C111.217 99.1751 111.343 98.5964 111.438 98.0312L111.705 97.9902L112.197 99.46C112.457 99.5602 112.787 99.6104 113.188 99.6104C113.612 99.6104 113.95 99.5238 114.2 99.3506C114.455 99.1774 114.583 98.9336 114.583 98.6191C114.583 98.3275 114.496 98.0973 114.323 97.9287C114.155 97.7601 113.883 97.6143 113.51 97.4912L112.799 97.252C112.184 97.0469 111.757 96.8008 111.521 96.5137C111.288 96.222 111.172 95.862 111.172 95.4336C111.172 94.8366 111.397 94.3672 111.849 94.0254C112.304 93.679 112.904 93.5059 113.646 93.5059C114.339 93.5059 114.968 93.6061 115.533 93.8066C115.406 94.3262 115.289 94.8753 115.185 95.4541L114.925 95.502L114.487 94.1963ZM120.161 94.1963C119.897 94.1234 119.61 94.0869 119.3 94.0869C118.871 94.0869 118.525 94.1712 118.261 94.3398C118.001 94.5039 117.871 94.7295 117.871 95.0166C117.871 95.2946 117.955 95.5133 118.124 95.6729C118.297 95.8324 118.616 95.9896 119.081 96.1445L119.642 96.3359C120.271 96.5501 120.731 96.7962 121.022 97.0742C121.319 97.3477 121.467 97.7077 121.467 98.1543C121.467 98.7878 121.221 99.2868 120.729 99.6514C120.236 100.011 119.614 100.191 118.862 100.191C118.17 100.191 117.461 100.05 116.736 99.7676C116.891 99.1751 117.017 98.5964 117.112 98.0312L117.379 97.9902L117.871 99.46C118.131 99.5602 118.461 99.6104 118.862 99.6104C119.286 99.6104 119.623 99.5238 119.874 99.3506C120.129 99.1774 120.257 98.9336 120.257 98.6191C120.257 98.3275 120.17 98.0973 119.997 97.9287C119.828 97.7601 119.557 97.6143 119.184 97.4912L118.473 97.252C117.857 97.0469 117.431 96.8008 117.194 96.5137C116.962 96.222 116.846 95.862 116.846 95.4336C116.846 94.8366 117.071 94.3672 117.522 94.0254C117.978 93.679 118.577 93.5059 119.32 93.5059C120.013 93.5059 120.642 93.6061 121.207 93.8066C121.079 94.3262 120.963 94.8753 120.858 95.4541L120.599 95.502L120.161 94.1963Z" fill="white"/>
<path d="M50.799 29.3944C41.7586 37.2628 28.7923 27.0108 20.8221 35.9622C7.31681 51.1302 35.6023 73.8144 55.9029 74.3718C76.5342 74.9383 97.2656 56.9117 92.9851 36.7134C89.7019 21.2213 74.6679 3.35876 61.1525 11.5997C54.2891 15.7846 56.8629 24.1167 50.799 29.3944Z" fill="#FCF43D"/>
<path d="M76.3125 32.9375V36.4491C76.3126 41.1346 75.2858 45.7633 73.3043 50.0092C72.0785 52.6357 70.1804 54.8915 67.8022 56.5483C65.424 58.205 62.6502 59.2039 59.7617 59.4436C56.8732 59.6833 53.9727 59.1554 51.3539 57.9133C48.7352 56.6712 46.4912 54.7591 44.8492 52.3706L42.3948 48.802L26.375 25.5H23.1875V8.5C24.1381 8.49955 25.0686 8.77302 25.8678 9.28768C26.667 9.80233 27.301 10.5364 27.6938 11.402L31.6875 20.1875L51.4394 40.7628L57.1875 46.75L60.2568 32.9375H76.3125Z" fill="#FFCEB6"/>
<path d="M76.3125 20.1875V32.9375H68.875V30.8125H67.8125C66.6854 30.8124 65.6045 30.3646 64.8075 29.5676C64.0105 28.7706 63.5626 27.6896 63.5625 26.5625V22.3125C63.5616 21.4751 63.7259 20.6457 64.0459 19.8718C64.366 19.098 64.8355 18.3948 65.4277 17.8027C66.0198 17.2105 66.723 16.741 67.4968 16.4209C68.2707 16.1009 69.1001 15.9366 69.9375 15.9375H72.0625C73.1896 15.9376 74.2706 16.3855 75.0676 17.1825C75.8646 17.9795 76.3124 19.0604 76.3125 20.1875Z" fill="#FFCEB6"/>
<path d="M76.3125 32.9375V36.4491C76.3126 41.1346 75.2858 45.7633 73.3043 50.0092C72.7636 51.1677 72.0896 52.2593 71.2962 53.2618L57.1875 46.75L60.2568 32.9375H76.3125Z" fill="#548AFF"/>
<path d="M76.3125 20.1875V27.625H73.125L68.875 23.375V20.1875H63.9251C64.3651 18.9445 65.1794 17.8685 66.2561 17.1074C67.3329 16.3463 68.619 15.9376 69.9375 15.9375H72.0625C73.1896 15.9376 74.2706 16.3855 75.0676 17.1825C75.8646 17.9794 76.3124 19.0604 76.3125 20.1875Z" fill="#B1712C"/>
<path d="M71.2962 53.2618C69.6984 55.2801 67.6492 56.8951 65.3134 57.977C62.9776 59.0588 60.4205 59.5773 57.8478 59.4906C55.2751 59.4039 52.7587 58.7145 50.501 57.4779C48.2433 56.2412 46.3075 54.4919 44.8492 52.3706L42.3948 48.802L51.4394 40.7628L57.1875 46.75L71.2962 53.2618Z" fill="#FFC431"/>
<path d="M31.6875 20.1875L26.375 25.5H23.1875V8.5C24.1381 8.49955 25.0686 8.77302 25.8678 9.28768C26.667 9.80233 27.301 10.5364 27.6938 11.402L31.6875 20.1875Z" fill="#D1E4FF"/>
<path d="M79.5 15.9375H79.5C80.909 15.9375 82.2602 16.4972 83.2565 17.4935C84.2528 18.4898 84.8125 19.841 84.8125 21.25V37.1875H84.8125C82.5582 37.1875 80.3961 36.292 78.8021 34.6979C77.208 33.1039 76.3125 30.9418 76.3125 28.6875V19.125C76.3125 18.2796 76.6483 17.4689 77.2461 16.8711C77.8439 16.2733 78.6546 15.9375 79.5 15.9375Z" fill="#A36522"/>
<path d="M66.4922 31.6172L48.9453 14.0703C48.5267 13.6517 48.0298 13.3197 47.4829 13.0931C46.936 12.8666 46.3498 12.75 45.7578 12.75C45.1658 12.75 44.5797 12.8666 44.0327 13.0931C43.4858 13.3197 42.9889 13.6517 42.5703 14.0703C42.1517 14.4889 41.8197 14.9858 41.5931 15.5327C41.3666 16.0797 41.25 16.6658 41.25 17.2578C41.25 17.8498 41.3666 18.436 41.5931 18.9829C41.8197 19.5298 42.1517 20.0267 42.5703 20.4453L60.1172 37.9922C60.5358 38.4108 61.0327 38.7428 61.5796 38.9694C62.1265 39.1959 62.7127 39.3125 63.3047 39.3125H63.3047C64.5002 39.3125 65.6468 38.8376 66.4922 37.9922C67.3376 37.1468 67.8125 36.0002 67.8125 34.8047V34.8047C67.8125 33.6091 67.3376 32.4626 66.4922 31.6172Z" fill="#FFCEB6"/>
<path d="M79.5 14.875C78.8215 14.8752 78.1529 15.0381 77.5503 15.3498C76.9476 15.6616 76.4284 16.1133 76.0362 16.6669C75.5388 16.1036 74.9272 15.6525 74.2421 15.3435C73.557 15.0346 72.814 14.8749 72.0625 14.875H69.9375C67.9656 14.8772 66.0752 15.6615 64.6809 17.0559C63.2865 18.4502 62.5022 20.3406 62.5 22.3125V26.1224L49.6966 13.319C48.6515 12.2766 47.2354 11.6917 45.7593 11.6927C44.2832 11.6936 42.8679 12.2804 41.8242 13.3242C40.7804 14.3679 40.1936 15.7832 40.1927 17.2593C40.1917 18.7354 40.7766 20.1515 41.819 21.1966L58.1488 37.5263L56.5805 44.5835L32.5797 19.5826L28.6612 10.9621C28.1822 9.91206 27.4117 9.0217 26.4414 8.39687C25.471 7.77205 24.3416 7.43906 23.1875 7.4375C23.048 7.4375 22.9098 7.46498 22.7809 7.51837C22.652 7.57176 22.5349 7.65003 22.4362 7.74869C22.3375 7.84735 22.2593 7.96448 22.2059 8.09339C22.1525 8.2223 22.125 8.36047 22.125 8.5V25.5C22.125 25.6395 22.1525 25.7777 22.2059 25.9066C22.2593 26.0355 22.3375 26.1526 22.4362 26.2513C22.5349 26.35 22.652 26.4282 22.7809 26.4816C22.9098 26.535 23.048 26.5625 23.1875 26.5625H25.8161L43.9734 52.9731C45.5374 55.2479 47.6175 57.1204 50.0437 58.4375H37V60.5625H78.4375V58.4375H66.7379C70.0368 56.6519 72.6758 53.855 74.2671 50.458C76.3074 46.0692 77.3679 41.2888 77.375 36.4489V34.6886C78.2697 35.8003 79.4023 36.6974 80.6894 37.3137C81.9765 37.93 83.3854 38.25 84.8125 38.25C84.952 38.25 85.0902 38.2225 85.2191 38.1691C85.348 38.1157 85.4651 38.0375 85.5638 37.9388C85.6625 37.8401 85.7407 37.723 85.7941 37.5941C85.8475 37.4652 85.875 37.327 85.875 37.1875V21.25C85.8731 19.5598 85.2008 17.9394 84.0057 16.7443C82.8106 15.5492 81.1902 14.8769 79.5 14.875ZM68.875 29.75H67.8125C66.9674 29.7491 66.1572 29.4129 65.5596 28.8154C64.9621 28.2178 64.6259 27.4076 64.625 26.5625V22.3125C64.6249 21.9556 64.6607 21.5997 64.7319 21.25H67.8125V23.375C67.8125 23.5145 67.84 23.6527 67.8934 23.7816C67.9468 23.9105 68.025 24.0276 68.1237 24.1263L72.3737 28.3763C72.4724 28.475 72.5895 28.5532 72.7184 28.6066C72.8473 28.66 72.9855 28.6875 73.125 28.6875H75.25V31.875H69.9375V30.8125C69.9375 30.673 69.91 30.5348 69.8566 30.4059C69.8032 30.277 69.725 30.1599 69.6263 30.0612C69.5276 29.9625 69.4105 29.8843 69.2816 29.8309C69.1527 29.7775 69.0145 29.75 68.875 29.75ZM69.9375 17H72.0625C72.9076 17.0009 73.7178 17.3371 74.3154 17.9346C74.9129 18.5322 75.2491 19.3424 75.25 20.1875V26.5625H73.5651L69.9375 22.9349V20.1875C69.9375 20.048 69.91 19.9098 69.8566 19.7809C69.8032 19.652 69.725 19.5349 69.6263 19.4362C69.5276 19.3375 69.4105 19.2593 69.2816 19.2059C69.1527 19.1525 69.0145 19.125 68.875 19.125H65.6904C66.1847 18.4653 66.8258 17.9298 67.563 17.561C68.3002 17.1921 69.1132 17.0001 69.9375 17ZM42.3125 17.2578C42.3125 16.5764 42.5146 15.9103 42.8932 15.3437C43.2717 14.7771 43.8098 14.3355 44.4393 14.0748C45.0689 13.814 45.7616 13.7458 46.4299 13.8787C47.0983 14.0116 47.7122 14.3397 48.194 14.8216L65.7409 32.3685C66.3866 33.0147 66.7491 33.8909 66.7489 34.8044C66.7487 35.7179 66.3857 36.5939 65.7398 37.2398C65.0939 37.8857 64.2179 38.2487 63.3044 38.2489C62.3909 38.2491 61.5147 37.8866 60.8685 37.2409L43.3216 19.694C43.0006 19.3748 42.7462 18.9951 42.573 18.577C42.3998 18.1588 42.3113 17.7104 42.3125 17.2578ZM49.9082 40.7016L42.5886 47.208L27.7512 25.6263L31.672 21.7056L49.9082 40.7016ZM24.25 9.7112C24.7924 9.86589 25.2948 10.1365 25.7224 10.5043C26.15 10.8721 26.4927 11.3283 26.7267 11.8415L30.4155 19.9568L25.9349 24.4375H24.25V9.7112ZM58.4011 58.4375C55.9057 58.4378 53.4476 57.8309 51.2391 56.6691C49.0306 55.5074 47.1379 53.8257 45.7244 51.7692L43.8019 48.9727L51.381 42.2357L56.421 47.4858C56.5131 47.5812 56.6222 47.6585 56.7427 47.7136L56.7422 47.7147L69.5622 53.6316C68.1237 55.146 66.3928 56.3527 64.4743 57.1788C62.5559 58.0048 60.4898 58.433 58.4011 58.4375ZM75.25 36.4489C75.2434 40.9783 74.2509 45.4521 72.3414 49.5594C71.953 50.3916 71.4903 51.1869 70.9587 51.9358L58.4105 46.1443L59.9434 39.2463C60.7699 39.8719 61.7545 40.2544 62.7865 40.3508C63.8186 40.4473 64.857 40.2539 65.7851 39.7923C66.7132 39.3308 67.4941 38.6195 68.04 37.7383C68.5859 36.8572 68.875 35.8412 68.875 34.8047C68.8749 34.5354 68.8556 34.2665 68.8172 34H75.25V36.4489ZM83.75 36.0493C81.9808 35.7915 80.3633 34.906 79.1929 33.5544C78.0225 32.2028 77.3773 30.4754 77.375 28.6875V19.125C77.3756 18.5616 77.5997 18.0215 77.9981 17.6231C78.3965 17.2247 78.9366 17.0006 79.5 17C80.6268 17.0013 81.7071 17.4494 82.5038 18.2462C83.3006 19.0429 83.7487 20.1232 83.75 21.25V36.0493Z" fill="black"/>
<path d="M34.875 58.4375H32.75V60.5625H34.875V58.4375Z" fill="black"/>
<path d="M82.6875 58.4375H80.5625V60.5625H82.6875V58.4375Z" fill="black"/>
</svg>
