<svg width="125" height="111" viewBox="0 0 125 111" fill="none" xmlns="http://www.w3.org/2000/svg">
<path d="M55.9431 27.3944C46.9027 35.2628 33.9364 25.0108 25.9662 33.9622C12.4609 49.1302 40.7464 71.8144 61.047 72.3718C81.6783 72.9383 102.41 54.9117 98.1292 34.7134C94.846 19.2213 79.812 1.35876 66.2966 9.5997C59.4332 13.7846 62.007 22.1167 55.9431 27.3944Z" fill="#FCF43D"/>
<path d="M52.752 93.3154L54.3311 90.3281C54.445 90.1094 54.5407 89.9225 54.6182 89.7676C54.6956 89.6126 54.7344 89.485 54.7344 89.3848C54.7344 89.2435 54.6341 89.1455 54.4336 89.0908L53.8184 88.9268L53.8047 88.6123C54.2969 88.6305 54.8005 88.6396 55.3154 88.6396C55.8122 88.6396 56.2952 88.6305 56.7646 88.6123L56.792 88.9062L56.1016 89.125C55.9375 89.1751 55.8099 89.2549 55.7188 89.3643C55.6322 89.4736 55.5433 89.6081 55.4521 89.7676L53.0869 93.9854V96.0635C53.0869 96.3369 53.0869 96.5853 53.0869 96.8086C53.0915 97.0319 53.096 97.2347 53.1006 97.417C53.1051 97.5309 53.1849 97.6084 53.3398 97.6494L54.1875 97.9092L54.2012 98.2031C53.5632 98.1895 52.9753 98.1826 52.4375 98.1826C51.8861 98.1826 51.2959 98.1895 50.667 98.2031L50.6396 97.9092L51.5557 97.6357C51.6696 97.6038 51.7311 97.5332 51.7402 97.4238C51.7448 97.2415 51.7471 97.0387 51.7471 96.8154C51.7516 96.5876 51.7539 96.3369 51.7539 96.0635V94.1289L49.3477 89.959C49.179 89.681 49.04 89.4805 48.9307 89.3574C48.8258 89.2344 48.6846 89.1478 48.5068 89.0977L47.8848 88.9062L47.8711 88.6123C48.2858 88.6305 48.8464 88.6396 49.5527 88.6396C50.168 88.6396 50.8037 88.6305 51.46 88.6123L51.4873 88.9062L50.8447 89.084C50.749 89.1068 50.6807 89.141 50.6396 89.1865C50.5986 89.2275 50.5781 89.2799 50.5781 89.3438C50.5781 89.4395 50.6123 89.5579 50.6807 89.6992C50.7536 89.8359 50.8424 89.9954 50.9473 90.1777L52.752 93.3154ZM57.3252 94.9561C57.3252 95.8083 57.4847 96.5033 57.8037 97.041C58.1227 97.5742 58.5967 97.8408 59.2256 97.8408C59.8135 97.8408 60.2601 97.6061 60.5654 97.1367C60.8753 96.6628 61.0303 95.9632 61.0303 95.0381C61.0303 94.1676 60.8685 93.4818 60.5449 92.9805C60.2214 92.4792 59.752 92.2285 59.1367 92.2285C58.5534 92.2285 58.1045 92.4541 57.79 92.9053C57.4801 93.3564 57.3252 94.04 57.3252 94.9561ZM62.4248 94.8945C62.4248 95.9336 62.1104 96.7744 61.4814 97.417C60.8571 98.055 60.0618 98.374 59.0957 98.374C58.1523 98.374 57.389 98.0732 56.8057 97.4717C56.2269 96.8656 55.9375 96.0749 55.9375 95.0996C55.9375 94.097 56.2406 93.279 56.8467 92.6455C57.4574 92.0075 58.264 91.6885 59.2666 91.6885C60.2145 91.6885 60.9779 91.9824 61.5566 92.5703C62.1354 93.1536 62.4248 93.9284 62.4248 94.8945ZM64.9404 93.9375C64.9404 94.5299 65.0589 94.988 65.2959 95.3115C65.5374 95.6351 65.8861 95.7969 66.3418 95.7969C66.7793 95.7969 67.1074 95.6465 67.3262 95.3457C67.5495 95.0404 67.6611 94.596 67.6611 94.0127C67.6611 93.4521 67.5426 93.0101 67.3057 92.6865C67.0732 92.363 66.7246 92.2012 66.2598 92.2012C65.8223 92.2012 65.4919 92.3493 65.2686 92.6455C65.0498 92.9417 64.9404 93.3724 64.9404 93.9375ZM64.8516 98.4561C64.5417 98.9209 64.3867 99.3493 64.3867 99.7412C64.3867 100.142 64.5485 100.454 64.8721 100.678C65.1956 100.901 65.6354 101.013 66.1914 101.013C66.8522 101.013 67.431 100.865 67.9277 100.568C68.4245 100.277 68.6729 99.8665 68.6729 99.3379C68.6729 99.0508 68.5498 98.8275 68.3037 98.668C68.0622 98.513 67.6042 98.4355 66.9297 98.4355C66.6882 98.4355 66.4238 98.4424 66.1367 98.4561C65.8542 98.4697 65.5807 98.4766 65.3164 98.4766C65.1706 98.4766 65.0156 98.4697 64.8516 98.4561ZM68.4199 92.5498C68.7617 92.9281 68.9326 93.3792 68.9326 93.9033C68.9326 94.637 68.6774 95.2227 68.167 95.6602C67.6566 96.0931 67.0163 96.3096 66.2461 96.3096C65.8086 96.3096 65.4167 96.2412 65.0703 96.1045C64.8242 96.501 64.7012 96.8132 64.7012 97.041C64.7012 97.1641 64.7627 97.2484 64.8857 97.2939C65.0133 97.335 65.2458 97.3555 65.583 97.3555C65.8382 97.3555 66.1367 97.3486 66.4785 97.335C66.8203 97.3213 67.1393 97.3145 67.4355 97.3145C68.1602 97.3145 68.7321 97.4535 69.1514 97.7314C69.5752 98.0049 69.7871 98.4128 69.7871 98.9551C69.7871 99.7754 69.3997 100.423 68.625 100.896C67.8548 101.37 66.9775 101.607 65.9932 101.607C65.1865 101.607 64.5417 101.471 64.0586 101.197C63.5801 100.928 63.3408 100.577 63.3408 100.145C63.3408 99.6204 63.7122 99.0326 64.4551 98.3809C63.9857 98.2031 63.751 97.9661 63.751 97.6699C63.751 97.2552 64.0768 96.6764 64.7285 95.9336C64.0176 95.5007 63.6621 94.874 63.6621 94.0537C63.6621 93.3428 63.9128 92.7708 64.4141 92.3379C64.9199 91.9049 65.5716 91.6885 66.3691 91.6885C66.5788 91.6885 66.8636 91.7158 67.2236 91.7705C67.5654 91.8343 67.832 91.8662 68.0234 91.8662C68.7116 91.8662 69.3451 91.8594 69.9238 91.8457L69.958 92.126L68.4199 92.5498ZM74.3057 95.0859C73.3076 95.0859 72.6263 95.1839 72.2617 95.3799C71.8971 95.5758 71.7148 95.9062 71.7148 96.3711C71.7148 96.804 71.8356 97.1117 72.0771 97.2939C72.3187 97.4717 72.6468 97.5605 73.0615 97.5605C73.5309 97.5605 73.9411 97.4808 74.292 97.3213L74.3057 95.0859ZM70.9902 92.2695C71.8789 91.8822 72.665 91.6885 73.3486 91.6885C74.0459 91.6885 74.5882 91.8708 74.9756 92.2354C75.3675 92.5999 75.5612 93.1263 75.5566 93.8145L75.5225 96.6582C75.5179 96.8906 75.5225 97.0775 75.5361 97.2188C75.5544 97.36 75.5954 97.4694 75.6592 97.5469C75.7275 97.6198 75.8278 97.6722 75.96 97.7041C76.0921 97.7314 76.2699 97.7474 76.4932 97.752L76.5273 98.0186C76.3314 98.096 76.0921 98.1735 75.8096 98.251C75.527 98.3285 75.3356 98.3672 75.2354 98.3672C74.7933 98.3672 74.4902 98.1393 74.3262 97.6836C73.6882 98.1439 73.0866 98.374 72.5215 98.374C71.888 98.374 71.3776 98.2191 70.9902 97.9092C70.6074 97.5947 70.416 97.1527 70.416 96.583C70.416 95.8812 70.7282 95.3639 71.3525 95.0312C71.9814 94.6986 72.9658 94.5322 74.3057 94.5322L74.3125 93.999C74.3171 93.4886 74.1872 93.1104 73.9229 92.8643C73.6585 92.6182 73.2529 92.4951 72.7061 92.4951C72.2913 92.4951 71.7718 92.5726 71.1475 92.7275L70.9902 92.2695Z" fill="white"/>
<path d="M63.4688 14.7656L60.5156 18.7031L57.5625 14.7656H63.4688Z" fill="#2F4054"/>
<path d="M49.6875 47.25V46.2656L46.631 37.8603C45.7561 35.4552 45.5275 32.8627 45.9679 30.3417C46.4084 27.8206 47.5026 25.4592 49.1412 23.4933L50.6719 21.6562H51.7793C52.4008 21.6564 53.005 21.4518 53.4985 21.0742C53.992 20.6965 54.3474 20.1668 54.5097 19.5669C54.5761 19.3256 54.6096 19.0764 54.6094 18.8262V14.1196L60.5156 14.4113V21.6562H63.4687L62.7096 24.3141C61.9318 27.0366 62.2026 29.9518 63.4687 32.4844C62.8223 33.1307 62.3096 33.898 61.9597 34.7425C61.6099 35.587 61.4299 36.4922 61.4299 37.4062C61.4299 38.3203 61.6099 39.2255 61.9597 40.07C62.3096 40.9145 62.8223 41.6818 63.4687 42.3281L69.9484 45.7218L49.6875 47.25Z" fill="#F4CEAF"/>
<path d="M90.0469 53.2867C90.047 54.1745 89.8722 55.0536 89.5325 55.8738C89.1928 56.694 88.6948 57.4393 88.0671 58.0671C87.4393 58.6948 86.694 59.1928 85.8738 59.5325C85.0536 59.8722 84.1745 60.047 83.2867 60.0469H47.0285C43.574 60.0466 40.1422 59.4899 36.8648 58.398C35.5763 57.9683 34.4827 57.0942 33.7796 55.932C33.0766 54.7698 32.81 53.3954 33.0275 52.0547C33.2451 50.7139 33.9326 49.4943 34.967 48.614C36.0014 47.7338 37.3153 47.2502 38.6736 47.25H49.6875V46.2656H52.3367C54.3148 46.2655 56.2704 45.8456 58.0742 45.0336C59.878 44.2217 61.489 43.0361 62.8006 41.5553C63.0042 41.8288 63.2276 42.0871 63.4687 42.3281L80.1712 51.0768L79.4242 48.4645L77.373 41.2822L81.7363 39.1006L88.857 49.4574C89.632 50.5841 90.0468 51.9193 90.0469 53.2867Z" fill="#396795"/>
<path d="M82.1719 34.5971C82.1741 34.9904 82.0968 35.3801 81.9446 35.7428C81.7923 36.1054 81.5683 36.4335 81.2859 36.7073C80.7325 37.2473 79.9907 37.5508 79.2175 37.5539C78.7592 37.553 78.3074 37.4447 77.8985 37.2377L72.2284 34.4027L66.4219 31.5L63.4687 32.4844L58.5469 27.5625L63.4687 21.6563L68.3906 22.6406L71.6711 26.332L76.2656 31.5L74.3892 24.6204L73.3125 20.6719L69.375 19.6875L71.3437 15.75H73.3125L75.2812 16.7344L76.2656 20.6719L80.0727 27.0162C81.4463 29.3063 82.1718 31.9266 82.1719 34.5971Z" fill="#F4CEAF"/>
<path d="M71.3438 12.7969V15.75L69.375 19.6875L66.4219 16.7344L61.5 13.4528L59.0391 11.8125L51.6563 13.7813V22.6407L45.75 33.4688L46.5523 15.0204C46.6729 12.2431 47.2314 9.50227 48.2072 6.89927C48.5439 5.99819 49.1991 5.25171 50.0489 4.80096C50.8987 4.35022 51.8842 4.22646 52.819 4.45309C53.0612 4.51209 53.2972 4.59366 53.5241 4.69672L61.5 8.32167L71.3438 12.7969Z" fill="#F4CEAF"/>
<path d="M63.4688 32.4843C62.2882 33.665 61.5713 35.2306 61.4487 36.8956C61.326 38.5607 61.8058 40.2144 62.8006 41.5553C61.489 43.0361 59.878 44.2217 58.0742 45.0336C56.2704 45.8456 54.3148 46.2655 52.3367 46.2656H49.6875L46.631 37.8603C45.7561 35.4552 45.5275 32.8627 45.9679 30.3416C46.4084 27.8206 47.5026 25.4592 49.1412 23.4933L50.6719 21.6562H51.7793C52.0716 21.6566 52.3622 21.6114 52.6406 21.5221V23.625C52.6403 23.8836 52.691 24.1398 52.7898 24.3788C52.8886 24.6178 53.0336 24.835 53.2165 25.0179C53.3994 25.2008 53.6165 25.3458 53.8556 25.4446C54.0946 25.5434 54.3507 25.5941 54.6094 25.5937C55.5263 25.5938 56.4306 25.3803 57.2508 24.9703C58.0709 24.5602 58.7843 23.9648 59.3344 23.2312L60.5156 21.6562H63.4688L62.7096 24.314C61.9318 27.0366 62.2026 29.9517 63.4688 32.4843Z" fill="#8ACCE7"/>
<path d="M65.4375 16.7344C67.0685 16.7344 68.3906 15.4122 68.3906 13.7812C68.3906 12.1503 67.0685 10.8281 65.4375 10.8281C63.8065 10.8281 62.4844 12.1503 62.4844 13.7812C62.4844 15.4122 63.8065 16.7344 65.4375 16.7344Z" fill="#262D43"/>
<path d="M65.4375 9.84375C65.4376 11.2067 65.0335 12.539 64.2763 13.6722C63.5191 14.8055 62.4429 15.6888 61.1838 16.2104C59.9246 16.7319 58.539 16.8684 57.2023 16.6026C55.8656 16.3367 54.6377 15.6804 53.674 14.7166C52.7103 13.7529 52.054 12.525 51.7881 11.1883C51.5222 9.85158 51.6587 8.46603 52.1803 7.20687C52.7019 5.94771 53.5851 4.8715 54.7184 4.11433C55.8516 3.35717 57.184 2.95307 58.5469 2.95313C60.3742 2.95378 62.1265 3.67996 63.4186 4.97207C64.7107 6.26417 65.4369 8.01645 65.4375 9.84375Z" fill="#2F4054"/>
<path d="M81.7363 39.1006L77.373 41.2822L76.2656 37.4063C75.3878 37.1136 74.6144 36.5715 74.0399 35.8462C73.4653 35.1208 73.1147 34.2438 73.0307 33.3223L72.493 27.4112C72.4572 27.0126 72.566 26.6146 72.7994 26.2896C73.0328 25.9646 73.3753 25.7344 73.7643 25.6409C74.1534 25.5475 74.5631 25.5971 74.9186 25.7807C75.2741 25.9643 75.5518 26.2696 75.7009 26.6409L79.2187 35.4375L81.7363 39.1006Z" fill="#F4CEAF"/>
<path d="M72.3281 58.8299C72.3278 59.1526 72.1994 59.4619 71.9713 59.69C71.7432 59.9182 71.4338 60.0465 71.1112 60.0469H56.5781V53.6041L58.5469 54.1406C59.12 53.5669 59.8592 53.1882 60.6596 53.0584C61.46 52.9285 62.281 53.054 63.0061 53.4171L71.6551 57.7422C71.8572 57.8431 72.0272 57.9983 72.1461 58.1904C72.265 58.3826 72.328 58.604 72.3281 58.8299Z" fill="#F4CEAF"/>
<path d="M60.5156 14.4113V19.6875H55.5937C55.229 19.6877 54.8655 19.6472 54.5097 19.5669C54.5761 19.3256 54.6096 19.0764 54.6094 18.8262V14.1196L60.5156 14.4113Z" fill="#F2C194"/>
<path d="M60.5156 11.8125V18.7031H55.5937C54.5495 18.703 53.5481 18.2881 52.8097 17.5497C52.0713 16.8113 51.6564 15.8099 51.6562 14.7656V9.84375C51.6558 9.51436 51.6793 9.18538 51.7264 8.85938H57.5625C58.3457 8.85958 59.0967 9.17077 59.6504 9.72455C60.2042 10.2783 60.5154 11.0293 60.5156 11.8125Z" fill="#F4CEAF"/>
<path d="M60.5156 11.8125C60.5156 11.2904 60.723 10.7896 61.0923 10.4204C61.4615 10.0512 61.9622 9.84375 62.4844 9.84375C63.0065 9.84375 63.5073 10.0512 63.8765 10.4204C64.2457 10.7896 64.4531 11.2904 64.4531 11.8125V13.7813C64.4531 14.3034 64.2457 14.8042 63.8765 15.1734C63.5073 15.5426 63.0065 15.75 62.4844 15.75H60.5156V11.8125Z" fill="#F2C194"/>
<path d="M65.3784 11.2231C65.3735 11.201 65.3698 11.18 65.3637 11.1591L65.3772 11.1653L65.3784 11.2231Z" fill="black"/>
<path d="M89.6691 48.9001L81.8519 37.5281C82.2649 37.1601 82.5948 36.7084 82.8197 36.203C83.0446 35.6977 83.1593 35.1502 83.1562 34.5971C83.1573 31.7479 82.3831 28.9521 80.9168 26.5092L77.1847 20.2904L76.2361 16.4957C76.2016 16.3579 76.1379 16.2292 76.0491 16.1183C75.9603 16.0074 75.8487 15.9171 75.7218 15.8533L73.753 14.869C73.6161 14.8011 73.4653 14.7658 73.3125 14.7656H72.3281V12.7969C72.3282 12.6079 72.2738 12.4229 72.1715 12.264C72.0691 12.1051 71.9232 11.9791 71.751 11.9011L66.4133 9.47461C66.3462 8.0261 65.8802 6.62428 65.0667 5.42387C64.2532 4.22346 63.1239 3.27113 61.8034 2.67198C60.4829 2.07283 59.0226 1.85015 57.5835 2.02852C56.1444 2.20689 54.7826 2.77937 53.6484 3.68279C53.0422 3.45172 52.3964 3.34271 51.7481 3.36204C51.0997 3.38137 50.4615 3.52866 49.8702 3.79542C49.2789 4.06219 48.7462 4.44318 48.3027 4.91651C47.8591 5.38983 47.5135 5.94615 47.2856 6.55348C46.2729 9.25333 45.6935 12.0964 45.5691 14.9773L44.869 31.0767V31.0817C44.8 31.6718 44.7655 32.2655 44.7656 32.8596C44.7646 34.6798 45.0828 36.486 45.7057 38.1962L48.6404 46.2656H38.6736C37.0815 46.2657 35.5413 46.8323 34.3288 47.8641C33.1162 48.8958 32.3103 50.3254 32.0553 51.8969C31.8003 53.4685 32.1128 55.0795 32.937 56.4417C33.7611 57.8039 35.0431 58.8285 36.5535 59.332C39.931 60.4583 43.4681 61.0321 47.0285 61.0312H83.2867C84.6977 61.0312 86.082 60.6457 87.2899 59.9163C88.4978 59.187 89.4835 58.1414 90.1405 56.8926C90.7976 55.6439 91.1009 54.2393 91.0178 52.8307C90.9347 51.4221 90.4684 50.063 89.6691 48.9001ZM71.9516 16.7344H73.0799L74.4359 17.4124L75.3108 20.9106C75.334 21.0051 75.3713 21.0955 75.4215 21.1788L79.2286 27.5219C80.5113 29.6589 81.1884 32.1046 81.1875 34.5971C81.1895 35.0668 81.0222 35.5216 80.7162 35.878L80.0924 34.9699L76.6139 26.2754C76.3988 25.7329 76.0097 25.2772 75.5076 24.9798L74.2624 20.4135C74.2166 20.2446 74.1266 20.0909 74.0015 19.9685C73.8765 19.8461 73.721 19.7592 73.5512 19.717L70.8048 19.0304L71.9516 16.7344ZM61.5 19.0317L63.075 16.9313C63.9055 17.5539 64.9482 17.8236 65.9764 17.6818L68.6785 20.3839H68.6798C68.8061 20.5094 68.9638 20.5986 69.1363 20.6424L72.5139 21.4865L73.3962 24.7214C72.9422 24.8556 72.5329 25.1098 72.2112 25.4572L69.1264 21.9872C68.9846 21.8268 68.7939 21.7174 68.5838 21.6759L63.6964 20.6989L63.6619 20.6916C63.5984 20.6782 63.5337 20.6716 63.4688 20.6719H61.5V19.0317ZM72.0316 33.203L66.8624 30.619C66.6285 30.503 66.3583 30.484 66.1105 30.5661L64.0016 31.2687C63.1452 29.1414 63.0235 26.7891 63.6558 24.5848L64.1664 22.7994L67.8738 23.5413L71.5271 27.6499V27.6511L72.0316 33.203ZM64.0101 33.342L66.3468 32.5631L72.8166 35.7968V35.798C73.4271 36.8385 74.3497 37.6603 75.4535 38.147L78.5949 49.14L64.0631 41.5283C63.0139 40.4269 62.4242 38.9668 62.4144 37.4456C62.4045 35.9245 62.9753 34.4569 64.0101 33.342ZM77.2118 37.1355C77.1681 36.9816 77.0873 36.8408 76.9767 36.7252C76.866 36.6096 76.7288 36.5228 76.577 36.4723C75.8805 36.2405 75.2668 35.8104 74.8111 35.235C74.3554 34.6595 74.0775 33.9636 74.0114 33.2325L73.4737 27.3226C73.4588 27.1594 73.5031 26.9963 73.5985 26.8631C73.694 26.7299 73.8342 26.6354 73.9935 26.5971C74.1528 26.5587 74.3206 26.5789 74.4662 26.6541C74.6118 26.7292 74.7256 26.8542 74.7866 27.0063L78.3045 35.8029C78.3316 35.8706 78.3663 35.935 78.4079 35.9949L80.2856 38.7253L77.9932 39.8709L77.2118 37.1355ZM69.375 13.7813C69.3753 13.4991 69.3451 13.2178 69.2852 12.9421L70.3594 13.4306V15.5162L69.1055 18.0251L67.9181 16.8377C68.3732 16.4688 68.7401 16.003 68.9921 15.4742C69.2442 14.9454 69.375 14.367 69.375 13.7813ZM65.3772 11.1653L65.3784 11.2231C65.3735 11.201 65.3699 11.18 65.3637 11.1591L65.3772 11.1653ZM65.4375 13.7813V13.6582C65.7384 13.116 65.9734 12.5397 66.1376 11.9417C66.5679 12.1054 66.9272 12.4147 67.1531 12.8159C67.379 13.217 67.457 13.6847 67.3738 14.1375C67.2906 14.5903 67.0513 14.9996 66.6975 15.2942C66.3437 15.5888 65.8979 15.7501 65.4375 15.75C65.2132 15.7505 64.9904 15.7122 64.7792 15.6368C65.206 15.1127 65.4386 14.4572 65.4375 13.7813ZM58.5469 3.9375C60.0721 3.93902 61.5378 4.52996 62.6376 5.58684C63.7373 6.64371 64.3861 8.08472 64.4482 9.60872C63.9398 9.15459 63.2896 8.89071 62.6085 8.862C61.9274 8.83328 61.2574 9.04152 60.7125 9.45124C60.3458 8.96205 59.8703 8.56494 59.3235 8.29135C58.7768 8.01777 58.1739 7.87522 57.5625 7.875H52.9778C53.3861 6.72413 54.1406 5.72783 55.1377 5.02284C56.1348 4.31786 57.3257 3.93873 58.5469 3.9375ZM52.6406 9.84375H57.5625C58.0844 9.84444 58.5848 10.0521 58.9539 10.4211C59.3229 10.7902 59.5306 11.2906 59.5312 11.8125C59.5312 12.0736 59.635 12.324 59.8196 12.5086C60.0042 12.6932 60.2546 12.7969 60.5156 12.7969C60.7767 12.7969 61.0271 12.6932 61.2117 12.5086C61.3963 12.324 61.5 12.0736 61.5 11.8125C61.5 11.5514 61.6037 11.3011 61.7883 11.1164C61.9729 10.9318 62.2233 10.8281 62.4844 10.8281C62.7454 10.8281 62.9958 10.9318 63.1804 11.1164C63.365 11.3011 63.4688 11.5514 63.4688 11.8125V13.7813C63.4684 14.0422 63.3646 14.2924 63.18 14.4769C62.9955 14.6615 62.7453 14.7653 62.4844 14.7656H61.5V13.7813H59.5312V21.3277L58.5469 22.6406C58.0872 23.2506 57.4924 23.7458 56.8093 24.0874C56.1261 24.4289 55.3732 24.6076 54.6094 24.6094C54.3484 24.609 54.0982 24.5052 53.9137 24.3207C53.7292 24.1361 53.6253 23.886 53.625 23.625V22.1632C54.0925 21.9039 54.5005 21.5495 54.8226 21.1229C55.1447 20.6963 55.3739 20.2069 55.4953 19.6863C55.5285 19.6875 55.5605 19.6875 55.5937 19.6875H57.5625V17.7188H55.5937C54.8108 17.7177 54.0603 17.4062 53.5067 16.8527C52.9531 16.2991 52.6417 15.5485 52.6406 14.7656V9.84375ZM52.6406 18.7007C52.9305 18.9192 53.2438 19.1049 53.5746 19.2544C53.5134 19.5098 53.3984 19.7493 53.2374 19.9568C53.0763 20.1643 52.8729 20.3351 52.6406 20.4578V18.7007ZM47.5354 15.0634C47.6516 12.3896 48.1894 9.75097 49.1289 7.245C49.3528 6.6499 49.7622 6.14267 50.2967 5.79831C50.8312 5.45395 51.4623 5.29075 52.0968 5.33285C51.1676 6.65337 50.6699 8.22909 50.6719 9.84375V20.6719C50.5275 20.6718 50.3848 20.7035 50.254 20.7647C50.1232 20.826 50.0075 20.9153 49.9151 21.0262L48.3857 22.8633C47.9233 23.4185 47.5003 24.0052 47.1195 24.6192L47.5354 15.0634ZM47.5563 37.5232C46.7403 35.28 46.5271 32.862 46.938 30.5106C47.3489 28.1593 48.3695 25.9569 49.8979 24.1234L51.1333 22.6406H51.6562V23.625C51.6573 24.4079 51.9688 25.1584 52.5223 25.712C53.0759 26.2656 53.8265 26.5771 54.6094 26.5781C55.6787 26.5756 56.7329 26.3255 57.6893 25.8473C58.6457 25.3691 59.4783 24.6758 60.1219 23.8219L61.0078 22.6406H62.1632L61.7633 24.0434C60.9795 26.7761 61.1692 29.6963 62.2998 32.3047C61.2453 33.5649 60.6068 35.1208 60.4722 36.7584C60.3376 38.3961 60.7134 40.0353 61.548 41.4508C60.3407 42.6646 58.9054 43.6279 57.3246 44.2852C55.7438 44.9426 54.0487 45.2811 52.3367 45.2812H50.3766L47.5563 37.5232ZM71.1112 59.0625H57.5625V54.8924L58.2885 55.0905C58.4558 55.136 58.6323 55.1365 58.7999 55.092C58.9675 55.0475 59.1205 54.9596 59.2433 54.8371C59.67 54.4093 60.2207 54.1269 60.8171 54.0299C61.4135 53.9329 62.0253 54.0263 62.5656 54.2969L71.2158 58.622C71.2625 58.6455 71.3 58.6842 71.322 58.7316C71.3441 58.7791 71.3496 58.8326 71.3375 58.8835C71.3254 58.9345 71.2965 58.9798 71.2554 59.0123C71.2143 59.0448 71.1635 59.0625 71.1112 59.0625ZM83.2867 59.0625H73.3002C73.3086 58.9853 73.3127 58.9076 73.3125 58.8299C73.3139 58.4208 73.2006 58.0196 72.9855 57.6716C72.7704 57.3236 72.4621 57.0429 72.0956 56.8612L63.4466 52.5361C62.6271 52.1257 61.7079 51.9562 60.7959 52.0475C59.8839 52.1388 59.0166 52.487 58.2946 53.0516L51.8814 51.302C49.1804 50.5629 46.3603 50.3626 43.5819 50.7126L39.7219 51.1949L39.9656 53.1489L43.8268 52.6665C46.3498 52.3486 48.9107 52.5305 51.3634 53.2018L55.5937 54.356V59.0625H47.0285C43.6797 59.0636 40.3527 58.5239 37.1761 57.4641C36.1092 57.1084 35.2036 56.3848 34.6215 55.4225C34.0393 54.4603 33.8185 53.3223 33.9986 52.2122C34.1787 51.1021 34.748 50.0923 35.6045 49.3635C36.461 48.6347 37.5489 48.2344 38.6736 48.2344H49.6875C49.8168 48.2344 49.9448 48.209 50.0642 48.1595C50.1837 48.1101 50.2922 48.0375 50.3836 47.9461C50.475 47.8547 50.5476 47.7462 50.597 47.6267C50.6465 47.5073 50.6719 47.3793 50.6719 47.25H52.3367C56.2308 47.2488 59.9711 45.7299 62.7637 43.0159L62.7723 43.0246C62.8433 43.0946 62.9241 43.1539 63.0122 43.2005L83.6841 54.0286L84.5971 52.2839L81.0017 50.4012L78.5432 41.7978L81.4114 40.3643L88.0462 50.0148C88.6424 50.882 88.9904 51.8957 89.0524 52.9463C89.1145 53.9968 88.8884 55.0444 88.3984 55.9758C87.9085 56.9072 87.1733 57.687 86.2724 58.231C85.3715 58.775 84.3391 59.0625 83.2867 59.0625Z" fill="black"/>
</svg>
