<svg width="125" height="127" viewBox="0 0 125 127" fill="none" xmlns="http://www.w3.org/2000/svg">
<path d="M56.0872 37.3945C47.0468 45.2629 34.0804 35.0108 26.1102 43.9623C12.605 59.1302 40.8904 81.8144 61.191 82.3719C81.8224 82.9384 102.554 64.9117 98.2732 44.7135C94.99 29.2214 79.956 11.3588 66.4406 19.5998C59.5773 23.7847 62.151 32.1168 56.0872 37.3945Z" fill="#FCF43D"/>
<path d="M26.3174 112.084C26.3174 112.622 26.3219 113.064 26.3311 113.41C26.3356 113.52 26.3949 113.59 26.5088 113.622L27.4521 113.909L27.4658 114.203C26.805 114.189 26.2035 114.183 25.6611 114.183C25.1188 114.183 24.5537 114.189 23.9658 114.203L23.9385 113.909L24.7793 113.656C24.8978 113.62 24.9593 113.549 24.9639 113.444C24.973 113.075 24.9775 112.622 24.9775 112.084V106.54C24.9775 106.308 24.9753 106.098 24.9707 105.911C24.9707 105.724 24.9684 105.556 24.9639 105.405C24.9593 105.287 24.9046 105.209 24.7998 105.173L23.9521 104.906L23.9385 104.612C24.5264 104.631 25.0915 104.64 25.6338 104.64H27.2949C28.3158 104.64 29.3936 104.631 30.5283 104.612L30.5693 104.667L30.1729 106.779L29.8994 106.827L29.4756 105.248H26.3174V109.151H26.9736C27.4476 109.151 27.9762 109.147 28.5596 109.138C28.6826 109.133 28.7601 109.074 28.792 108.96L29.0723 108.037L29.4004 108.023C29.3867 108.661 29.3799 109.133 29.3799 109.438C29.3799 109.735 29.3867 110.2 29.4004 110.833L29.0723 110.86L28.7852 109.924C28.7487 109.805 28.6803 109.744 28.5801 109.739C27.9831 109.73 27.4453 109.726 26.9668 109.726H26.3174V112.084ZM30.8975 108.167C31.6585 108.021 32.3809 107.862 33.0645 107.688L33.1328 107.736V108.536C33.9759 107.971 34.8031 107.688 35.6143 107.688L35.6484 107.729C35.5163 108.409 35.3864 109.113 35.2588 109.842L34.9854 109.89C34.8577 109.502 34.7347 109.192 34.6162 108.96C34.4977 108.723 34.3109 108.604 34.0557 108.604C33.8096 108.604 33.502 108.718 33.1328 108.946V111.906C33.1328 112.617 33.1374 113.125 33.1465 113.431C33.151 113.554 33.208 113.631 33.3174 113.663L34.2266 113.923L34.2471 114.203C33.5361 114.189 32.9574 114.183 32.5107 114.183C32.0641 114.183 31.5355 114.189 30.9248 114.203L30.8975 113.923L31.6904 113.69C31.7998 113.654 31.8568 113.583 31.8613 113.479C31.8659 113.283 31.8682 113.002 31.8682 112.638V110.307C31.8682 109.564 31.859 109.01 31.8408 108.646L30.9316 108.399L30.8975 108.167ZM41.835 113.697C41.4476 113.939 41.0488 114.112 40.6387 114.217C40.2285 114.322 39.848 114.374 39.4971 114.374C38.4945 114.374 37.6947 114.089 37.0977 113.52C36.5007 112.945 36.2021 112.15 36.2021 111.134C36.2021 110.122 36.487 109.295 37.0566 108.652C37.6309 108.01 38.3965 107.688 39.3535 107.688C40.1556 107.688 40.7799 107.93 41.2266 108.413C41.6732 108.892 41.8965 109.555 41.8965 110.402C41.8965 110.53 41.8896 110.66 41.876 110.792H37.542C37.542 111.772 37.7721 112.474 38.2324 112.897C38.6927 113.317 39.4128 113.526 40.3926 113.526C40.8301 113.526 41.2972 113.485 41.7939 113.403L41.835 113.697ZM40.5361 110.225V110.02C40.5361 109.372 40.4313 108.91 40.2217 108.632C40.0166 108.354 39.709 108.215 39.2988 108.215C38.7565 108.215 38.3418 108.411 38.0547 108.803C37.7676 109.195 37.6058 109.669 37.5693 110.225H40.5361ZM48.5479 113.697C48.1605 113.939 47.7617 114.112 47.3516 114.217C46.9414 114.322 46.5609 114.374 46.21 114.374C45.2074 114.374 44.4076 114.089 43.8105 113.52C43.2135 112.945 42.915 112.15 42.915 111.134C42.915 110.122 43.1999 109.295 43.7695 108.652C44.3438 108.01 45.1094 107.688 46.0664 107.688C46.8685 107.688 47.4928 107.93 47.9395 108.413C48.3861 108.892 48.6094 109.555 48.6094 110.402C48.6094 110.53 48.6025 110.66 48.5889 110.792H44.2549C44.2549 111.772 44.485 112.474 44.9453 112.897C45.4056 113.317 46.1257 113.526 47.1055 113.526C47.543 113.526 48.0101 113.485 48.5068 113.403L48.5479 113.697ZM47.249 110.225V110.02C47.249 109.372 47.1442 108.91 46.9346 108.632C46.7295 108.354 46.4219 108.215 46.0117 108.215C45.4694 108.215 45.0547 108.411 44.7676 108.803C44.4805 109.195 44.3187 109.669 44.2822 110.225H47.249ZM61.6318 114.237L59.2324 106.957L56.7236 114.183L56.0332 114.237L53.2988 105.843C53.2259 105.629 53.1416 105.465 53.0459 105.351C52.9548 105.232 52.8249 105.148 52.6562 105.098L52.0342 104.906L52.0205 104.612C52.4671 104.631 52.9958 104.64 53.6064 104.64C54.1579 104.64 54.7822 104.631 55.4795 104.612L55.5068 104.906L54.8643 105.091C54.7686 105.114 54.7002 105.148 54.6592 105.193C54.6182 105.239 54.5977 105.305 54.5977 105.392C54.5977 105.483 54.6182 105.604 54.6592 105.754C54.7048 105.9 54.764 106.093 54.8369 106.335L56.6895 112.207L59.2256 104.626L59.8408 104.578L62.3086 112.275L64.2363 106.342C64.3184 106.082 64.3822 105.875 64.4277 105.72C64.4733 105.565 64.4961 105.446 64.4961 105.364C64.4961 105.282 64.4756 105.223 64.4346 105.187C64.3936 105.15 64.3275 105.12 64.2363 105.098L63.5938 104.927L63.5801 104.612C64.0723 104.631 64.5713 104.64 65.0771 104.64C65.5693 104.64 66.0479 104.631 66.5127 104.612L66.54 104.906L65.8496 105.125C65.7129 105.166 65.6035 105.23 65.5215 105.316C65.444 105.403 65.3665 105.553 65.2891 105.768L62.3223 114.183L61.6318 114.237ZM71.5029 113.697C71.1156 113.939 70.7168 114.112 70.3066 114.217C69.8965 114.322 69.516 114.374 69.165 114.374C68.1624 114.374 67.3626 114.089 66.7656 113.52C66.1686 112.945 65.8701 112.15 65.8701 111.134C65.8701 110.122 66.1549 109.295 66.7246 108.652C67.2988 108.01 68.0645 107.688 69.0215 107.688C69.8236 107.688 70.4479 107.93 70.8945 108.413C71.3411 108.892 71.5645 109.555 71.5645 110.402C71.5645 110.53 71.5576 110.66 71.5439 110.792H67.21C67.21 111.772 67.4401 112.474 67.9004 112.897C68.3607 113.317 69.0807 113.526 70.0605 113.526C70.498 113.526 70.9652 113.485 71.4619 113.403L71.5029 113.697ZM70.2041 110.225V110.02C70.2041 109.372 70.0993 108.91 69.8896 108.632C69.6846 108.354 69.377 108.215 68.9668 108.215C68.4245 108.215 68.0098 108.411 67.7227 108.803C67.4355 109.195 67.2738 109.669 67.2373 110.225H70.2041ZM74.7568 105.269C74.7568 105.51 74.6816 105.708 74.5312 105.863C74.3809 106.014 74.1872 106.089 73.9502 106.089C73.7223 106.089 73.5355 106.018 73.3896 105.877C73.2484 105.736 73.1777 105.549 73.1777 105.316C73.1777 105.07 73.2529 104.877 73.4033 104.735C73.5537 104.59 73.752 104.517 73.998 104.517C74.2214 104.517 74.4036 104.583 74.5449 104.715C74.6862 104.842 74.7568 105.027 74.7568 105.269ZM72.4463 108.167C73.2438 108.017 73.9821 107.857 74.6611 107.688L74.7227 107.736C74.6953 108.329 74.6816 108.98 74.6816 109.691V112.316C74.6816 112.863 74.6862 113.242 74.6953 113.451C74.7044 113.574 74.7614 113.654 74.8662 113.69L75.6592 113.923L75.6729 114.203C75.0439 114.189 74.5062 114.183 74.0596 114.183C73.613 114.183 73.082 114.189 72.4668 114.203L72.4395 113.923L73.2324 113.69C73.3372 113.654 73.3942 113.583 73.4033 113.479C73.4124 113.301 73.417 113.002 73.417 112.583V110.3C73.417 109.703 73.4079 109.151 73.3896 108.646L72.4805 108.399L72.4463 108.167ZM77.9766 109.938C77.9766 110.53 78.0951 110.988 78.332 111.312C78.5736 111.635 78.9222 111.797 79.3779 111.797C79.8154 111.797 80.1436 111.646 80.3623 111.346C80.5856 111.04 80.6973 110.596 80.6973 110.013C80.6973 109.452 80.5788 109.01 80.3418 108.687C80.1094 108.363 79.7607 108.201 79.2959 108.201C78.8584 108.201 78.528 108.349 78.3047 108.646C78.0859 108.942 77.9766 109.372 77.9766 109.938ZM77.8877 114.456C77.5778 114.921 77.4229 115.349 77.4229 115.741C77.4229 116.142 77.5846 116.454 77.9082 116.678C78.2318 116.901 78.6715 117.013 79.2275 117.013C79.8883 117.013 80.4671 116.865 80.9639 116.568C81.4606 116.277 81.709 115.867 81.709 115.338C81.709 115.051 81.5859 114.827 81.3398 114.668C81.0983 114.513 80.6403 114.436 79.9658 114.436C79.7243 114.436 79.46 114.442 79.1729 114.456C78.8903 114.47 78.6169 114.477 78.3525 114.477C78.2067 114.477 78.0518 114.47 77.8877 114.456ZM81.4561 108.55C81.7979 108.928 81.9688 109.379 81.9688 109.903C81.9688 110.637 81.7135 111.223 81.2031 111.66C80.6927 112.093 80.0524 112.31 79.2822 112.31C78.8447 112.31 78.4528 112.241 78.1064 112.104C77.8604 112.501 77.7373 112.813 77.7373 113.041C77.7373 113.164 77.7988 113.248 77.9219 113.294C78.0495 113.335 78.2819 113.355 78.6191 113.355C78.8743 113.355 79.1729 113.349 79.5146 113.335C79.8564 113.321 80.1755 113.314 80.4717 113.314C81.1963 113.314 81.7682 113.453 82.1875 113.731C82.6113 114.005 82.8232 114.413 82.8232 114.955C82.8232 115.775 82.4359 116.423 81.6611 116.896C80.891 117.37 80.0137 117.607 79.0293 117.607C78.2227 117.607 77.5778 117.471 77.0947 117.197C76.6162 116.928 76.377 116.577 76.377 116.145C76.377 115.62 76.7484 115.033 77.4912 114.381C77.0218 114.203 76.7871 113.966 76.7871 113.67C76.7871 113.255 77.113 112.676 77.7646 111.934C77.0537 111.501 76.6982 110.874 76.6982 110.054C76.6982 109.343 76.9489 108.771 77.4502 108.338C77.9561 107.905 78.6077 107.688 79.4053 107.688C79.6149 107.688 79.8997 107.716 80.2598 107.771C80.6016 107.834 80.8682 107.866 81.0596 107.866C81.7477 107.866 82.3812 107.859 82.96 107.846L82.9941 108.126L81.4561 108.55ZM83.3359 104.366C84.0788 104.22 84.8216 104.059 85.5645 103.881L85.626 103.936C85.6032 104.364 85.5895 104.975 85.585 105.768C85.585 106.561 85.585 107.456 85.585 108.454C86.3779 107.944 87.1162 107.688 87.7998 107.688C88.4333 107.688 88.9368 107.866 89.3105 108.222C89.6842 108.573 89.8711 109.09 89.8711 109.773V112.187C89.8711 112.711 89.8757 113.132 89.8848 113.451C89.8893 113.57 89.9463 113.649 90.0557 113.69L90.8213 113.923L90.835 114.203C90.2334 114.189 89.7093 114.183 89.2627 114.183C88.8161 114.183 88.3193 114.189 87.7725 114.203L87.7451 113.923L88.4219 113.725C88.5312 113.688 88.5905 113.618 88.5996 113.513C88.6042 113.449 88.6064 113.305 88.6064 113.082V110.102C88.6064 109.541 88.472 109.14 88.2031 108.898C87.9342 108.652 87.5378 108.529 87.0137 108.529C86.5625 108.529 86.0863 108.639 85.585 108.857V111.927C85.585 112.492 85.5895 113.009 85.5986 113.479C85.6032 113.606 85.6602 113.686 85.7695 113.718L86.4805 113.923L86.4941 114.203C85.9199 114.189 85.4095 114.183 84.9629 114.183C84.5163 114.183 83.9876 114.189 83.377 114.203L83.3496 113.923L84.1221 113.697C84.2406 113.661 84.3021 113.588 84.3066 113.479C84.3158 113.041 84.3203 112.483 84.3203 111.804V108.946C84.3203 108.017 84.318 107.194 84.3135 106.479C84.3135 105.763 84.3066 105.225 84.293 104.865L83.3701 104.592L83.3359 104.366ZM93.5557 108.591C93.5283 110.131 93.5146 111.373 93.5146 112.316C93.5146 112.79 93.5853 113.118 93.7266 113.301C93.8678 113.479 94.1367 113.567 94.5332 113.567C94.8477 113.567 95.2578 113.526 95.7637 113.444L95.8047 113.752C95.0163 114.148 94.3122 114.347 93.6924 114.347C93.1956 114.347 92.8265 114.215 92.585 113.95C92.3434 113.681 92.2227 113.278 92.2227 112.74C92.2227 111.856 92.2386 110.459 92.2705 108.55L91.3271 108.317L91.2861 108.037L92.3389 107.948L92.8105 106.294C93.0658 106.226 93.2982 106.16 93.5078 106.096L93.5762 106.144C93.5625 106.695 93.5557 107.21 93.5557 107.688V107.941H95.6133V108.591H93.5557ZM99.9609 108.379C99.6966 108.306 99.4095 108.27 99.0996 108.27C98.6712 108.27 98.3249 108.354 98.0605 108.522C97.8008 108.687 97.6709 108.912 97.6709 109.199C97.6709 109.477 97.7552 109.696 97.9238 109.855C98.097 110.015 98.416 110.172 98.8809 110.327L99.4414 110.519C100.07 110.733 100.531 110.979 100.822 111.257C101.118 111.53 101.267 111.89 101.267 112.337C101.267 112.97 101.021 113.469 100.528 113.834C100.036 114.194 99.4141 114.374 98.6621 114.374C97.9694 114.374 97.2607 114.233 96.5361 113.95C96.6911 113.358 96.8164 112.779 96.9121 112.214L97.1787 112.173L97.6709 113.643C97.9307 113.743 98.2611 113.793 98.6621 113.793C99.0859 113.793 99.4232 113.706 99.6738 113.533C99.929 113.36 100.057 113.116 100.057 112.802C100.057 112.51 99.9701 112.28 99.7969 112.111C99.6283 111.943 99.3571 111.797 98.9834 111.674L98.2725 111.435C97.6572 111.229 97.2311 110.983 96.9941 110.696C96.7617 110.405 96.6455 110.045 96.6455 109.616C96.6455 109.019 96.8711 108.55 97.3223 108.208C97.778 107.862 98.3773 107.688 99.1201 107.688C99.8128 107.688 100.442 107.789 101.007 107.989C100.879 108.509 100.763 109.058 100.658 109.637L100.398 109.685L99.9609 108.379Z" fill="white"/>
<path d="M28.625 10.625V12.6756V12.75H24.375V8.5H28.625V10.625Z" fill="#AAB2BD"/>
<path d="M45.625 8.5V12.75H41.3431C41.3644 12.5694 41.375 12.3887 41.375 12.2081V8.5H45.625Z" fill="#AAB2BD"/>
<path d="M24.375 12.75V18.0625C24.375 18.6469 23.8969 19.125 23.3125 19.125H21.1875C20.6031 19.125 20.125 18.6469 20.125 18.0625V3.1875C20.125 2.60312 20.6031 2.125 21.1875 2.125H23.3125C23.8969 2.125 24.375 2.60312 24.375 3.1875V8.5V12.75Z" fill="#969FAA"/>
<path d="M49.875 3.1875V18.0625C49.875 18.6469 49.3969 19.125 48.8125 19.125H46.6875C46.1031 19.125 45.625 18.6469 45.625 18.0625V12.75V8.5V3.1875C45.625 2.60312 46.1031 2.125 46.6875 2.125H48.8125C49.3969 2.125 49.875 2.60312 49.875 3.1875Z" fill="#969FAA"/>
<path d="M55.9419 59.6594C54.8262 60.2119 54.125 61.3487 54.125 62.5919V55.0906C54.125 53.1037 53.6575 51.1381 52.765 49.3531L51.4794 45.8681C51.1181 44.4762 50.9375 43.0312 50.9375 41.5862C50.9375 39.3869 51.3625 37.1981 52.1806 35.1475C52.425 34.5206 52.85 33.9894 53.3706 33.6281C53.955 33.1819 54.6775 32.9375 55.4425 32.9375H56.25V35.2112C56.25 36.3375 56.7069 37.3681 57.4506 38.1119C58.1944 38.8556 59.225 39.3125 60.3513 39.3125C61.7644 39.3125 63.0819 38.5794 63.8256 37.3894L66.3756 33.3094C66.8325 32.5763 67.4488 31.9919 68.1713 31.5669C68.2138 31.535 68.2669 31.5031 68.3094 31.4819C69.085 31.0462 69.9669 30.8125 70.8806 30.8125C72.4319 30.8125 73.9513 31.2375 75.2794 32.0344C76.2038 32.5869 77.0431 33.2456 77.7975 34H76.0231C72.9631 34 70.105 35.53 68.4156 38.0694C67.4063 39.5781 66.875 41.3419 66.875 43.1481C66.875 44.5931 67.2575 45.985 67.9481 47.2069C68.6388 48.4288 69.6375 49.47 70.8806 50.2137L72.1875 51L64.75 57.375L61.9769 56.4506C61.7006 56.355 61.4138 56.3125 61.1163 56.3125C60.0856 56.3125 59.1506 56.8969 58.6831 57.8212L58.375 58.4375L55.9419 59.6594Z" fill="#4FC1E9"/>
<path d="M77.5 15.7463C77.5 18.3175 76.6394 20.7188 75.1625 22.6525C73.6856 24.5863 71.5925 26.0525 69.1169 26.7219L65.8125 27.625V23.375L68.3413 20.8463C68.7663 20.4213 69 19.8475 69 19.2525C69 18.0094 67.9906 17 66.7475 17H65.8125V16.575C65.8125 14.2906 64.3463 12.2612 62.1788 11.5387L60.0856 10.8375C61.7962 8.06437 64.8137 6.375 68.0862 6.375H68.1287C73.3031 6.375 77.5 10.5719 77.5 15.7463Z" fill="#B27946"/>
<path d="M37.125 8.5V10.625C37.125 11.7937 36.1687 12.75 35 12.75H30.75C29.5812 12.75 28.625 11.7937 28.625 10.625V8.5C28.625 7.33125 29.5812 6.375 30.75 6.375H35C36.1687 6.375 37.125 7.33125 37.125 8.5Z" fill="#F0D0B4"/>
<path d="M82.7806 48.3012C83.4925 49.3637 83.875 50.6281 83.875 51.9031C83.875 54.5487 82.2069 56.8969 79.7206 57.7788L65.8125 62.6875L61.2544 64.9719C60.0537 65.5669 58.7469 65.875 57.4081 65.875C56.505 65.875 55.6763 65.5137 55.0813 64.9187C54.4863 64.3237 54.125 63.495 54.125 62.5919C54.125 61.3487 54.8262 60.2119 55.9419 59.6594L58.375 58.4375L58.6831 57.8212C59.1506 56.8969 60.0856 56.3125 61.1163 56.3125C61.4138 56.3125 61.7006 56.355 61.9769 56.4506L64.75 57.375L72.1875 51L70.8806 50.2137C69.6375 49.47 68.6387 48.4288 67.9481 47.2069C67.2575 45.985 66.875 44.5931 66.875 43.1481C66.875 41.3419 67.4063 39.5781 68.4156 38.0694C70.105 35.53 72.9631 34 76.0231 34H77.7975C78.7962 34.9881 79.6356 36.1463 80.2731 37.4213C81.24 39.3656 81.75 41.5013 81.75 43.6794V46.75L82.7806 48.3012Z" fill="#F0D0B4"/>
<path d="M52.7225 33.2987L53.36 33.6175L53.3706 33.6281C52.85 33.9894 52.425 34.5206 52.1806 35.1475C51.3625 37.1981 50.9375 39.3869 50.9375 41.5863C50.9375 43.0312 51.1181 44.4762 51.4794 45.8681H51.4687L50.045 46.3356C49.2269 46.6119 48.3769 46.75 47.5056 46.75C46.0819 46.75 44.7112 46.3675 43.5106 45.6662L43.5 45.6875L37.5712 45.1881C33.7144 44.8694 30.75 41.65 30.75 37.7825V17L30.1762 16.4263C29.2094 15.4594 28.6462 14.1313 28.625 12.75C28.625 12.7288 28.625 12.6969 28.625 12.6756V10.625C28.625 11.7937 29.5812 12.75 30.75 12.75H35C36.1687 12.75 37.125 11.7937 37.125 10.625V8.5V7.4375C37.125 5.67375 38.5487 4.25 40.3125 4.25C40.8969 4.25 41.375 4.72812 41.375 5.3125V8.5V12.2081C41.375 12.3888 41.3644 12.5694 41.3431 12.75C41.2581 13.6 40.9606 14.4288 40.4825 15.1512L39.25 17V31.62C39.25 32.3744 39.335 33.1287 39.505 33.8725L40.6525 33.2987C42.5225 32.3638 44.5944 31.875 46.6875 31.875C48.7806 31.875 50.8525 32.3638 52.7225 33.2987Z" fill="#F0D0B4"/>
<path d="M68.1713 31.5669C67.4488 31.9919 66.8325 32.5763 66.3756 33.3094L63.8256 37.3894C63.0819 38.5794 61.7644 39.3125 60.3513 39.3125C59.225 39.3125 58.1944 38.8556 57.4506 38.1119C56.7069 37.3681 56.25 36.3375 56.25 35.2113V32.9375L57.9394 31.2481C58.8956 30.2919 59.4375 28.985 59.4375 27.625V27.6144C56.4838 27.5294 54.125 25.1175 54.125 22.1425C54.125 21.5475 54.2206 20.9631 54.4012 20.4106L55.1875 18.0625L54.6456 17.5206C54.3163 17.1913 54.125 16.7344 54.125 16.2669C54.125 15.4488 54.6775 14.7369 55.4744 14.535L56.6113 14.2481C57.7375 13.9719 58.7044 13.2388 59.2781 12.24L59.9156 11.1138C59.9688 11.0181 60.0219 10.9331 60.0856 10.8375L62.1788 11.5388C64.3463 12.2613 65.8125 14.2906 65.8125 16.575V17H66.7475C67.9906 17 69 18.0094 69 19.2525C69 19.8475 68.7663 20.4213 68.3413 20.8463L65.8125 23.375V27.625V27.7525C65.8125 29.3782 66.7369 30.8444 68.1713 31.5563V31.5669Z" fill="#F0D0B4"/>
<path d="M83.6667 47.7084L82.8125 46.4281V43.6751C82.8125 41.3514 82.2632 39.0256 81.2251 36.9474C80.0139 34.5281 78.1481 32.5114 75.8276 31.1196C74.3327 30.2228 72.6231 29.75 70.8817 29.75C69.9382 29.75 69.0361 29.9646 68.2127 30.3429C67.5592 29.8796 67.1151 29.1943 66.9515 28.4155L69.391 27.7504C74.7906 26.2767 78.5625 21.3403 78.5625 15.7431C78.5625 9.99175 73.8832 5.3125 68.0873 5.3125C64.3377 5.3125 60.8528 7.33444 58.9923 10.5899L58.3516 11.7109C57.9234 12.4621 57.1956 13.0124 56.3573 13.2218L55.213 13.5086C53.9476 13.8242 53.0625 14.9579 53.0625 16.2637C53.0625 17.0223 53.3579 17.7363 53.8944 18.2729L53.9709 18.3504L53.3972 20.0706C53.1751 20.7411 53.0625 21.437 53.0625 22.1404C53.0625 25.2864 55.2938 27.9204 58.2571 28.5451C58.0849 29.2782 57.7205 29.9646 57.1839 30.5012L55.8101 31.875H55.4425C54.6796 31.875 53.9561 32.0684 53.3133 32.4062L53.2017 32.3499C49.2375 30.3673 44.3415 30.3492 40.3507 32.2745C40.3348 32.0577 40.3125 31.841 40.3125 31.6243V17.3219L41.3665 15.7409C41.7628 15.147 42.0401 14.4936 42.2186 13.8136H44.5625V18.0636C44.5625 19.2355 45.5156 20.1886 46.6875 20.1886H48.8125C49.9844 20.1886 50.9375 19.2355 50.9375 18.0636V3.1875C50.9375 2.01556 49.9844 1.0625 48.8125 1.0625H46.6875C45.5156 1.0625 44.5625 2.01556 44.5625 3.1875V7.4375H42.4375V5.3125C42.4375 4.14056 41.4844 3.1875 40.3125 3.1875C38.6029 3.1875 37.125 4.20219 36.4514 5.66206C36.0157 5.43894 35.5217 5.3125 35 5.3125H30.75C29.3666 5.3125 28.1979 6.20394 27.758 7.4375H25.4375V3.1875C25.4375 2.01556 24.4844 1.0625 23.3125 1.0625H21.1875C20.0156 1.0625 19.0625 2.01556 19.0625 3.1875V18.0625C19.0625 19.2344 20.0156 20.1875 21.1875 20.1875H23.3125C24.4844 20.1875 25.4375 19.2344 25.4375 18.0625V13.8125H27.6677C27.8951 15.0822 28.4986 16.2509 29.4304 17.1828L29.6875 17.4399V37.7814C29.6875 42.1674 33.1119 45.8883 37.482 46.2528L43.2471 46.733C44.5476 47.4247 46.0086 47.8125 47.5099 47.8125C48.4884 47.8125 49.4553 47.6563 50.3818 47.3471L50.7643 47.2196C51.0501 48.1132 51.3976 48.9876 51.8172 49.827C52.6332 51.4526 53.0625 53.2738 53.0625 55.0949V62.5929C53.0625 64.9889 55.0122 66.9386 57.4081 66.9386C58.9009 66.9386 60.3959 66.5858 61.7272 65.9186L66.2279 63.6682L80.0744 58.7817C82.9836 57.7533 84.9375 54.9918 84.9375 51.9074C84.9375 50.4071 84.4976 48.9547 83.6667 47.7084ZM46.6875 3.1875H48.8125L48.8146 18.0625H46.6875V3.1875ZM44.5625 9.5625V11.6875H42.4375V9.5625H44.5625ZM68.1319 7.4375C72.7113 7.4375 76.4375 11.1637 76.4375 15.7431C76.4375 20.3841 73.3106 24.4789 68.8332 25.6997L66.875 26.2342V23.8149L69.0914 21.5985C69.7087 20.9812 70.0625 20.1269 70.0625 19.2536C70.0625 17.4579 68.6271 15.9906 66.8431 15.9386C66.5956 13.4587 64.9189 11.3326 62.5166 10.5315L61.8196 10.2988C63.3879 8.51169 65.6691 7.4375 68.1319 7.4375ZM57.3125 33.3774L58.6863 32.0036C59.5863 31.1036 60.1813 29.9328 60.4012 28.6875H62.625V26.5625H59.6096C57.1712 26.5625 55.1875 24.5788 55.1875 22.1404C55.1875 21.6654 55.264 21.1937 55.4138 20.7421L56.4041 17.7756L55.3979 16.7705C55.264 16.6356 55.1875 16.4517 55.1875 16.2637C55.1875 15.9343 55.4106 15.6485 55.7294 15.5699L56.8726 15.283C58.2709 14.9345 59.4821 14.0165 60.1972 12.7649L60.5648 12.121L61.8441 12.5471C63.5812 13.1261 64.75 14.7464 64.75 16.5793V18.0625H66.7464C67.4031 18.0625 67.9375 18.5969 67.9375 19.2536C67.9375 19.567 67.8111 19.8741 67.589 20.0961L64.75 22.9351V27.7493C64.75 29.2379 65.362 30.6117 66.4022 31.5956C66.0569 31.9387 65.7424 32.3191 65.4767 32.7452L62.9289 36.822C62.37 37.7156 61.4074 38.25 60.3512 38.25C58.6757 38.25 57.3125 36.8868 57.3125 35.2113V33.3774ZM29.6875 8.5C29.6875 7.9135 30.1635 7.4375 30.75 7.4375H35C35.5865 7.4375 36.0625 7.9135 36.0625 8.5V10.625C36.0625 11.2115 35.5865 11.6875 35 11.6875H30.75C30.1635 11.6875 29.6875 11.2115 29.6875 10.625V8.5ZM21.1875 18.0625V3.1875H23.3125L23.3146 18.0625H21.1875ZM25.4375 9.5625H27.5625V10.625V11.6875H25.4375V9.5625ZM49.7114 45.3305C49.0006 45.5674 48.26 45.6875 47.5099 45.6875C45.3318 45.6875 43.2503 44.6473 41.9434 42.9048L41.1625 41.8625L39.4625 43.1375L40.2434 44.1798C40.2923 44.2446 40.3486 44.3009 40.3996 44.3636L37.6584 44.1352C34.3806 43.8611 31.8125 41.0699 31.8125 37.7814V16.5601L30.9327 15.6804C30.3675 15.1151 29.9924 14.4149 29.8139 13.6563C30.1114 13.7487 30.4217 13.8125 30.75 13.8125H35C36.7574 13.8125 38.1875 12.3824 38.1875 10.625V7.4375C38.1875 6.26556 39.1406 5.3125 40.3125 5.3125V12.2039C40.3125 13.0464 40.066 13.8614 39.5985 14.5616L38.1875 16.6781V31.6232C38.1875 33.3402 38.5934 35.0604 39.3616 36.5999L41.2624 35.649C41.0658 35.2559 40.9096 34.8436 40.7726 34.425L41.1232 34.2497C44.3479 32.6368 48.2908 32.5582 51.6026 33.9745C51.4454 34.2189 51.3019 34.4749 51.1904 34.7523C50.3181 36.9378 49.875 39.2392 49.875 41.5916C49.875 42.7879 50.0004 43.9832 50.2331 45.1573L49.7114 45.3305ZM52 41.5916C52 39.5101 52.3921 37.4754 53.1656 35.5438C53.5077 34.6885 54.2886 34.1339 55.1875 34.0393V35.2123C55.1875 38.0598 57.5048 40.3761 60.3512 40.3761C62.1448 40.3761 63.7821 39.4687 64.7298 37.9493L67.2766 33.8736C68.0586 32.623 69.4059 31.8761 70.8817 31.8761C72.2374 31.8761 73.5687 32.2458 74.7332 32.9428C74.7683 32.9641 74.8034 32.9853 74.8384 33.0066C71.8783 33.3487 69.2029 34.969 67.5263 37.4839C66.4054 39.1648 65.8125 41.1219 65.8125 43.1428C65.8125 46.3951 67.5444 49.4519 70.3324 51.1254L70.377 51.1519L64.5152 56.1765L62.3201 55.4455C61.9344 55.3159 61.5306 55.25 61.1205 55.25C59.6776 55.25 58.3792 56.0522 57.7343 57.3421L57.5824 57.6459L55.4637 58.7042C55.3671 58.7531 55.2789 58.8126 55.1864 58.8678V55.0949C55.1864 52.9465 54.6786 50.7949 53.7181 48.8761C52.595 46.6268 52 44.1076 52 41.5916ZM79.3679 56.7768L65.4587 61.6856L60.7762 64.0167C59.7371 64.5373 58.5737 64.8125 57.4081 64.8125C56.1841 64.8125 55.1875 63.8169 55.1875 62.5919C55.1875 61.7451 55.6571 60.9832 56.4147 60.605L59.1666 59.2301L59.6351 58.293C59.9188 57.7267 60.4873 57.375 61.1205 57.375C61.3001 57.375 61.4764 57.4026 61.6454 57.46L64.9848 58.5735L73.998 50.8481L71.4257 49.3042C69.2741 48.0122 67.9375 45.6524 67.9375 43.1428C67.9375 41.5427 68.4061 39.9925 69.2943 38.6601C70.7967 36.4076 73.3106 35.0625 76.0178 35.0625H77.3555C78.1386 35.904 78.8026 36.856 79.3243 37.8983C80.2168 39.6833 80.6875 41.6808 80.6875 43.6762V47.0719L81.8988 48.8878C82.4969 49.7845 82.8125 50.8289 82.8125 51.9084C82.8125 54.0929 81.4281 56.049 79.3679 56.7768Z" fill="black"/>
</svg>
