<svg width="125" height="126" viewBox="0 0 125 126" fill="none" xmlns="http://www.w3.org/2000/svg">
<path d="M55.9431 42.3944C46.9027 50.2628 33.9364 40.0108 25.9662 48.9622C12.4609 64.1302 40.7464 86.8144 61.047 87.3718C81.6783 87.9383 102.41 69.9117 98.1292 49.7134C94.846 34.2213 79.812 16.3588 66.2966 24.5997C59.4332 28.7846 62.007 37.1167 55.9431 42.3944Z" fill="#FCF43D"/>
<path d="M41.7393 113.203L41.7119 112.909L46.9824 104.248H42.9492L42.4434 105.889L42.1699 105.937L41.8145 103.667L41.8623 103.612C42.9971 103.631 44.0749 103.64 45.0957 103.64H46.709C47.3561 103.64 48.0078 103.631 48.6641 103.612L48.6914 103.906L43.4346 112.567H47.5977L48.5137 110.722L48.8213 110.674L48.6367 113.155L48.5957 113.203C47.3151 113.189 46.1758 113.183 45.1777 113.183H43.5303C42.8923 113.183 42.2952 113.189 41.7393 113.203ZM54.5635 112.581C53.8525 113.11 53.1416 113.374 52.4307 113.374C51.7152 113.374 51.1774 113.192 50.8174 112.827C50.4619 112.463 50.2842 111.95 50.2842 111.289V109.84C50.2842 108.865 50.2751 108.133 50.2568 107.646L49.3477 107.399L49.3135 107.167C50.111 107.021 50.8493 106.862 51.5283 106.688L51.5898 106.736C51.5625 107.27 51.5488 107.955 51.5488 108.794V110.968C51.5488 111.519 51.6787 111.92 51.9385 112.171C52.1982 112.417 52.5651 112.54 53.0391 112.54C53.513 112.54 53.9984 112.415 54.4951 112.164V109.252C54.4951 108.614 54.486 108.078 54.4678 107.646L53.5654 107.399L53.5312 107.167C54.3242 107.021 55.0602 106.862 55.7393 106.688L55.8008 106.736C55.7734 107.283 55.7598 107.983 55.7598 108.835C55.7598 110.489 55.7643 111.499 55.7734 111.863C55.778 112.05 55.7917 112.201 55.8145 112.314C55.8372 112.428 55.8805 112.517 55.9443 112.581C56.0081 112.64 56.1016 112.684 56.2246 112.711C56.3522 112.734 56.5208 112.747 56.7305 112.752L56.7646 113.019C56.555 113.101 56.3135 113.178 56.04 113.251C55.7666 113.328 55.5798 113.367 55.4795 113.367C55.0192 113.367 54.7139 113.105 54.5635 112.581ZM63.7646 108.021C63.8285 108.24 63.8604 108.486 63.8604 108.76V111.2C63.8604 111.733 63.8649 112.162 63.874 112.485C63.8831 112.608 63.9424 112.688 64.0518 112.725L64.7422 112.923L64.7559 113.203C64.1999 113.189 63.6986 113.183 63.252 113.183C62.8053 113.183 62.3086 113.189 61.7617 113.203L61.7344 112.923L62.3838 112.731C62.516 112.686 62.5843 112.613 62.5889 112.513C62.5934 112.449 62.5957 112.305 62.5957 112.082V109.102C62.5957 108.541 62.4681 108.14 62.2129 107.898C61.9577 107.652 61.5794 107.529 61.0781 107.529C60.6361 107.529 60.1849 107.661 59.7246 107.926V110.913C59.7246 111.483 59.7292 112.005 59.7383 112.479C59.7428 112.615 59.7907 112.693 59.8818 112.711L60.6064 112.923L60.6201 113.203C60.055 113.189 59.5492 113.183 59.1025 113.183C58.6559 113.183 58.1273 113.189 57.5166 113.203L57.4893 112.923L58.2754 112.69C58.3893 112.659 58.4486 112.588 58.4531 112.479C58.4577 112.237 58.46 111.957 58.46 111.638V109.307C58.46 108.71 58.4508 108.156 58.4326 107.646L57.5234 107.399L57.4893 107.167C58.2412 107.021 58.9613 106.862 59.6494 106.688L59.7178 106.736V107.529C60.4652 106.969 61.1738 106.688 61.8438 106.688C62.6641 106.688 63.2565 107.005 63.6211 107.639C64.3411 107.005 65.1227 106.688 65.9658 106.688C66.5993 106.688 67.0938 106.868 67.4492 107.229C67.8092 107.584 67.9893 108.094 67.9893 108.76V111.18C67.9893 111.754 67.9938 112.178 68.0029 112.451C68.012 112.574 68.0736 112.654 68.1875 112.69L68.9463 112.923L68.96 113.203C68.3584 113.189 67.8343 113.183 67.3877 113.183C66.9365 113.183 66.4398 113.189 65.8975 113.203L65.8701 112.923L66.5469 112.725C66.6517 112.688 66.7109 112.618 66.7246 112.513C66.7292 112.449 66.7314 112.305 66.7314 112.082V109.102C66.7314 108.541 66.6016 108.14 66.3418 107.898C66.082 107.652 65.6992 107.529 65.1934 107.529C64.6829 107.529 64.2067 107.693 63.7646 108.021ZM71.6807 112.602C72.0498 112.72 72.4235 112.779 72.8018 112.779C73.5674 112.779 74.1416 112.545 74.5244 112.075C74.9118 111.606 75.1055 110.934 75.1055 110.059C75.1055 109.257 74.9277 108.632 74.5723 108.186C74.2168 107.739 73.6904 107.516 72.9932 107.516C72.5465 107.516 72.109 107.616 71.6807 107.816V112.602ZM71.7217 102.936C71.6943 103.619 71.6807 104.647 71.6807 106.019V107.406C72.4144 106.928 73.0866 106.688 73.6973 106.688C74.554 106.688 75.2308 106.976 75.7275 107.55C76.2243 108.124 76.4727 108.874 76.4727 109.799C76.4727 110.924 76.1514 111.802 75.5088 112.431C74.8708 113.055 73.9844 113.367 72.8496 113.367C72.0931 113.367 71.2773 113.237 70.4023 112.978C70.4115 112.399 70.416 111.654 70.416 110.742V106.688C70.416 105.681 70.4069 104.74 70.3887 103.865L69.4658 103.592L69.4316 103.366C70.179 103.225 70.9196 103.063 71.6533 102.881L71.7217 102.936ZM81.2441 110.086C80.2461 110.086 79.5648 110.184 79.2002 110.38C78.8356 110.576 78.6533 110.906 78.6533 111.371C78.6533 111.804 78.7741 112.112 79.0156 112.294C79.2572 112.472 79.5853 112.561 80 112.561C80.4694 112.561 80.8796 112.481 81.2305 112.321L81.2441 110.086ZM77.9287 107.27C78.8174 106.882 79.6035 106.688 80.2871 106.688C80.9844 106.688 81.5267 106.871 81.9141 107.235C82.306 107.6 82.4997 108.126 82.4951 108.814L82.4609 111.658C82.4564 111.891 82.4609 112.077 82.4746 112.219C82.4928 112.36 82.5339 112.469 82.5977 112.547C82.666 112.62 82.7663 112.672 82.8984 112.704C83.0306 112.731 83.2083 112.747 83.4316 112.752L83.4658 113.019C83.2699 113.096 83.0306 113.174 82.748 113.251C82.4655 113.328 82.2741 113.367 82.1738 113.367C81.7318 113.367 81.4287 113.139 81.2646 112.684C80.6266 113.144 80.0251 113.374 79.46 113.374C78.8265 113.374 78.3161 113.219 77.9287 112.909C77.5459 112.595 77.3545 112.153 77.3545 111.583C77.3545 110.881 77.6667 110.364 78.291 110.031C78.9199 109.699 79.9043 109.532 81.2441 109.532L81.251 108.999C81.2555 108.489 81.1257 108.11 80.8613 107.864C80.597 107.618 80.1914 107.495 79.6445 107.495C79.2298 107.495 78.7103 107.573 78.0859 107.728L77.9287 107.27Z" fill="white"/>
<path d="M68.5 23.75L73.5 22.5L75.9999 28.75L75.9997 30.0741C75.9996 30.3927 76.0623 30.7081 76.1841 31.0024C76.306 31.2967 76.4846 31.5642 76.7098 31.7894C76.935 32.0147 77.2024 32.1934 77.4967 32.3153C77.791 32.4372 78.1064 32.5 78.4249 32.5H78.5325C78.8554 32.5021 79.1756 32.4404 79.4746 32.3184C79.7736 32.1964 80.0455 32.0166 80.2748 31.7892C80.5041 31.5618 80.6862 31.2913 80.8106 30.9933C80.9351 30.6953 80.9994 30.3757 81 30.0528V29.9991C80.9999 29.1701 80.8843 28.3452 80.6566 27.5481L78.8737 21.3083C78.6286 20.4503 78.1688 19.6689 77.5379 19.0379C77.0503 18.5503 76.4714 18.1636 75.8344 17.8997C75.1973 17.6358 74.5146 17.5 73.825 17.5H66L68.5 23.75Z" fill="#FFBFA1"/>
<path d="M68.4999 19.375V33.75L59.7499 32.5L59.75 20.9374L64.1249 15C65.2853 15 66.3981 15.4609 67.2185 16.2814C68.039 17.1019 68.4999 18.2147 68.4999 19.375Z" fill="#EF5E3B"/>
<path d="M65.9999 6.25L67.7233 4.52665C67.9695 4.28042 68.2618 4.0851 68.5835 3.95184C68.9053 3.81859 69.2501 3.75 69.5983 3.75C70.3016 3.75 70.976 4.02937 71.4733 4.52665C71.9706 5.02393 72.2499 5.69839 72.2499 6.40165V10.4931C72.2499 11.8794 72.5922 13.2444 73.2464 14.4667C73.9006 15.6891 74.8464 16.731 75.9999 17.5H72.2499C70.9239 17.5 69.6521 16.9732 68.7144 16.0355C67.7767 15.0979 67.2499 13.8261 67.2499 12.5L65.9999 6.25Z" fill="#B1712C"/>
<path d="M65.9999 11.2498L63.4999 8.75H59.7499V12.5C59.7499 13.4946 60.145 14.4484 60.8483 15.1517C61.5516 15.8549 62.5054 16.25 63.4999 16.25C64.4945 16.25 65.4483 15.8549 66.1516 15.1517C66.8549 14.4484 67.2499 13.4946 67.2499 12.5V11.25L65.9999 11.2498Z" fill="#FFCEB6"/>
<path d="M59.7499 8.75C59.7499 7.75544 60.145 6.80161 60.8483 6.09835C61.5516 5.39509 62.5054 5 63.4999 5C64.4945 5 65.4483 5.39509 66.1516 6.09835C66.8549 6.80161 67.2499 7.75544 67.2499 8.75V11.25L65.9999 11.2498L63.4999 8.75H59.7499Z" fill="#C78640"/>
<path d="M62.486 17.5174L58.4999 22.5L53.4999 20L52.6165 18.6748C52.4204 18.3807 52.1615 18.1337 51.8585 17.9518C51.5554 17.7698 51.2158 17.6574 50.864 17.6225C50.5123 17.5877 50.1572 17.6314 49.8244 17.7504C49.4915 17.8694 49.1892 18.0607 48.9393 18.3107C48.7174 18.5325 48.5415 18.7959 48.4214 19.0857C48.3013 19.3756 48.2395 19.6863 48.2395 20C48.2395 20.3137 48.3013 20.6244 48.4214 20.9143C48.5415 21.2041 48.7174 21.4675 48.9393 21.6893L54.2322 26.9822C54.7926 27.5427 55.458 27.9873 56.1903 28.2906C56.9225 28.5939 57.7074 28.75 58.4999 28.75C59.2925 28.75 60.0774 28.5939 60.8096 28.2906C61.5419 27.9873 62.2073 27.5427 62.7677 26.9822L67.3523 22.3977C68.0871 21.6628 68.4999 20.6662 68.4999 19.627C68.4999 19.1835 68.4126 18.7444 68.2429 18.3347C68.0732 17.9249 67.8244 17.5527 67.5109 17.2391C67.1973 16.9255 66.825 16.6768 66.4153 16.5071C66.0056 16.3373 65.5665 16.25 65.123 16.25C64.6166 16.25 64.1166 16.3639 63.6601 16.5833C63.2037 16.8027 62.8024 17.1219 62.486 17.5174Z" fill="#FFCEB6"/>
<path d="M36 47.5L41 50L47.25 36.25L53.0687 38.5781L59.75 41.25L60.2609 45L63.5 68.75H68.5V33.75L59.75 32.5L56 31.25L49.4172 29.0562C47.9757 28.5752 46.4048 28.6634 45.0262 29.3028C43.6476 29.9421 42.5656 31.0842 42.0015 32.4953L36 47.5Z" fill="#FFCEB6"/>
<path d="M41 50V52.5L32.25 55L31 52.5L36 47.5L41 50Z" fill="#E0EDFF"/>
<path d="M53.0687 38.5781L59.75 41.25L60.2609 45H68.5V33.75L59.75 32.5L56 31.25L53.0687 38.5781Z" fill="#FFB401"/>
<path d="M68.5 68.75H63.5L62.25 76.25H64.75L69.75 71.25L68.5 68.75Z" fill="#E0EDFF"/>
<path d="M41.3433 53.7019L32.5933 56.2019C32.313 56.2819 32.0135 56.2613 31.7467 56.144C31.4799 56.0266 31.2624 55.8197 31.1319 55.559L29.8819 53.059C29.7646 52.8244 29.724 52.5587 29.7661 52.2998C29.8081 52.0408 29.9305 51.8016 30.1161 51.6161L34.9346 46.7976L40.8415 32.0306C41.5241 30.3238 42.8332 28.9424 44.5008 28.169C46.1684 27.3956 48.0685 27.2886 49.8123 27.8699L58.4999 30.7657V30C57.5428 30.0026 56.5947 29.8153 55.7104 29.4491C54.8261 29.0828 54.0233 28.5448 53.3483 27.8661L48.0554 22.5732C47.6961 22.2139 47.416 21.7834 47.2332 21.3093C47.0504 20.8352 46.9689 20.328 46.9939 19.8205C47.019 19.313 47.1501 18.8164 47.3787 18.3626C47.6073 17.9088 47.9285 17.5079 48.3214 17.1857C48.7144 16.8636 49.1705 16.6273 49.6603 16.4921C50.1501 16.3569 50.6628 16.3258 51.1654 16.4007C51.6679 16.4757 52.1493 16.655 52.5783 16.9273C53.0073 17.1995 53.3746 17.5586 53.6565 17.9814L54.3559 19.0305L58.1551 20.93L61.3058 16.9917C60.4649 16.5803 59.7562 15.9413 59.2602 15.1473C58.7642 14.3533 58.5008 13.4362 58.4999 12.5V8.75C58.4993 7.86841 58.732 7.00236 59.1743 6.23976C59.6166 5.47716 60.2528 4.84516 61.0183 4.4079C61.7838 3.97065 62.6514 3.74372 63.533 3.75013C64.4145 3.75655 65.2787 3.9961 66.0378 4.44445L66.8395 3.64281C67.3851 3.09714 68.0803 2.72553 68.8372 2.57498C69.594 2.42442 70.3785 2.50169 71.0914 2.79699C71.8044 3.0923 72.4137 3.59239 72.8424 4.23402C73.2711 4.87565 73.4999 5.63 73.4999 6.40167V10.4931C73.4987 11.6739 73.7896 12.8367 74.3468 13.8778C74.904 14.9189 75.7101 15.806 76.6933 16.46C76.9516 16.6332 77.1357 16.8968 77.2095 17.1989C78.603 18.0507 79.626 19.3947 80.0757 20.9649L81.8585 27.2047C82.1181 28.1135 82.2499 29.054 82.25 29.9992V30.0526C82.2515 30.5392 82.1561 31.0212 81.9693 31.4704C81.7826 31.9197 81.5082 32.3273 81.1623 32.6694C80.8167 33.0139 80.4065 33.2867 79.9552 33.4721C79.5039 33.6575 79.0204 33.752 78.5325 33.75H78.4249C77.9422 33.75 77.4642 33.6549 77.0183 33.4701C76.5723 33.2854 76.1671 33.0146 75.8259 32.6732C75.4846 32.3319 75.2139 31.9266 75.0292 31.4806C74.8446 31.0346 74.7496 30.5566 74.7497 30.0739L74.7498 28.9906L72.7446 23.9773L69.7499 24.726V68.4549L70.8679 70.691C70.9853 70.9256 71.0258 71.1913 70.9838 71.4502C70.9418 71.7092 70.8193 71.9484 70.6338 72.1339L65.6338 77.1339C65.5177 77.2499 65.3799 77.342 65.2283 77.4048C65.0766 77.4677 64.9141 77.5 64.7499 77.5H62.2499C62.0684 77.5 61.889 77.4604 61.7243 77.3841C61.5596 77.3078 61.4135 77.1965 61.2962 77.058C61.1788 76.9194 61.0931 76.757 61.0449 76.582C60.9966 76.407 60.9871 76.2236 61.0169 76.0445L62.2358 68.7312L58.6098 42.1402L47.8939 37.8539L42.2499 50.2708V52.5C42.2499 52.7716 42.1614 53.0359 41.9979 53.2528C41.8343 53.4696 41.6045 53.6273 41.3433 53.7019ZM32.5208 52.7468L32.904 53.5131L39.7499 51.5572V50.7725L36.2467 49.0209L32.5208 52.7468ZM60.9999 31.4159L67.2499 32.3087V24.2678L63.6516 27.8662C62.9022 28.6181 61.997 29.1965 60.9999 29.5607V31.4159ZM57.9409 23.618L52.9409 21.118C52.7463 21.0208 52.5805 20.8744 52.4599 20.6934L51.5764 19.3681C51.4882 19.2358 51.3732 19.1234 51.2389 19.0382C51.1046 18.953 50.954 18.8968 50.7966 18.8734C50.6393 18.8499 50.4789 18.8596 50.3255 18.902C50.1722 18.9443 50.0295 19.0182 49.9065 19.1191C49.7835 19.2199 49.6829 19.3454 49.6114 19.4874C49.5398 19.6295 49.4988 19.7849 49.4909 19.9438C49.4831 20.1026 49.5086 20.2614 49.5658 20.4098C49.623 20.5582 49.7107 20.693 49.8232 20.8054L55.1161 26.0983C56.0135 26.9958 57.2307 27.5 58.4999 27.5C59.7692 27.5 60.9864 26.9958 61.8839 26.0984L66.4684 21.5138C66.7169 21.2666 66.914 20.9725 67.0481 20.6487C67.1823 20.3248 67.2509 19.9775 67.2499 19.6269C67.2499 19.1862 67.113 18.7563 66.8581 18.3968C66.6032 18.0373 66.2429 17.7658 65.827 17.6199C65.4111 17.474 64.9602 17.4609 64.5366 17.5825C64.1129 17.704 63.7375 17.9541 63.4622 18.2983L59.476 23.2809C59.2973 23.5042 59.0474 23.6595 58.7681 23.7209C58.4887 23.7822 58.1968 23.7459 57.9409 23.618ZM60.9999 12.5C60.9999 13.163 61.2633 13.7989 61.7322 14.2678C62.201 14.7366 62.8369 15 63.4999 15C64.163 15 64.7988 14.7366 65.2677 14.2678C65.7365 13.7989 65.9999 13.163 65.9999 12.5V12.4998H65.9998C65.6683 12.4998 65.3505 12.3681 65.1161 12.1338L62.9822 10H60.9999L60.9999 12.5ZM61.3382 7.5H63.4999C63.8314 7.50001 64.1493 7.63168 64.3838 7.86606L65.9999 9.48214V8.75C66.0004 8.19985 65.8192 7.66493 65.4845 7.22829C65.1498 6.79165 64.6804 6.47772 64.149 6.33523C63.6176 6.19275 63.054 6.22968 62.5458 6.44029C62.0375 6.65091 61.613 7.02342 61.3382 7.5ZM70.9999 10.4931V6.40167C70.9999 6.12445 70.9178 5.85344 70.7637 5.62293C70.6097 5.39242 70.3908 5.21275 70.1347 5.10667C69.8786 5.00058 69.5967 4.97284 69.3248 5.02694C69.0529 5.08104 68.8032 5.21456 68.6072 5.41062L67.8055 6.21222C68.2608 6.98037 68.5007 7.85704 68.4999 8.75V12.5C68.501 13.4942 68.8965 14.4474 69.5995 15.1504C70.3025 15.8534 71.2557 16.2489 72.2499 16.25H72.8973C71.6631 14.5845 70.9979 12.566 70.9999 10.4931ZM73.1968 21.2873C73.49 21.2139 73.8 21.2493 74.0691 21.3869C74.3383 21.5245 74.5484 21.755 74.6606 22.0357L77.1605 28.2857C77.2196 28.4335 77.2499 28.5911 77.2499 28.7502L77.2497 30.0745C77.2497 30.2288 77.28 30.3817 77.3391 30.5243C77.3981 30.6669 77.4847 30.7965 77.5938 30.9057C77.703 31.0148 77.8325 31.1014 77.9751 31.1605C78.1177 31.2196 78.2706 31.25 78.4249 31.25H78.5325C78.6931 31.2511 78.8524 31.2205 79.0012 31.1599C79.15 31.0993 79.2853 31.0098 79.3994 30.8968C79.511 30.7864 79.5994 30.6549 79.6596 30.51C79.7198 30.3651 79.7505 30.2096 79.75 30.0527V29.9993C79.7499 29.2864 79.6505 28.5769 79.4546 27.8915L77.6719 21.6518C77.4331 20.8158 76.9284 20.0804 76.2343 19.5568C75.5402 19.0332 74.6944 18.75 73.825 18.75H69.6655C69.7214 19.039 69.7497 19.3326 69.7499 19.6269V22.149L73.1968 21.2873ZM64.2321 75L68.229 71.0032L67.7274 70H64.5588L63.7255 75H64.2321ZM64.5911 67.5H67.2499V46.25H61.6933L64.5911 67.5ZM60.2142 40.0894C60.4194 40.1715 60.5992 40.3065 60.7352 40.4807C60.8712 40.6549 60.9586 40.8621 60.9885 41.0811L61.3524 43.75H67.2499V34.8341L59.5731 33.7374L59.5735 33.7353C59.4992 33.7254 59.426 33.7089 59.3546 33.6858L56.7228 32.8086L54.6937 37.8812L60.2142 40.0894ZM46.112 35.7327C46.245 35.44 46.4858 35.2098 46.7842 35.09C47.0826 34.9702 47.4156 34.97 47.7142 35.0894L52.3725 36.9528L54.347 32.0166L49.0218 30.2415C47.8828 29.8619 46.6418 29.9318 45.5526 30.437C44.4635 30.9421 43.6085 31.8443 43.1626 32.9591L37.5877 46.8964L40.3987 48.3019L46.112 35.7327Z" fill="black"/>
</svg>
