<svg width="80" height="80" viewBox="0 0 80 80" fill="none" xmlns="http://www.w3.org/2000/svg">
<path d="M52.5 23.75L57.5 22.5L59.9999 28.75L59.9997 30.0741C59.9996 30.3927 60.0623 30.7081 60.1841 31.0024C60.306 31.2967 60.4846 31.5642 60.7098 31.7894C60.935 32.0147 61.2024 32.1934 61.4967 32.3153C61.791 32.4372 62.1064 32.5 62.4249 32.5H62.5325C62.8554 32.5021 63.1756 32.4404 63.4746 32.3184C63.7736 32.1964 64.0455 32.0166 64.2748 31.7892C64.5041 31.5618 64.6862 31.2913 64.8106 30.9933C64.9351 30.6953 64.9994 30.3757 65 30.0528V29.9991C64.9999 29.1701 64.8843 28.3452 64.6566 27.5481L62.8737 21.3083C62.6286 20.4503 62.1688 19.6689 61.5379 19.0379C61.0503 18.5503 60.4714 18.1636 59.8344 17.8997C59.1973 17.6358 58.5146 17.5 57.825 17.5H50L52.5 23.75Z" fill="#FFBFA1"/>
<path d="M52.4999 19.375V33.75L43.7499 32.5L43.75 20.9374L48.1249 15C49.2853 15 50.3981 15.4609 51.2185 16.2814C52.039 17.1019 52.4999 18.2147 52.4999 19.375Z" fill="#EF5E3B"/>
<path d="M49.9999 6.25L51.7233 4.52665C51.9695 4.28042 52.2618 4.0851 52.5835 3.95184C52.9053 3.81859 53.2501 3.75 53.5983 3.75C54.3016 3.75 54.976 4.02937 55.4733 4.52665C55.9706 5.02393 56.2499 5.69839 56.2499 6.40165V10.4931C56.2499 11.8794 56.5922 13.2444 57.2464 14.4667C57.9006 15.6891 58.8464 16.731 59.9999 17.5H56.2499C54.9239 17.5 53.6521 16.9732 52.7144 16.0355C51.7767 15.0979 51.2499 13.8261 51.2499 12.5L49.9999 6.25Z" fill="#B1712C"/>
<path d="M49.9999 11.2498L47.4999 8.75H43.7499V12.5C43.7499 13.4946 44.145 14.4484 44.8483 15.1517C45.5516 15.8549 46.5054 16.25 47.4999 16.25C48.4945 16.25 49.4483 15.8549 50.1516 15.1517C50.8549 14.4484 51.2499 13.4946 51.2499 12.5V11.25L49.9999 11.2498Z" fill="#FFCEB6"/>
<path d="M43.7499 8.75C43.7499 7.75544 44.145 6.80161 44.8483 6.09835C45.5516 5.39509 46.5054 5 47.4999 5C48.4945 5 49.4483 5.39509 50.1516 6.09835C50.8549 6.80161 51.2499 7.75544 51.2499 8.75V11.25L49.9999 11.2498L47.4999 8.75H43.7499Z" fill="#C78640"/>
<path d="M46.486 17.5174L42.4999 22.5L37.4999 20L36.6165 18.6748C36.4204 18.3807 36.1615 18.1337 35.8585 17.9518C35.5554 17.7698 35.2158 17.6574 34.864 17.6225C34.5123 17.5877 34.1572 17.6314 33.8244 17.7504C33.4915 17.8694 33.1892 18.0607 32.9393 18.3107C32.7174 18.5325 32.5415 18.7959 32.4214 19.0857C32.3013 19.3756 32.2395 19.6863 32.2395 20C32.2395 20.3137 32.3013 20.6244 32.4214 20.9143C32.5415 21.2041 32.7174 21.4675 32.9393 21.6893L38.2322 26.9822C38.7926 27.5427 39.458 27.9873 40.1903 28.2906C40.9225 28.5939 41.7074 28.75 42.4999 28.75C43.2925 28.75 44.0774 28.5939 44.8096 28.2906C45.5419 27.9873 46.2073 27.5427 46.7677 26.9822L51.3523 22.3977C52.0871 21.6628 52.4999 20.6662 52.4999 19.627C52.4999 19.1835 52.4126 18.7444 52.2429 18.3347C52.0732 17.9249 51.8244 17.5527 51.5109 17.2391C51.1973 16.9255 50.825 16.6768 50.4153 16.5071C50.0056 16.3373 49.5665 16.25 49.123 16.25C48.6166 16.25 48.1166 16.3639 47.6601 16.5833C47.2037 16.8027 46.8024 17.1219 46.486 17.5174Z" fill="#FFCEB6"/>
<path d="M20 47.5L25 50L31.25 36.25L37.0687 38.5781L43.75 41.25L44.2609 45L47.5 68.75H52.5V33.75L43.75 32.5L40 31.25L33.4172 29.0562C31.9757 28.5752 30.4048 28.6634 29.0262 29.3028C27.6476 29.9421 26.5656 31.0842 26.0015 32.4953L20 47.5Z" fill="#FFCEB6"/>
<path d="M25 50V52.5L16.25 55L15 52.5L20 47.5L25 50Z" fill="#E0EDFF"/>
<path d="M37.0687 38.5781L43.75 41.25L44.2609 45H52.5V33.75L43.75 32.5L40 31.25L37.0687 38.5781Z" fill="#FFB401"/>
<path d="M52.5 68.75H47.5L46.25 76.25H48.75L53.75 71.25L52.5 68.75Z" fill="#E0EDFF"/>
<path d="M25.3433 53.7019L16.5933 56.2019C16.313 56.2819 16.0135 56.2613 15.7467 56.144C15.4799 56.0266 15.2624 55.8197 15.1319 55.559L13.8819 53.059C13.7646 52.8244 13.724 52.5587 13.7661 52.2998C13.8081 52.0408 13.9305 51.8016 14.1161 51.6161L18.9346 46.7976L24.8415 32.0306C25.5241 30.3238 26.8332 28.9424 28.5008 28.169C30.1684 27.3956 32.0685 27.2886 33.8123 27.8699L42.4999 30.7657V30C41.5428 30.0026 40.5947 29.8153 39.7104 29.4491C38.8261 29.0828 38.0233 28.5448 37.3483 27.8661L32.0554 22.5732C31.6961 22.2139 31.416 21.7834 31.2332 21.3093C31.0504 20.8352 30.9689 20.328 30.9939 19.8205C31.019 19.313 31.1501 18.8164 31.3787 18.3626C31.6073 17.9088 31.9285 17.5079 32.3214 17.1857C32.7144 16.8636 33.1705 16.6273 33.6603 16.4921C34.1501 16.3569 34.6628 16.3258 35.1654 16.4007C35.6679 16.4757 36.1493 16.655 36.5783 16.9273C37.0073 17.1995 37.3746 17.5586 37.6565 17.9814L38.3559 19.0305L42.1551 20.93L45.3058 16.9917C44.4649 16.5803 43.7562 15.9413 43.2602 15.1473C42.7642 14.3533 42.5008 13.4362 42.4999 12.5V8.75C42.4993 7.86841 42.732 7.00236 43.1743 6.23976C43.6166 5.47716 44.2528 4.84516 45.0183 4.4079C45.7838 3.97065 46.6514 3.74372 47.533 3.75013C48.4145 3.75655 49.2787 3.9961 50.0378 4.44445L50.8395 3.64281C51.3851 3.09714 52.0803 2.72553 52.8372 2.57498C53.594 2.42442 54.3785 2.50169 55.0914 2.79699C55.8044 3.0923 56.4137 3.59239 56.8424 4.23402C57.2711 4.87565 57.4999 5.63 57.4999 6.40167V10.4931C57.4987 11.6739 57.7896 12.8367 58.3468 13.8778C58.904 14.9189 59.7101 15.806 60.6933 16.46C60.9516 16.6332 61.1357 16.8968 61.2095 17.1989C62.603 18.0507 63.626 19.3947 64.0757 20.9649L65.8585 27.2047C66.1181 28.1135 66.2499 29.054 66.25 29.9992V30.0526C66.2515 30.5392 66.1561 31.0212 65.9693 31.4704C65.7826 31.9197 65.5082 32.3273 65.1623 32.6694C64.8167 33.0139 64.4065 33.2867 63.9552 33.4721C63.5039 33.6575 63.0204 33.752 62.5325 33.75H62.4249C61.9422 33.75 61.4642 33.6549 61.0183 33.4701C60.5723 33.2854 60.1671 33.0146 59.8259 32.6732C59.4846 32.3319 59.2139 31.9266 59.0292 31.4806C58.8446 31.0346 58.7496 30.5566 58.7497 30.0739L58.7498 28.9906L56.7446 23.9773L53.7499 24.726V68.4549L54.8679 70.691C54.9853 70.9256 55.0258 71.1913 54.9838 71.4502C54.9418 71.7092 54.8193 71.9484 54.6338 72.1339L49.6338 77.1339C49.5177 77.2499 49.3799 77.342 49.2283 77.4048C49.0766 77.4677 48.9141 77.5 48.7499 77.5H46.2499C46.0684 77.5 45.889 77.4604 45.7243 77.3841C45.5596 77.3078 45.4135 77.1965 45.2962 77.058C45.1788 76.9194 45.0931 76.757 45.0449 76.582C44.9966 76.407 44.9871 76.2236 45.0169 76.0445L46.2358 68.7312L42.6098 42.1402L31.8939 37.8539L26.2499 50.2708V52.5C26.2499 52.7716 26.1614 53.0359 25.9979 53.2528C25.8343 53.4696 25.6045 53.6273 25.3433 53.7019ZM16.5208 52.7468L16.904 53.5131L23.7499 51.5572V50.7725L20.2467 49.0209L16.5208 52.7468ZM44.9999 31.4159L51.2499 32.3087V24.2678L47.6516 27.8662C46.9022 28.6181 45.997 29.1965 44.9999 29.5607V31.4159ZM41.9409 23.618L36.9409 21.118C36.7463 21.0208 36.5805 20.8744 36.4599 20.6934L35.5764 19.3681C35.4882 19.2358 35.3732 19.1234 35.2389 19.0382C35.1046 18.953 34.954 18.8968 34.7966 18.8734C34.6393 18.8499 34.4789 18.8596 34.3255 18.902C34.1722 18.9443 34.0295 19.0182 33.9065 19.1191C33.7835 19.2199 33.6829 19.3454 33.6114 19.4874C33.5398 19.6295 33.4988 19.7849 33.4909 19.9438C33.4831 20.1026 33.5086 20.2614 33.5658 20.4098C33.623 20.5582 33.7107 20.693 33.8232 20.8054L39.1161 26.0983C40.0135 26.9958 41.2307 27.5 42.4999 27.5C43.7692 27.5 44.9864 26.9958 45.8839 26.0984L50.4684 21.5138C50.7169 21.2666 50.914 20.9725 51.0481 20.6487C51.1823 20.3248 51.2509 19.9775 51.2499 19.6269C51.2499 19.1862 51.113 18.7563 50.8581 18.3968C50.6032 18.0373 50.2429 17.7658 49.827 17.6199C49.4111 17.474 48.9602 17.4609 48.5366 17.5825C48.1129 17.704 47.7375 17.9541 47.4622 18.2983L43.476 23.2809C43.2973 23.5042 43.0474 23.6595 42.7681 23.7209C42.4887 23.7822 42.1968 23.7459 41.9409 23.618ZM44.9999 12.5C44.9999 13.163 45.2633 13.7989 45.7322 14.2678C46.201 14.7366 46.8369 15 47.4999 15C48.163 15 48.7988 14.7366 49.2677 14.2678C49.7365 13.7989 49.9999 13.163 49.9999 12.5V12.4998H49.9998C49.6683 12.4998 49.3505 12.3681 49.1161 12.1338L46.9822 10H44.9999L44.9999 12.5ZM45.3382 7.5H47.4999C47.8314 7.50001 48.1493 7.63168 48.3838 7.86606L49.9999 9.48214V8.75C50.0004 8.19985 49.8192 7.66493 49.4845 7.22829C49.1498 6.79165 48.6804 6.47772 48.149 6.33523C47.6176 6.19275 47.054 6.22968 46.5458 6.44029C46.0375 6.65091 45.613 7.02342 45.3382 7.5ZM54.9999 10.4931V6.40167C54.9999 6.12445 54.9178 5.85344 54.7637 5.62293C54.6097 5.39242 54.3908 5.21275 54.1347 5.10667C53.8786 5.00058 53.5967 4.97284 53.3248 5.02694C53.0529 5.08104 52.8032 5.21456 52.6072 5.41062L51.8055 6.21222C52.2608 6.98037 52.5007 7.85704 52.4999 8.75V12.5C52.501 13.4942 52.8965 14.4474 53.5995 15.1504C54.3025 15.8534 55.2557 16.2489 56.2499 16.25H56.8973C55.6631 14.5845 54.9979 12.566 54.9999 10.4931ZM57.1968 21.2873C57.49 21.2139 57.8 21.2493 58.0691 21.3869C58.3383 21.5245 58.5484 21.755 58.6606 22.0357L61.1605 28.2857C61.2196 28.4335 61.2499 28.5911 61.2499 28.7502L61.2497 30.0745C61.2497 30.2288 61.28 30.3817 61.3391 30.5243C61.3981 30.6669 61.4847 30.7965 61.5938 30.9057C61.703 31.0148 61.8325 31.1014 61.9751 31.1605C62.1177 31.2196 62.2706 31.25 62.4249 31.25H62.5325C62.6931 31.2511 62.8524 31.2205 63.0012 31.1599C63.15 31.0993 63.2853 31.0098 63.3994 30.8968C63.511 30.7864 63.5994 30.6549 63.6596 30.51C63.7198 30.3651 63.7505 30.2096 63.75 30.0527V29.9993C63.7499 29.2864 63.6505 28.5769 63.4546 27.8915L61.6719 21.6518C61.4331 20.8158 60.9284 20.0804 60.2343 19.5568C59.5402 19.0332 58.6944 18.75 57.825 18.75H53.6655C53.7214 19.039 53.7497 19.3326 53.7499 19.6269V22.149L57.1968 21.2873ZM48.2321 75L52.229 71.0032L51.7274 70H48.5588L47.7255 75H48.2321ZM48.5911 67.5H51.2499V46.25H45.6933L48.5911 67.5ZM44.2142 40.0894C44.4194 40.1715 44.5992 40.3065 44.7352 40.4807C44.8712 40.6549 44.9586 40.8621 44.9885 41.0811L45.3524 43.75H51.2499V34.8341L43.5731 33.7374L43.5735 33.7353C43.4992 33.7254 43.426 33.7089 43.3546 33.6858L40.7228 32.8086L38.6937 37.8812L44.2142 40.0894ZM30.112 35.7327C30.245 35.44 30.4858 35.2098 30.7842 35.09C31.0826 34.9702 31.4156 34.97 31.7142 35.0894L36.3725 36.9528L38.347 32.0166L33.0218 30.2415C31.8828 29.8619 30.6418 29.9318 29.5526 30.437C28.4635 30.9421 27.6085 31.8443 27.1626 32.9591L21.5877 46.8964L24.3987 48.3019L30.112 35.7327Z" fill="black"/>
</svg>
